<svg xmlns="http://www.w3.org/2000/svg" xmlns:xlink="http://www.w3.org/1999/xlink" viewBox="0 0 690.32 690.32"><defs><style>.cls-1{fill:url(#Unbenannter_Verlauf_41);}.cls-2{opacity:0.23;}.cls-3{fill:url(#Unbenannter_Verlauf_41-2);}</style><linearGradient id="Unbenannter_Verlauf_41" x1="353.37" y1="11.54" x2="339.82" y2="562.12" gradientUnits="userSpaceOnUse"><stop offset="0" stop-color="#009245"/><stop offset="0.66" stop-color="#37b44a" stop-opacity="0.8"/><stop offset="0.67" stop-color="#37b44a" stop-opacity="0.66"/><stop offset="0.69" stop-color="#37b44a" stop-opacity="0.48"/><stop offset="0.72" stop-color="#37b44a" stop-opacity="0.33"/><stop offset="0.74" stop-color="#37b44a" stop-opacity="0.21"/><stop offset="0.77" stop-color="#37b44a" stop-opacity="0.11"/><stop offset="0.81" stop-color="#37b44a" stop-opacity="0.05"/><stop offset="0.86" stop-color="#37b44a" stop-opacity="0.01"/><stop offset="1" stop-color="#37b44a" stop-opacity="0"/></linearGradient><linearGradient id="Unbenannter_Verlauf_41-2" x1="352.34" y1="53.65" x2="340.49" y2="534.74" xlink:href="#Unbenannter_Verlauf_41"/></defs><g id="Ebene_2" data-name="Ebene 2"><g id="Ebene_1-2" data-name="Ebene 1"><g id="_Radiale_Wiederholung_" data-name="&lt;Radiale Wiederholung&gt;"><path class="cls-1" d="M684.81,339.44l-87.17-91.6,3.14-126.4A20,20,0,0,0,581.29,101L454.88,97.81,367.72,6.21a20,20,0,0,0-28.28-.7l-91.6,87.17-126.4-3.14A20,20,0,0,0,101,109L97.81,235.44,6.21,322.6a20,20,0,0,0-.7,28.28l87.17,91.6-3.14,126.4A20,20,0,0,0,109,589.37l126.41,3.14,87.16,91.6a20,20,0,0,0,28.28.7l91.6-87.17,126.4,3.14a20,20,0,0,0,20.49-19.49l3.14-126.41,91.6-87.16A20,20,0,0,0,684.81,339.44Zm-27.88,25.29L580.3,437.66l-8.46,8-.29,11.68-2.63,105.76a16.73,16.73,0,0,1-17.14,16.31L446,576.84l-11.67-.29h0l-8.46,8-76.64,72.92a16.71,16.71,0,0,1-23.65-.59L252.66,580.3l-8-8.46-11.68-.29-105.76-2.63a16.73,16.73,0,0,1-16.31-17.14L113.48,446l.29-11.67h0l-8-8.46L32.8,349.24a16.71,16.71,0,0,1,.59-23.65L110,252.66l8.46-8,.29-11.68,2.63-105.76a16.73,16.73,0,0,1,17.14-16.31l105.76,2.62,4.95.12,6.72.17h0l8.46-8L341.08,32.8a16.71,16.71,0,0,1,23.65.59L437.66,110l3.41,3.59,4.64,4.87,11.68.29,105.76,2.63a16.73,16.73,0,0,1,16.31,17.14L576.84,244.3,576.55,256h0l8,8.46,72.92,76.64A16.71,16.71,0,0,1,656.93,364.73Z"/></g></g><g id="Ebene_3" data-name="Ebene 3"><g id="_Radiale_Wiederholung_2" data-name="&lt;Radiale Wiederholung&gt;" class="cls-2"><path class="cls-3" d="M641.94,340.16l-76.17-80,2.75-110.44a17.48,17.48,0,0,0-17-17.91L441,129,364.87,49a17.48,17.48,0,0,0-24.71-.61l-80,76.17L149.68,121.8a17.48,17.48,0,0,0-17.91,17L129,249.29,49,325.45a17.48,17.48,0,0,0-.61,24.71l76.17,80L121.8,540.64a17.47,17.47,0,0,0,17,17.91l110.46,2.74,76.16,80a17.48,17.48,0,0,0,24.71.61l80-76.17,110.44,2.75a17.47,17.47,0,0,0,17.91-17L561.29,441l80-76.16A17.48,17.48,0,0,0,641.94,340.16Zm-24.36,22.1-67,63.72-7.39,7-.25,10.2-2.3,92.42a14.62,14.62,0,0,1-15,14.25l-92.41-2.29-10.2-.26h0l-7.39,7-67,63.71a14.6,14.6,0,0,1-20.66-.51l-63.72-67-7-7.39L247.1,543l-92.42-2.3a14.62,14.62,0,0,1-14.25-15l2.29-92.41.26-10.2h0l-7-7.39-63.71-67a14.6,14.6,0,0,1,.51-20.66l67-63.72,7.39-7,.25-10.2,2.3-92.42a14.62,14.62,0,0,1,15-14.25L257,142.72l4.33.11,5.87.15h0l7.39-7,67-63.71a14.61,14.61,0,0,1,20.67.51l63.72,67,3,3.14,4.06,4.25,10.2.25,92.42,2.3a14.62,14.62,0,0,1,14.25,15L547.6,257l-.26,10.2h0l7,7.39,63.71,67A14.61,14.61,0,0,1,617.58,362.26Z"/></g></g></g></svg>