<svg xmlns="http://www.w3.org/2000/svg" viewBox="0 0 41 39"><defs><style>.cls-1{fill:#001411;}</style></defs><g id="Ebene_2" data-name="Ebene 2"><g id="Ebene_1-2" data-name="Ebene 1"><path class="cls-1" d="M3,5.5a2.5,2.5,0,0,1,0-5H38a2.5,2.5,0,0,1,0,5Z"/><path d="M38,1a2,2,0,0,1,0,4H3A2,2,0,0,1,3,1H38m0-1H3A3,3,0,0,0,3,6H38a3,3,0,0,0,0-6Z"/><path class="cls-1" d="M3,22.5a2.5,2.5,0,0,1,0-5H32a2.5,2.5,0,0,1,0,5Z"/><path d="M32,18a2,2,0,0,1,0,4H3a2,2,0,0,1,0-4H32m0-1H3a3,3,0,0,0,0,6H32a3,3,0,0,0,0-6Z"/><path class="cls-1" d="M3,38.5a2.5,2.5,0,0,1,0-5H38a2.5,2.5,0,0,1,0,5Z"/><path d="M38,34a2,2,0,0,1,0,4H3a2,2,0,0,1,0-4H38m0-1H3a3,3,0,0,0,0,6H38a3,3,0,0,0,0-6Z"/></g></g></svg>