<svg xmlns="http://www.w3.org/2000/svg" viewBox="0 0 999.65 199.9"><g id="Ebene_2" data-name="Ebene 2"><g id="Ebene_1-2" data-name="Ebene 1"><path d="M49.82,3.72c1.65.2,12.46,12.24,13.62,13,25.31.8,18.85-5.58,19.67,19.67,17.06,18.3,17,9,0,27.24-.79,25,5.51,18.63-19.44,19.44C45,100.46,54.6,100.41,36,83.09c-24.68-.78-18.4,5.43-19.19-19.2-17.38-18.67-17.33-9.08,0-27.72.78-25-5.51-18.62,19.42-19.43,1.17-.78,12-12.81,13.63-13m0-3.69C46.5-.67,37,11.41,34.67,13.06,10.18,13,13,10.24,13.08,34.64c-17.48,17.22-17.4,13.6,0,30.78C13,89.6,10.33,86.86,34.44,86.77c17.4,17.54,13.4,17.46,30.76,0,24.51.1,21.67,2.83,21.6-21.6,17.17-16.89,17.09-13.43,0-30.29C86.89,10.08,89.7,13,65,13.06,62.57,11.35,53.19-.63,49.82,0Z"/><path d="M149.82,3.72c1.65.2,12.46,12.24,13.62,13,25.31.8,18.85-5.58,19.67,19.67,17.06,18.3,17,9,0,27.24-.79,25,5.51,18.63-19.44,19.44-18.66,17.37-9.07,17.32-27.71,0-24.68-.78-18.4,5.43-19.19-19.2-17.38-18.67-17.33-9.08,0-27.72.78-25-5.51-18.62,19.42-19.43,1.17-.78,12-12.81,13.63-13m0-3.69c-3.32-.7-12.82,11.38-15.15,13C110.18,13,113,10.24,113.08,34.64c-17.48,17.22-17.4,13.6,0,30.78-.11,24.18-2.75,21.44,21.36,21.35,17.4,17.54,13.4,17.46,30.76,0,24.51.1,21.67,2.83,21.6-21.6,17.17-16.89,17.09-13.43,0-30.29.09-24.8,2.9-21.89-21.83-21.82-2.4-1.71-11.78-13.69-15.15-13Z"/><path d="M249.82,3.72c1.65.2,12.46,12.24,13.62,13,25.31.8,18.85-5.58,19.67,19.67,17.06,18.3,17,9,0,27.24-.79,25,5.51,18.63-19.44,19.44-18.66,17.37-9.07,17.32-27.71,0-24.68-.78-18.4,5.43-19.19-19.2-17.38-18.67-17.33-9.08,0-27.72.78-25-5.51-18.62,19.42-19.43,1.17-.78,12-12.81,13.63-13m0-3.69c-3.32-.7-12.82,11.38-15.15,13C210.18,13,213,10.24,213.08,34.64c-17.48,17.22-17.4,13.6,0,30.78-.11,24.18-2.75,21.44,21.36,21.35,17.4,17.54,13.4,17.46,30.76,0,24.51.1,21.67,2.83,21.6-21.6,17.17-16.89,17.09-13.43,0-30.29.09-24.8,2.9-21.89-21.83-21.82-2.4-1.71-11.78-13.69-15.15-13Z"/><path d="M349.82,3.72c1.65.2,12.46,12.24,13.62,13,25.31.8,18.85-5.58,19.67,19.67,17.06,18.3,17,9,0,27.24-.79,25,5.51,18.63-19.44,19.44-18.66,17.37-9.07,17.32-27.71,0-24.68-.78-18.4,5.43-19.19-19.2-17.38-18.67-17.33-9.08,0-27.72.78-25-5.51-18.62,19.42-19.43,1.17-.78,12-12.81,13.63-13m0-3.69c-3.32-.7-12.82,11.38-15.15,13C310.18,13,313,10.24,313.08,34.64c-17.48,17.22-17.4,13.6,0,30.78-.11,24.18-2.75,21.44,21.36,21.35,17.4,17.54,13.4,17.46,30.76,0,24.51.1,21.67,2.83,21.6-21.6,17.17-16.89,17.09-13.43,0-30.29.09-24.8,2.9-21.89-21.83-21.82-2.4-1.71-11.78-13.69-15.15-13Z"/><path d="M449.82,3.72c1.65.2,12.46,12.24,13.62,13,25.31.8,18.85-5.58,19.67,19.67,17.06,18.3,17,9,0,27.24-.79,25,5.51,18.63-19.44,19.44-18.66,17.37-9.07,17.32-27.71,0-24.68-.78-18.4,5.43-19.19-19.2-17.38-18.67-17.33-9.08,0-27.72.78-25-5.51-18.62,19.42-19.43,1.17-.78,12-12.81,13.63-13m0-3.69c-3.32-.7-12.82,11.38-15.15,13C410.18,13,413,10.24,413.08,34.64c-17.48,17.22-17.4,13.6,0,30.78-.11,24.18-2.75,21.44,21.36,21.35,17.4,17.54,13.4,17.46,30.76,0,24.51.1,21.67,2.83,21.6-21.6,17.17-16.89,17.09-13.43,0-30.29.09-24.8,2.9-21.89-21.83-21.82-2.4-1.71-11.78-13.69-15.15-13Z"/><path d="M549.82,3.72c1.65.2,12.46,12.24,13.62,13,25.31.8,18.85-5.58,19.67,19.67,17.06,18.3,17,9,0,27.24-.79,25,5.51,18.63-19.44,19.44-18.66,17.37-9.07,17.32-27.71,0-24.68-.78-18.4,5.43-19.19-19.2-17.38-18.67-17.33-9.08,0-27.72.78-25-5.51-18.62,19.42-19.43,1.17-.78,12-12.81,13.63-13m0-3.69c-3.32-.7-12.82,11.38-15.15,13C510.18,13,513,10.24,513.08,34.64c-17.48,17.22-17.4,13.6,0,30.78-.11,24.18-2.75,21.44,21.36,21.35,17.4,17.54,13.4,17.46,30.76,0,24.51.1,21.67,2.83,21.6-21.6,17.17-16.89,17.09-13.43,0-30.29.09-24.8,2.9-21.89-21.83-21.82-2.4-1.71-11.78-13.69-15.15-13Z"/><path d="M649.82,3.72c1.65.2,12.46,12.24,13.62,13,25.31.8,18.85-5.58,19.67,19.67,17.06,18.3,17,9,0,27.24-.79,25,5.51,18.63-19.44,19.44-18.66,17.37-9.07,17.32-27.71,0-24.68-.78-18.4,5.43-19.19-19.2-17.38-18.67-17.33-9.08,0-27.72.78-25-5.51-18.62,19.42-19.43,1.17-.78,12-12.81,13.63-13m0-3.69c-3.32-.7-12.82,11.38-15.15,13C610.18,13,613,10.24,613.08,34.64c-17.48,17.22-17.4,13.6,0,30.78-.11,24.18-2.75,21.44,21.36,21.35,17.4,17.54,13.4,17.46,30.76,0,24.51.1,21.67,2.83,21.6-21.6,17.17-16.89,17.09-13.43,0-30.29.09-24.8,2.9-21.89-21.83-21.82-2.4-1.71-11.78-13.69-15.15-13Z"/><path d="M749.82,3.72c1.65.2,12.46,12.24,13.62,13,25.31.8,18.85-5.58,19.67,19.67,17.06,18.3,17,9,0,27.24-.79,25,5.51,18.63-19.44,19.44-18.66,17.37-9.07,17.32-27.71,0-24.68-.78-18.4,5.43-19.19-19.2-17.38-18.67-17.33-9.08,0-27.72.78-25-5.51-18.62,19.42-19.43,1.17-.78,12-12.81,13.63-13m0-3.69c-3.32-.7-12.82,11.38-15.15,13C710.18,13,713,10.24,713.08,34.64c-17.48,17.22-17.4,13.6,0,30.78-.11,24.18-2.75,21.44,21.36,21.35,17.4,17.54,13.4,17.46,30.76,0,24.51.1,21.67,2.83,21.6-21.6,17.17-16.89,17.09-13.43,0-30.29.09-24.8,2.9-21.89-21.83-21.82-2.4-1.71-11.78-13.69-15.15-13Z"/><path d="M849.82,3.72c1.65.2,12.46,12.24,13.62,13,25.31.8,18.85-5.58,19.67,19.67,17.06,18.3,17,9,0,27.24-.79,25,5.51,18.63-19.44,19.44-18.66,17.37-9.07,17.32-27.71,0-24.68-.78-18.4,5.43-19.19-19.2-17.38-18.67-17.33-9.08,0-27.72.78-25-5.51-18.62,19.42-19.43,1.17-.78,12-12.81,13.63-13m0-3.69c-3.32-.7-12.82,11.38-15.15,13C810.18,13,813,10.24,813.08,34.64c-17.48,17.22-17.4,13.6,0,30.78-.11,24.18-2.75,21.44,21.36,21.35,17.4,17.54,13.4,17.46,30.76,0,24.51.1,21.67,2.83,21.6-21.6,17.17-16.89,17.09-13.43,0-30.29.09-24.8,2.9-21.89-21.83-21.82-2.4-1.71-11.78-13.69-15.15-13Z"/><path d="M949.82,3.72c1.65.2,12.46,12.24,13.62,13,25.31.8,18.85-5.58,19.67,19.67,17.06,18.3,17,9,0,27.24-.79,25,5.51,18.63-19.44,19.44-18.66,17.37-9.07,17.32-27.71,0-24.68-.78-18.4,5.43-19.19-19.2-17.38-18.67-17.33-9.08,0-27.72.78-25-5.51-18.62,19.42-19.43,1.17-.78,12-12.81,13.63-13m0-3.69c-3.32-.7-12.82,11.38-15.15,13C910.18,13,913,10.24,913.08,34.64c-17.48,17.22-17.4,13.6,0,30.78-.11,24.18-2.75,21.44,21.36,21.35,17.4,17.54,13.4,17.46,30.76,0,24.51.1,21.67,2.83,21.6-21.6,17.17-16.89,17.09-13.43,0-30.29.09-24.8,2.9-21.89-21.83-21.82-2.4-1.71-11.78-13.69-15.15-13Z"/><path d="M49.82,103.72c1.65.2,12.46,12.24,13.62,13,25.31.8,18.85-5.58,19.67,19.67,17.06,18.3,17,9,0,27.24-.79,25,5.51,18.63-19.44,19.44C45,200.46,54.6,200.41,36,183.09c-24.68-.78-18.4,5.43-19.19-19.2-17.38-18.67-17.33-9.08,0-27.72.78-25-5.51-18.62,19.42-19.43,1.17-.78,12-12.81,13.63-13m0-3.69c-3.32-.7-12.82,11.38-15.15,13C10.18,113,13,110.24,13.08,134.64c-17.48,17.22-17.4,13.6,0,30.78-.11,24.18-2.75,21.44,21.36,21.35,17.4,17.54,13.4,17.46,30.76,0,24.51.1,21.67,2.83,21.6-21.6,17.17-16.89,17.09-13.43,0-30.29.09-24.8,2.9-21.89-21.83-21.82-2.4-1.71-11.78-13.69-15.15-13Z"/><path d="M149.82,103.72c1.65.2,12.46,12.24,13.62,13,25.31.8,18.85-5.58,19.67,19.67,17.06,18.3,17,9,0,27.24-.79,25,5.51,18.63-19.44,19.44-18.66,17.37-9.07,17.32-27.71,0-24.68-.78-18.4,5.43-19.19-19.2-17.38-18.67-17.33-9.08,0-27.72.78-25-5.51-18.62,19.42-19.43,1.17-.78,12-12.81,13.63-13m0-3.69c-3.32-.7-12.82,11.38-15.15,13-24.49-.1-21.67-2.82-21.59,21.58-17.48,17.22-17.4,13.6,0,30.78-.11,24.18-2.75,21.44,21.36,21.35,17.4,17.54,13.4,17.46,30.76,0,24.51.1,21.67,2.83,21.6-21.6,17.17-16.89,17.09-13.43,0-30.29.09-24.8,2.9-21.89-21.83-21.82-2.4-1.71-11.78-13.69-15.15-13Z"/><path d="M249.82,103.72c1.65.2,12.46,12.24,13.62,13,25.31.8,18.85-5.58,19.67,19.67,17.06,18.3,17,9,0,27.24-.79,25,5.51,18.63-19.44,19.44-18.66,17.37-9.07,17.32-27.71,0-24.68-.78-18.4,5.43-19.19-19.2-17.38-18.67-17.33-9.08,0-27.72.78-25-5.51-18.62,19.42-19.43,1.17-.78,12-12.81,13.63-13m0-3.69c-3.32-.7-12.82,11.38-15.15,13-24.49-.1-21.67-2.82-21.59,21.58-17.48,17.22-17.4,13.6,0,30.78-.11,24.18-2.75,21.44,21.36,21.35,17.4,17.54,13.4,17.46,30.76,0,24.51.1,21.67,2.83,21.6-21.6,17.17-16.89,17.09-13.43,0-30.29.09-24.8,2.9-21.89-21.83-21.82-2.4-1.71-11.78-13.69-15.15-13Z"/><path d="M349.82,103.72c1.65.2,12.46,12.24,13.62,13,25.31.8,18.85-5.58,19.67,19.67,17.06,18.3,17,9,0,27.24-.79,25,5.51,18.63-19.44,19.44-18.66,17.37-9.07,17.32-27.71,0-24.68-.78-18.4,5.43-19.19-19.2-17.38-18.67-17.33-9.08,0-27.72.78-25-5.51-18.62,19.42-19.43,1.17-.78,12-12.81,13.63-13m0-3.69c-3.32-.7-12.82,11.38-15.15,13-24.49-.1-21.67-2.82-21.59,21.58-17.48,17.22-17.4,13.6,0,30.78-.11,24.18-2.75,21.44,21.36,21.35,17.4,17.54,13.4,17.46,30.76,0,24.51.1,21.67,2.83,21.6-21.6,17.17-16.89,17.09-13.43,0-30.29.09-24.8,2.9-21.89-21.83-21.82-2.4-1.71-11.78-13.69-15.15-13Z"/><path d="M449.82,103.72c1.65.2,12.46,12.24,13.62,13,25.31.8,18.85-5.58,19.67,19.67,17.06,18.3,17,9,0,27.24-.79,25,5.51,18.63-19.44,19.44-18.66,17.37-9.07,17.32-27.71,0-24.68-.78-18.4,5.43-19.19-19.2-17.38-18.67-17.33-9.08,0-27.72.78-25-5.51-18.62,19.42-19.43,1.17-.78,12-12.81,13.63-13m0-3.69c-3.32-.7-12.82,11.38-15.15,13-24.49-.1-21.67-2.82-21.59,21.58-17.48,17.22-17.4,13.6,0,30.78-.11,24.18-2.75,21.44,21.36,21.35,17.4,17.54,13.4,17.46,30.76,0,24.51.1,21.67,2.83,21.6-21.6,17.17-16.89,17.09-13.43,0-30.29.09-24.8,2.9-21.89-21.83-21.82-2.4-1.71-11.78-13.69-15.15-13Z"/><path d="M549.82,103.72c1.65.2,12.46,12.24,13.62,13,25.31.8,18.85-5.58,19.67,19.67,17.06,18.3,17,9,0,27.24-.79,25,5.51,18.63-19.44,19.44-18.66,17.37-9.07,17.32-27.71,0-24.68-.78-18.4,5.43-19.19-19.2-17.38-18.67-17.33-9.08,0-27.72.78-25-5.51-18.62,19.42-19.43,1.17-.78,12-12.81,13.63-13m0-3.69c-3.32-.7-12.82,11.38-15.15,13-24.49-.1-21.67-2.82-21.59,21.58-17.48,17.22-17.4,13.6,0,30.78-.11,24.18-2.75,21.44,21.36,21.35,17.4,17.54,13.4,17.46,30.76,0,24.51.1,21.67,2.83,21.6-21.6,17.17-16.89,17.09-13.43,0-30.29.09-24.8,2.9-21.89-21.83-21.82-2.4-1.71-11.78-13.69-15.15-13Z"/><path d="M649.82,103.72c1.65.2,12.46,12.24,13.62,13,25.31.8,18.85-5.58,19.67,19.67,17.06,18.3,17,9,0,27.24-.79,25,5.51,18.63-19.44,19.44-18.66,17.37-9.07,17.32-27.71,0-24.68-.78-18.4,5.43-19.19-19.2-17.38-18.67-17.33-9.08,0-27.72.78-25-5.51-18.62,19.42-19.43,1.17-.78,12-12.81,13.63-13m0-3.69c-3.32-.7-12.82,11.38-15.15,13-24.49-.1-21.67-2.82-21.59,21.58-17.48,17.22-17.4,13.6,0,30.78-.11,24.18-2.75,21.44,21.36,21.35,17.4,17.54,13.4,17.46,30.76,0,24.51.1,21.67,2.83,21.6-21.6,17.17-16.89,17.09-13.43,0-30.29.09-24.8,2.9-21.89-21.83-21.82-2.4-1.71-11.78-13.69-15.15-13Z"/><path d="M749.82,103.72c1.65.2,12.46,12.24,13.62,13,25.31.8,18.85-5.58,19.67,19.67,17.06,18.3,17,9,0,27.24-.79,25,5.51,18.63-19.44,19.44-18.66,17.37-9.07,17.32-27.71,0-24.68-.78-18.4,5.43-19.19-19.2-17.38-18.67-17.33-9.08,0-27.72.78-25-5.51-18.62,19.42-19.43,1.17-.78,12-12.81,13.63-13m0-3.69c-3.32-.7-12.82,11.38-15.15,13-24.49-.1-21.67-2.82-21.59,21.58-17.48,17.22-17.4,13.6,0,30.78-.11,24.18-2.75,21.44,21.36,21.35,17.4,17.54,13.4,17.46,30.76,0,24.51.1,21.67,2.83,21.6-21.6,17.17-16.89,17.09-13.43,0-30.29.09-24.8,2.9-21.89-21.83-21.82-2.4-1.71-11.78-13.69-15.15-13Z"/><path d="M849.82,103.72c1.65.2,12.46,12.24,13.62,13,25.31.8,18.85-5.58,19.67,19.67,17.06,18.3,17,9,0,27.24-.79,25,5.51,18.63-19.44,19.44-18.66,17.37-9.07,17.32-27.71,0-24.68-.78-18.4,5.43-19.19-19.2-17.38-18.67-17.33-9.08,0-27.72.78-25-5.51-18.62,19.42-19.43,1.17-.78,12-12.81,13.63-13m0-3.69c-3.32-.7-12.82,11.38-15.15,13-24.49-.1-21.67-2.82-21.59,21.58-17.48,17.22-17.4,13.6,0,30.78-.11,24.18-2.75,21.44,21.36,21.35,17.4,17.54,13.4,17.46,30.76,0,24.51.1,21.67,2.83,21.6-21.6,17.17-16.89,17.09-13.43,0-30.29.09-24.8,2.9-21.89-21.83-21.82-2.4-1.71-11.78-13.69-15.15-13Z"/><path d="M949.82,103.72c1.65.2,12.46,12.24,13.62,13,25.31.8,18.85-5.58,19.67,19.67,17.06,18.3,17,9,0,27.24-.79,25,5.51,18.63-19.44,19.44-18.66,17.37-9.07,17.32-27.71,0-24.68-.78-18.4,5.43-19.19-19.2-17.38-18.67-17.33-9.08,0-27.72.78-25-5.51-18.62,19.42-19.43,1.17-.78,12-12.81,13.63-13m0-3.69c-3.32-.7-12.82,11.38-15.15,13-24.49-.1-21.67-2.82-21.59,21.58-17.48,17.22-17.4,13.6,0,30.78-.11,24.18-2.75,21.44,21.36,21.35,17.4,17.54,13.4,17.46,30.76,0,24.51.1,21.67,2.83,21.6-21.6,17.17-16.89,17.09-13.43,0-30.29.09-24.8,2.9-21.89-21.83-21.82-2.4-1.71-11.78-13.69-15.15-13Z"/></g></g></svg>