<svg id="Ebene_1" data-name="Ebene 1" xmlns="http://www.w3.org/2000/svg" xmlns:xlink="http://www.w3.org/1999/xlink" viewBox="0 0 1000 1000"><defs><style>.cls-1{fill:none;}.cls-2{fill:#2f9687;stroke:#000;stroke-miterlimit:10;stroke-width:0.25px;}.cls-3{opacity:0.05;}.cls-4{clip-path:url(#clip-path);}</style><clipPath id="clip-path"><rect class="cls-1" width="999.94" height="1000.01"/></clipPath></defs><g id="Ebene_2" data-name="Ebene 2"><rect class="cls-2" width="1000" height="1000"/></g><g class="cls-3"><g class="cls-4"><path d="M50,3.69a1.41,1.41,0,0,1,1,.42L62.55,15.63l1.08,1.08H81.85a1.45,1.45,0,0,1,1.45,1.45V36.38l1.07,1.08L95.89,49a1.45,1.45,0,0,1,0,2L84.37,62.54,83.3,63.62v18a1.45,1.45,0,0,1-1.45,1.45h-18l-1.07,1.08L51,95.89a1.45,1.45,0,0,1-2,0L37.22,84.14l-1.07-1.08H18.4A1.45,1.45,0,0,1,17,81.61V63.86l-1.08-1.08L4.11,51a1.45,1.45,0,0,1,0-2L15.87,37.22,17,36.14v-18a1.45,1.45,0,0,1,1.45-1.45h18l1.08-1.08L49,4.11a1.41,1.41,0,0,1,1-.42M50,0a5.13,5.13,0,0,0-3.63,1.5L34.85,13H18.4a5.14,5.14,0,0,0-5.14,5.13V34.61L1.5,46.37a5.14,5.14,0,0,0,0,7.26L13.26,65.39V81.61a5.14,5.14,0,0,0,5.14,5.14H34.62L46.37,98.5a5.14,5.14,0,0,0,7.26,0L65.38,86.75H81.85A5.14,5.14,0,0,0,87,81.61V65.15L98.5,53.63a5.14,5.14,0,0,0,0-7.26L87,34.85V18.16A5.13,5.13,0,0,0,81.85,13H65.15L53.63,1.5A5.13,5.13,0,0,0,50,0Z"/><path d="M150,3.69a1.41,1.41,0,0,1,1,.42l11.53,11.52,1.08,1.08h18.22a1.45,1.45,0,0,1,1.45,1.45V36.38l1.07,1.08L195.89,49a1.45,1.45,0,0,1,0,2L184.37,62.54l-1.07,1.08v18a1.45,1.45,0,0,1-1.45,1.45h-18l-1.07,1.08L151,95.89a1.45,1.45,0,0,1-2,0L137.22,84.14l-1.07-1.08H118.4A1.45,1.45,0,0,1,117,81.61V63.86l-1.08-1.08L104.11,51a1.45,1.45,0,0,1,0-2l11.76-11.76L117,36.14v-18a1.45,1.45,0,0,1,1.45-1.45h18l1.08-1.08L149,4.11a1.41,1.41,0,0,1,1-.42M150,0a5.13,5.13,0,0,0-3.63,1.5L134.85,13H118.4a5.14,5.14,0,0,0-5.14,5.13V34.61L101.5,46.37a5.14,5.14,0,0,0,0,7.26l11.76,11.76V81.61a5.14,5.14,0,0,0,5.14,5.14h16.22L146.37,98.5a5.14,5.14,0,0,0,7.26,0l11.75-11.75h16.47A5.14,5.14,0,0,0,187,81.61V65.15L198.5,53.63a5.14,5.14,0,0,0,0-7.26L187,34.85V18.16A5.13,5.13,0,0,0,181.85,13h-16.7L153.63,1.5A5.13,5.13,0,0,0,150,0Z"/><path d="M250,3.69a1.41,1.41,0,0,1,1,.42l11.53,11.52,1.08,1.08h18.22a1.45,1.45,0,0,1,1.45,1.45V36.38l1.07,1.08L295.89,49a1.45,1.45,0,0,1,0,2L284.37,62.54l-1.07,1.08v18a1.45,1.45,0,0,1-1.45,1.45h-18l-1.07,1.08L251,95.89a1.45,1.45,0,0,1-2,0L237.22,84.14l-1.07-1.08H218.4A1.45,1.45,0,0,1,217,81.61V63.86l-1.08-1.08L204.11,51a1.45,1.45,0,0,1,0-2l11.76-11.76L217,36.14v-18a1.45,1.45,0,0,1,1.45-1.45h18l1.08-1.08L249,4.11a1.41,1.41,0,0,1,1-.42M250,0a5.13,5.13,0,0,0-3.63,1.5L234.85,13H218.4a5.14,5.14,0,0,0-5.14,5.13V34.61L201.5,46.37a5.14,5.14,0,0,0,0,7.26l11.76,11.76V81.61a5.14,5.14,0,0,0,5.14,5.14h16.22L246.37,98.5a5.14,5.14,0,0,0,7.26,0l11.75-11.75h16.47A5.14,5.14,0,0,0,287,81.61V65.15L298.5,53.63a5.14,5.14,0,0,0,0-7.26L287,34.85V18.16A5.13,5.13,0,0,0,281.85,13h-16.7L253.63,1.5A5.13,5.13,0,0,0,250,0Z"/><path d="M350,3.69a1.41,1.41,0,0,1,1,.42l11.53,11.52,1.08,1.08h18.22a1.45,1.45,0,0,1,1.45,1.45V36.38l1.07,1.08L395.89,49a1.45,1.45,0,0,1,0,2L384.37,62.54l-1.07,1.08v18a1.45,1.45,0,0,1-1.45,1.45h-18l-1.07,1.08L351,95.89a1.45,1.45,0,0,1-2,0L337.22,84.14l-1.07-1.08H318.4A1.45,1.45,0,0,1,317,81.61V63.86l-1.08-1.08L304.11,51a1.45,1.45,0,0,1,0-2l11.76-11.76L317,36.14v-18a1.45,1.45,0,0,1,1.45-1.45h18l1.08-1.08L349,4.11a1.41,1.41,0,0,1,1-.42M350,0a5.13,5.13,0,0,0-3.63,1.5L334.85,13H318.4a5.14,5.14,0,0,0-5.14,5.13V34.61L301.5,46.37a5.14,5.14,0,0,0,0,7.26l11.76,11.76V81.61a5.14,5.14,0,0,0,5.14,5.14h16.22L346.37,98.5a5.14,5.14,0,0,0,7.26,0l11.75-11.75h16.47A5.14,5.14,0,0,0,387,81.61V65.15L398.5,53.63a5.14,5.14,0,0,0,0-7.26L387,34.85V18.16A5.13,5.13,0,0,0,381.85,13h-16.7L353.63,1.5A5.13,5.13,0,0,0,350,0Z"/><path d="M450,3.69a1.41,1.41,0,0,1,1,.42l11.53,11.52,1.08,1.08h18.22a1.45,1.45,0,0,1,1.45,1.45V36.38l1.07,1.08L495.89,49a1.45,1.45,0,0,1,0,2L484.37,62.54l-1.07,1.08v18a1.45,1.45,0,0,1-1.45,1.45h-18l-1.07,1.08L451,95.89a1.45,1.45,0,0,1-2,0L437.22,84.14l-1.07-1.08H418.4A1.45,1.45,0,0,1,417,81.61V63.86l-1.08-1.08L404.11,51a1.45,1.45,0,0,1,0-2l11.76-11.76L417,36.14v-18a1.45,1.45,0,0,1,1.45-1.45h18l1.08-1.08L449,4.11a1.41,1.41,0,0,1,1-.42M450,0a5.13,5.13,0,0,0-3.63,1.5L434.85,13H418.4a5.14,5.14,0,0,0-5.14,5.13V34.61L401.5,46.37a5.14,5.14,0,0,0,0,7.26l11.76,11.76V81.61a5.14,5.14,0,0,0,5.14,5.14h16.22L446.37,98.5a5.14,5.14,0,0,0,7.26,0l11.75-11.75h16.47A5.14,5.14,0,0,0,487,81.61V65.15L498.5,53.63a5.14,5.14,0,0,0,0-7.26L487,34.85V18.16A5.13,5.13,0,0,0,481.85,13h-16.7L453.63,1.5A5.13,5.13,0,0,0,450,0Z"/><path d="M550,3.69a1.41,1.41,0,0,1,1,.42l11.53,11.52,1.08,1.08h18.22a1.45,1.45,0,0,1,1.45,1.45V36.38l1.07,1.08L595.89,49a1.45,1.45,0,0,1,0,2L584.37,62.54l-1.07,1.08v18a1.45,1.45,0,0,1-1.45,1.45h-18l-1.07,1.08L551,95.89a1.45,1.45,0,0,1-2,0L537.22,84.14l-1.07-1.08H518.4A1.45,1.45,0,0,1,517,81.61V63.86l-1.08-1.08L504.11,51a1.45,1.45,0,0,1,0-2l11.76-11.76L517,36.14v-18a1.45,1.45,0,0,1,1.45-1.45h18l1.08-1.08L549,4.11a1.41,1.41,0,0,1,1-.42M550,0a5.13,5.13,0,0,0-3.63,1.5L534.85,13H518.4a5.14,5.14,0,0,0-5.14,5.13V34.61L501.5,46.37a5.14,5.14,0,0,0,0,7.26l11.76,11.76V81.61a5.14,5.14,0,0,0,5.14,5.14h16.22L546.37,98.5a5.14,5.14,0,0,0,7.26,0l11.75-11.75h16.47A5.14,5.14,0,0,0,587,81.61V65.15L598.5,53.63a5.14,5.14,0,0,0,0-7.26L587,34.85V18.16A5.13,5.13,0,0,0,581.85,13h-16.7L553.63,1.5A5.13,5.13,0,0,0,550,0Z"/><path d="M650,3.69a1.41,1.41,0,0,1,1,.42l11.53,11.52,1.08,1.08h18.22a1.45,1.45,0,0,1,1.45,1.45V36.38l1.07,1.08L695.89,49a1.45,1.45,0,0,1,0,2L684.37,62.54l-1.07,1.08v18a1.45,1.45,0,0,1-1.45,1.45h-18l-1.07,1.08L651,95.89a1.45,1.45,0,0,1-2,0L637.22,84.14l-1.07-1.08H618.4A1.45,1.45,0,0,1,617,81.61V63.86l-1.08-1.08L604.11,51a1.45,1.45,0,0,1,0-2l11.76-11.76L617,36.14v-18a1.45,1.45,0,0,1,1.45-1.45h18l1.08-1.08L649,4.11a1.41,1.41,0,0,1,1-.42M650,0a5.13,5.13,0,0,0-3.63,1.5L634.85,13H618.4a5.14,5.14,0,0,0-5.14,5.13V34.61L601.5,46.37a5.14,5.14,0,0,0,0,7.26l11.76,11.76V81.61a5.14,5.14,0,0,0,5.14,5.14h16.22L646.37,98.5a5.14,5.14,0,0,0,7.26,0l11.75-11.75h16.47A5.14,5.14,0,0,0,687,81.61V65.15L698.5,53.63a5.14,5.14,0,0,0,0-7.26L687,34.85V18.16A5.13,5.13,0,0,0,681.85,13h-16.7L653.63,1.5A5.13,5.13,0,0,0,650,0Z"/><path d="M750,3.69a1.41,1.41,0,0,1,1,.42l11.53,11.52,1.08,1.08h18.22a1.45,1.45,0,0,1,1.45,1.45V36.38l1.07,1.08L795.89,49a1.45,1.45,0,0,1,0,2L784.37,62.54l-1.07,1.08v18a1.45,1.45,0,0,1-1.45,1.45h-18l-1.07,1.08L751,95.89a1.45,1.45,0,0,1-2,0L737.22,84.14l-1.07-1.08H718.4A1.45,1.45,0,0,1,717,81.61V63.86l-1.08-1.08L704.11,51a1.45,1.45,0,0,1,0-2l11.76-11.76L717,36.14v-18a1.45,1.45,0,0,1,1.45-1.45h18l1.08-1.08L749,4.11a1.41,1.41,0,0,1,1-.42M750,0a5.13,5.13,0,0,0-3.63,1.5L734.85,13H718.4a5.14,5.14,0,0,0-5.14,5.13V34.61L701.5,46.37a5.14,5.14,0,0,0,0,7.26l11.76,11.76V81.61a5.14,5.14,0,0,0,5.14,5.14h16.22L746.37,98.5a5.14,5.14,0,0,0,7.26,0l11.75-11.75h16.47A5.14,5.14,0,0,0,787,81.61V65.15L798.5,53.63a5.14,5.14,0,0,0,0-7.26L787,34.85V18.16A5.13,5.13,0,0,0,781.85,13h-16.7L753.63,1.5A5.13,5.13,0,0,0,750,0Z"/><path d="M850,3.69a1.41,1.41,0,0,1,1,.42l11.53,11.52,1.08,1.08h18.22a1.45,1.45,0,0,1,1.45,1.45V36.38l1.07,1.08L895.89,49a1.45,1.45,0,0,1,0,2L884.37,62.54l-1.07,1.08v18a1.45,1.45,0,0,1-1.45,1.45h-18l-1.07,1.08L851,95.89a1.45,1.45,0,0,1-2,0L837.22,84.14l-1.07-1.08H818.4A1.45,1.45,0,0,1,817,81.61V63.86l-1.08-1.08L804.11,51a1.45,1.45,0,0,1,0-2l11.76-11.76L817,36.14v-18a1.45,1.45,0,0,1,1.45-1.45h18l1.08-1.08L849,4.11a1.41,1.41,0,0,1,1-.42M850,0a5.13,5.13,0,0,0-3.63,1.5L834.85,13H818.4a5.14,5.14,0,0,0-5.14,5.13V34.61L801.5,46.37a5.14,5.14,0,0,0,0,7.26l11.76,11.76V81.61a5.14,5.14,0,0,0,5.14,5.14h16.22L846.37,98.5a5.14,5.14,0,0,0,7.26,0l11.75-11.75h16.47A5.14,5.14,0,0,0,887,81.61V65.15L898.5,53.63a5.14,5.14,0,0,0,0-7.26L887,34.85V18.16A5.13,5.13,0,0,0,881.85,13h-16.7L853.63,1.5A5.13,5.13,0,0,0,850,0Z"/><path d="M950,3.69a1.41,1.41,0,0,1,1,.42l11.53,11.52,1.08,1.08h18.22a1.45,1.45,0,0,1,1.45,1.45V36.38l1.07,1.08L995.89,49a1.45,1.45,0,0,1,0,2L984.37,62.54l-1.07,1.08v18a1.45,1.45,0,0,1-1.45,1.45h-18l-1.07,1.08L951,95.89a1.45,1.45,0,0,1-2,0L937.22,84.14l-1.07-1.08H918.4A1.45,1.45,0,0,1,917,81.61V63.86l-1.08-1.08L904.11,51a1.45,1.45,0,0,1,0-2l11.76-11.76L917,36.14v-18a1.45,1.45,0,0,1,1.45-1.45h18l1.08-1.08L949,4.11a1.41,1.41,0,0,1,1-.42M950,0a5.13,5.13,0,0,0-3.63,1.5L934.85,13H918.4a5.14,5.14,0,0,0-5.14,5.13V34.61L901.5,46.37a5.14,5.14,0,0,0,0,7.26l11.76,11.76V81.61a5.14,5.14,0,0,0,5.14,5.14h16.22L946.37,98.5a5.14,5.14,0,0,0,7.26,0l11.75-11.75h16.47A5.14,5.14,0,0,0,987,81.61V65.15L998.5,53.63a5.14,5.14,0,0,0,0-7.26L987,34.85V18.16A5.13,5.13,0,0,0,981.85,13h-16.7L953.63,1.5A5.13,5.13,0,0,0,950,0Z"/><path d="M50,103.69a1.41,1.41,0,0,1,1,.42l11.53,11.52,1.08,1.08H81.85a1.45,1.45,0,0,1,1.45,1.45v18.22l1.07,1.08L95.89,149a1.45,1.45,0,0,1,0,2L84.37,162.54l-1.07,1.08v18a1.45,1.45,0,0,1-1.45,1.45h-18l-1.07,1.08L51,195.89a1.45,1.45,0,0,1-2,0L37.22,184.14l-1.07-1.08H18.4A1.45,1.45,0,0,1,17,181.61V163.86l-1.08-1.08L4.11,151a1.45,1.45,0,0,1,0-2l11.76-11.76L17,136.14v-18a1.45,1.45,0,0,1,1.45-1.45h18l1.08-1.08L49,104.11a1.41,1.41,0,0,1,1-.42M50,100a5.13,5.13,0,0,0-3.63,1.5L34.85,113H18.4a5.14,5.14,0,0,0-5.14,5.13v16.45L1.5,146.37a5.14,5.14,0,0,0,0,7.26l11.76,11.76v16.22a5.14,5.14,0,0,0,5.14,5.14H34.62L46.37,198.5a5.14,5.14,0,0,0,7.26,0l11.75-11.75H81.85A5.14,5.14,0,0,0,87,181.61V165.15L98.5,153.63a5.14,5.14,0,0,0,0-7.26L87,134.85V118.16A5.13,5.13,0,0,0,81.85,113H65.15L53.63,101.5A5.13,5.13,0,0,0,50,100Z"/><path d="M150,103.69a1.41,1.41,0,0,1,1,.42l11.53,11.52,1.08,1.08h18.22a1.45,1.45,0,0,1,1.45,1.45v18.22l1.07,1.08L195.89,149a1.45,1.45,0,0,1,0,2l-11.52,11.52-1.07,1.08v18a1.45,1.45,0,0,1-1.45,1.45h-18l-1.07,1.08L151,195.89a1.45,1.45,0,0,1-2,0l-11.76-11.75-1.07-1.08H118.4a1.45,1.45,0,0,1-1.45-1.45V163.86l-1.08-1.08L104.11,151a1.45,1.45,0,0,1,0-2l11.76-11.76,1.08-1.08v-18a1.45,1.45,0,0,1,1.45-1.45h18l1.08-1.08L149,104.11a1.41,1.41,0,0,1,1-.42m0-3.69a5.13,5.13,0,0,0-3.63,1.5L134.85,113H118.4a5.14,5.14,0,0,0-5.14,5.13v16.45L101.5,146.37a5.14,5.14,0,0,0,0,7.26l11.76,11.76v16.22a5.14,5.14,0,0,0,5.14,5.14h16.22l11.75,11.75a5.14,5.14,0,0,0,7.26,0l11.75-11.75h16.47a5.14,5.14,0,0,0,5.13-5.14V165.15l11.52-11.52a5.14,5.14,0,0,0,0-7.26L187,134.85V118.16a5.13,5.13,0,0,0-5.13-5.13h-16.7L153.63,101.5A5.13,5.13,0,0,0,150,100Z"/><path d="M250,103.69a1.41,1.41,0,0,1,1,.42l11.53,11.52,1.08,1.08h18.22a1.45,1.45,0,0,1,1.45,1.45v18.22l1.07,1.08L295.89,149a1.45,1.45,0,0,1,0,2l-11.52,11.52-1.07,1.08v18a1.45,1.45,0,0,1-1.45,1.45h-18l-1.07,1.08L251,195.89a1.45,1.45,0,0,1-2,0l-11.76-11.75-1.07-1.08H218.4a1.45,1.45,0,0,1-1.45-1.45V163.86l-1.08-1.08L204.11,151a1.45,1.45,0,0,1,0-2l11.76-11.76,1.08-1.08v-18a1.45,1.45,0,0,1,1.45-1.45h18l1.08-1.08L249,104.11a1.41,1.41,0,0,1,1-.42m0-3.69a5.13,5.13,0,0,0-3.63,1.5L234.85,113H218.4a5.14,5.14,0,0,0-5.14,5.13v16.45L201.5,146.37a5.14,5.14,0,0,0,0,7.26l11.76,11.76v16.22a5.14,5.14,0,0,0,5.14,5.14h16.22l11.75,11.75a5.14,5.14,0,0,0,7.26,0l11.75-11.75h16.47a5.14,5.14,0,0,0,5.13-5.14V165.15l11.52-11.52a5.14,5.14,0,0,0,0-7.26L287,134.85V118.16a5.13,5.13,0,0,0-5.13-5.13h-16.7L253.63,101.5A5.13,5.13,0,0,0,250,100Z"/><path d="M350,103.69a1.41,1.41,0,0,1,1,.42l11.53,11.52,1.08,1.08h18.22a1.45,1.45,0,0,1,1.45,1.45v18.22l1.07,1.08L395.89,149a1.45,1.45,0,0,1,0,2l-11.52,11.52-1.07,1.08v18a1.45,1.45,0,0,1-1.45,1.45h-18l-1.07,1.08L351,195.89a1.45,1.45,0,0,1-2,0l-11.76-11.75-1.07-1.08H318.4a1.45,1.45,0,0,1-1.45-1.45V163.86l-1.08-1.08L304.11,151a1.45,1.45,0,0,1,0-2l11.76-11.76,1.08-1.08v-18a1.45,1.45,0,0,1,1.45-1.45h18l1.08-1.08L349,104.11a1.41,1.41,0,0,1,1-.42m0-3.69a5.13,5.13,0,0,0-3.63,1.5L334.85,113H318.4a5.14,5.14,0,0,0-5.14,5.13v16.45L301.5,146.37a5.14,5.14,0,0,0,0,7.26l11.76,11.76v16.22a5.14,5.14,0,0,0,5.14,5.14h16.22l11.75,11.75a5.14,5.14,0,0,0,7.26,0l11.75-11.75h16.47a5.14,5.14,0,0,0,5.13-5.14V165.15l11.52-11.52a5.14,5.14,0,0,0,0-7.26L387,134.85V118.16a5.13,5.13,0,0,0-5.13-5.13h-16.7L353.63,101.5A5.13,5.13,0,0,0,350,100Z"/><path d="M450,103.69a1.41,1.41,0,0,1,1,.42l11.53,11.52,1.08,1.08h18.22a1.45,1.45,0,0,1,1.45,1.45v18.22l1.07,1.08L495.89,149a1.45,1.45,0,0,1,0,2l-11.52,11.52-1.07,1.08v18a1.45,1.45,0,0,1-1.45,1.45h-18l-1.07,1.08L451,195.89a1.45,1.45,0,0,1-2,0l-11.76-11.75-1.07-1.08H418.4a1.45,1.45,0,0,1-1.45-1.45V163.86l-1.08-1.08L404.11,151a1.45,1.45,0,0,1,0-2l11.76-11.76,1.08-1.08v-18a1.45,1.45,0,0,1,1.45-1.45h18l1.08-1.08L449,104.11a1.41,1.41,0,0,1,1-.42m0-3.69a5.13,5.13,0,0,0-3.63,1.5L434.85,113H418.4a5.14,5.14,0,0,0-5.14,5.13v16.45L401.5,146.37a5.14,5.14,0,0,0,0,7.26l11.76,11.76v16.22a5.14,5.14,0,0,0,5.14,5.14h16.22l11.75,11.75a5.14,5.14,0,0,0,7.26,0l11.75-11.75h16.47a5.14,5.14,0,0,0,5.13-5.14V165.15l11.52-11.52a5.14,5.14,0,0,0,0-7.26L487,134.85V118.16a5.13,5.13,0,0,0-5.13-5.13h-16.7L453.63,101.5A5.13,5.13,0,0,0,450,100Z"/><path d="M550,103.69a1.41,1.41,0,0,1,1,.42l11.53,11.52,1.08,1.08h18.22a1.45,1.45,0,0,1,1.45,1.45v18.22l1.07,1.08L595.89,149a1.45,1.45,0,0,1,0,2l-11.52,11.52-1.07,1.08v18a1.45,1.45,0,0,1-1.45,1.45h-18l-1.07,1.08L551,195.89a1.45,1.45,0,0,1-2,0l-11.76-11.75-1.07-1.08H518.4a1.45,1.45,0,0,1-1.45-1.45V163.86l-1.08-1.08L504.11,151a1.45,1.45,0,0,1,0-2l11.76-11.76,1.08-1.08v-18a1.45,1.45,0,0,1,1.45-1.45h18l1.08-1.08L549,104.11a1.41,1.41,0,0,1,1-.42m0-3.69a5.13,5.13,0,0,0-3.63,1.5L534.85,113H518.4a5.14,5.14,0,0,0-5.14,5.13v16.45L501.5,146.37a5.14,5.14,0,0,0,0,7.26l11.76,11.76v16.22a5.14,5.14,0,0,0,5.14,5.14h16.22l11.75,11.75a5.14,5.14,0,0,0,7.26,0l11.75-11.75h16.47a5.14,5.14,0,0,0,5.13-5.14V165.15l11.52-11.52a5.14,5.14,0,0,0,0-7.26L587,134.85V118.16a5.13,5.13,0,0,0-5.13-5.13h-16.7L553.63,101.5A5.13,5.13,0,0,0,550,100Z"/><path d="M650,103.69a1.41,1.41,0,0,1,1,.42l11.53,11.52,1.08,1.08h18.22a1.45,1.45,0,0,1,1.45,1.45v18.22l1.07,1.08L695.89,149a1.45,1.45,0,0,1,0,2l-11.52,11.52-1.07,1.08v18a1.45,1.45,0,0,1-1.45,1.45h-18l-1.07,1.08L651,195.89a1.45,1.45,0,0,1-2,0l-11.76-11.75-1.07-1.08H618.4a1.45,1.45,0,0,1-1.45-1.45V163.86l-1.08-1.08L604.11,151a1.45,1.45,0,0,1,0-2l11.76-11.76,1.08-1.08v-18a1.45,1.45,0,0,1,1.45-1.45h18l1.08-1.08L649,104.11a1.41,1.41,0,0,1,1-.42m0-3.69a5.13,5.13,0,0,0-3.63,1.5L634.85,113H618.4a5.14,5.14,0,0,0-5.14,5.13v16.45L601.5,146.37a5.14,5.14,0,0,0,0,7.26l11.76,11.76v16.22a5.14,5.14,0,0,0,5.14,5.14h16.22l11.75,11.75a5.14,5.14,0,0,0,7.26,0l11.75-11.75h16.47a5.14,5.14,0,0,0,5.13-5.14V165.15l11.52-11.52a5.14,5.14,0,0,0,0-7.26L687,134.85V118.16a5.13,5.13,0,0,0-5.13-5.13h-16.7L653.63,101.5A5.13,5.13,0,0,0,650,100Z"/><path d="M750,103.69a1.41,1.41,0,0,1,1,.42l11.53,11.52,1.08,1.08h18.22a1.45,1.45,0,0,1,1.45,1.45v18.22l1.07,1.08L795.89,149a1.45,1.45,0,0,1,0,2l-11.52,11.52-1.07,1.08v18a1.45,1.45,0,0,1-1.45,1.45h-18l-1.07,1.08L751,195.89a1.45,1.45,0,0,1-2,0l-11.76-11.75-1.07-1.08H718.4a1.45,1.45,0,0,1-1.45-1.45V163.86l-1.08-1.08L704.11,151a1.45,1.45,0,0,1,0-2l11.76-11.76,1.08-1.08v-18a1.45,1.45,0,0,1,1.45-1.45h18l1.08-1.08L749,104.11a1.41,1.41,0,0,1,1-.42m0-3.69a5.13,5.13,0,0,0-3.63,1.5L734.85,113H718.4a5.14,5.14,0,0,0-5.14,5.13v16.45L701.5,146.37a5.14,5.14,0,0,0,0,7.26l11.76,11.76v16.22a5.14,5.14,0,0,0,5.14,5.14h16.22l11.75,11.75a5.14,5.14,0,0,0,7.26,0l11.75-11.75h16.47a5.14,5.14,0,0,0,5.13-5.14V165.15l11.52-11.52a5.14,5.14,0,0,0,0-7.26L787,134.85V118.16a5.13,5.13,0,0,0-5.13-5.13h-16.7L753.63,101.5A5.13,5.13,0,0,0,750,100Z"/><path d="M850,103.69a1.41,1.41,0,0,1,1,.42l11.53,11.52,1.08,1.08h18.22a1.45,1.45,0,0,1,1.45,1.45v18.22l1.07,1.08L895.89,149a1.45,1.45,0,0,1,0,2l-11.52,11.52-1.07,1.08v18a1.45,1.45,0,0,1-1.45,1.45h-18l-1.07,1.08L851,195.89a1.45,1.45,0,0,1-2,0l-11.76-11.75-1.07-1.08H818.4a1.45,1.45,0,0,1-1.45-1.45V163.86l-1.08-1.08L804.11,151a1.45,1.45,0,0,1,0-2l11.76-11.76,1.08-1.08v-18a1.45,1.45,0,0,1,1.45-1.45h18l1.08-1.08L849,104.11a1.41,1.41,0,0,1,1-.42m0-3.69a5.13,5.13,0,0,0-3.63,1.5L834.85,113H818.4a5.14,5.14,0,0,0-5.14,5.13v16.45L801.5,146.37a5.14,5.14,0,0,0,0,7.26l11.76,11.76v16.22a5.14,5.14,0,0,0,5.14,5.14h16.22l11.75,11.75a5.14,5.14,0,0,0,7.26,0l11.75-11.75h16.47a5.14,5.14,0,0,0,5.13-5.14V165.15l11.52-11.52a5.14,5.14,0,0,0,0-7.26L887,134.85V118.16a5.13,5.13,0,0,0-5.13-5.13h-16.7L853.63,101.5A5.13,5.13,0,0,0,850,100Z"/><path d="M950,103.69a1.41,1.41,0,0,1,1,.42l11.53,11.52,1.08,1.08h18.22a1.45,1.45,0,0,1,1.45,1.45v18.22l1.07,1.08L995.89,149a1.45,1.45,0,0,1,0,2l-11.52,11.52-1.07,1.08v18a1.45,1.45,0,0,1-1.45,1.45h-18l-1.07,1.08L951,195.89a1.45,1.45,0,0,1-2,0l-11.76-11.75-1.07-1.08H918.4a1.45,1.45,0,0,1-1.45-1.45V163.86l-1.08-1.08L904.11,151a1.45,1.45,0,0,1,0-2l11.76-11.76,1.08-1.08v-18a1.45,1.45,0,0,1,1.45-1.45h18l1.08-1.08L949,104.11a1.41,1.41,0,0,1,1-.42m0-3.69a5.13,5.13,0,0,0-3.63,1.5L934.85,113H918.4a5.14,5.14,0,0,0-5.14,5.13v16.45L901.5,146.37a5.14,5.14,0,0,0,0,7.26l11.76,11.76v16.22a5.14,5.14,0,0,0,5.14,5.14h16.22l11.75,11.75a5.14,5.14,0,0,0,7.26,0l11.75-11.75h16.47a5.14,5.14,0,0,0,5.13-5.14V165.15l11.52-11.52a5.14,5.14,0,0,0,0-7.26L987,134.85V118.16a5.13,5.13,0,0,0-5.13-5.13h-16.7L953.63,101.5A5.13,5.13,0,0,0,950,100Z"/><path d="M50,203.69a1.41,1.41,0,0,1,1,.42l11.53,11.52,1.08,1.08H81.85a1.45,1.45,0,0,1,1.45,1.45v18.22l1.07,1.08L95.89,249a1.45,1.45,0,0,1,0,2L84.37,262.54l-1.07,1.08v18a1.45,1.45,0,0,1-1.45,1.45h-18l-1.07,1.08L51,295.89a1.45,1.45,0,0,1-2,0L37.22,284.14l-1.07-1.08H18.4A1.45,1.45,0,0,1,17,281.61V263.86l-1.08-1.08L4.11,251a1.45,1.45,0,0,1,0-2l11.76-11.76L17,236.14v-18a1.45,1.45,0,0,1,1.45-1.45h18l1.08-1.08L49,204.11a1.41,1.41,0,0,1,1-.42M50,200a5.13,5.13,0,0,0-3.63,1.5L34.85,213H18.4a5.14,5.14,0,0,0-5.14,5.13v16.45L1.5,246.37a5.14,5.14,0,0,0,0,7.26l11.76,11.76v16.22a5.14,5.14,0,0,0,5.14,5.14H34.62L46.37,298.5a5.14,5.14,0,0,0,7.26,0l11.75-11.75H81.85A5.14,5.14,0,0,0,87,281.61V265.15L98.5,253.63a5.14,5.14,0,0,0,0-7.26L87,234.85V218.16A5.13,5.13,0,0,0,81.85,213H65.15L53.63,201.5A5.13,5.13,0,0,0,50,200Z"/><path d="M150,203.69a1.41,1.41,0,0,1,1,.42l11.53,11.52,1.08,1.08h18.22a1.45,1.45,0,0,1,1.45,1.45v18.22l1.07,1.08L195.89,249a1.45,1.45,0,0,1,0,2l-11.52,11.52-1.07,1.08v18a1.45,1.45,0,0,1-1.45,1.45h-18l-1.07,1.08L151,295.89a1.45,1.45,0,0,1-2,0l-11.76-11.75-1.07-1.08H118.4a1.45,1.45,0,0,1-1.45-1.45V263.86l-1.08-1.08L104.11,251a1.45,1.45,0,0,1,0-2l11.76-11.76,1.08-1.08v-18a1.45,1.45,0,0,1,1.45-1.45h18l1.08-1.08L149,204.11a1.41,1.41,0,0,1,1-.42m0-3.69a5.13,5.13,0,0,0-3.63,1.5L134.85,213H118.4a5.14,5.14,0,0,0-5.14,5.13v16.45L101.5,246.37a5.14,5.14,0,0,0,0,7.26l11.76,11.76v16.22a5.14,5.14,0,0,0,5.14,5.14h16.22l11.75,11.75a5.14,5.14,0,0,0,7.26,0l11.75-11.75h16.47a5.14,5.14,0,0,0,5.13-5.14V265.15l11.52-11.52a5.14,5.14,0,0,0,0-7.26L187,234.85V218.16a5.13,5.13,0,0,0-5.13-5.13h-16.7L153.63,201.5A5.13,5.13,0,0,0,150,200Z"/><path d="M250,203.69a1.41,1.41,0,0,1,1,.42l11.53,11.52,1.08,1.08h18.22a1.45,1.45,0,0,1,1.45,1.45v18.22l1.07,1.08L295.89,249a1.45,1.45,0,0,1,0,2l-11.52,11.52-1.07,1.08v18a1.45,1.45,0,0,1-1.45,1.45h-18l-1.07,1.08L251,295.89a1.45,1.45,0,0,1-2,0l-11.76-11.75-1.07-1.08H218.4a1.45,1.45,0,0,1-1.45-1.45V263.86l-1.08-1.08L204.11,251a1.45,1.45,0,0,1,0-2l11.76-11.76,1.08-1.08v-18a1.45,1.45,0,0,1,1.45-1.45h18l1.08-1.08L249,204.11a1.41,1.41,0,0,1,1-.42m0-3.69a5.13,5.13,0,0,0-3.63,1.5L234.85,213H218.4a5.14,5.14,0,0,0-5.14,5.13v16.45L201.5,246.37a5.14,5.14,0,0,0,0,7.26l11.76,11.76v16.22a5.14,5.14,0,0,0,5.14,5.14h16.22l11.75,11.75a5.14,5.14,0,0,0,7.26,0l11.75-11.75h16.47a5.14,5.14,0,0,0,5.13-5.14V265.15l11.52-11.52a5.14,5.14,0,0,0,0-7.26L287,234.85V218.16a5.13,5.13,0,0,0-5.13-5.13h-16.7L253.63,201.5A5.13,5.13,0,0,0,250,200Z"/><path d="M350,203.69a1.41,1.41,0,0,1,1,.42l11.53,11.52,1.08,1.08h18.22a1.45,1.45,0,0,1,1.45,1.45v18.22l1.07,1.08L395.89,249a1.45,1.45,0,0,1,0,2l-11.52,11.52-1.07,1.08v18a1.45,1.45,0,0,1-1.45,1.45h-18l-1.07,1.08L351,295.89a1.45,1.45,0,0,1-2,0l-11.76-11.75-1.07-1.08H318.4a1.45,1.45,0,0,1-1.45-1.45V263.86l-1.08-1.08L304.11,251a1.45,1.45,0,0,1,0-2l11.76-11.76,1.08-1.08v-18a1.45,1.45,0,0,1,1.45-1.45h18l1.08-1.08L349,204.11a1.41,1.41,0,0,1,1-.42m0-3.69a5.13,5.13,0,0,0-3.63,1.5L334.85,213H318.4a5.14,5.14,0,0,0-5.14,5.13v16.45L301.5,246.37a5.14,5.14,0,0,0,0,7.26l11.76,11.76v16.22a5.14,5.14,0,0,0,5.14,5.14h16.22l11.75,11.75a5.14,5.14,0,0,0,7.26,0l11.75-11.75h16.47a5.14,5.14,0,0,0,5.13-5.14V265.15l11.52-11.52a5.14,5.14,0,0,0,0-7.26L387,234.85V218.16a5.13,5.13,0,0,0-5.13-5.13h-16.7L353.63,201.5A5.13,5.13,0,0,0,350,200Z"/><path d="M450,203.69a1.41,1.41,0,0,1,1,.42l11.53,11.52,1.08,1.08h18.22a1.45,1.45,0,0,1,1.45,1.45v18.22l1.07,1.08L495.89,249a1.45,1.45,0,0,1,0,2l-11.52,11.52-1.07,1.08v18a1.45,1.45,0,0,1-1.45,1.45h-18l-1.07,1.08L451,295.89a1.45,1.45,0,0,1-2,0l-11.76-11.75-1.07-1.08H418.4a1.45,1.45,0,0,1-1.45-1.45V263.86l-1.08-1.08L404.11,251a1.45,1.45,0,0,1,0-2l11.76-11.76,1.08-1.08v-18a1.45,1.45,0,0,1,1.45-1.45h18l1.08-1.08L449,204.11a1.41,1.41,0,0,1,1-.42m0-3.69a5.13,5.13,0,0,0-3.63,1.5L434.85,213H418.4a5.14,5.14,0,0,0-5.14,5.13v16.45L401.5,246.37a5.14,5.14,0,0,0,0,7.26l11.76,11.76v16.22a5.14,5.14,0,0,0,5.14,5.14h16.22l11.75,11.75a5.14,5.14,0,0,0,7.26,0l11.75-11.75h16.47a5.14,5.14,0,0,0,5.13-5.14V265.15l11.52-11.52a5.14,5.14,0,0,0,0-7.26L487,234.85V218.16a5.13,5.13,0,0,0-5.13-5.13h-16.7L453.63,201.5A5.13,5.13,0,0,0,450,200Z"/><path d="M550,203.69a1.41,1.41,0,0,1,1,.42l11.53,11.52,1.08,1.08h18.22a1.45,1.45,0,0,1,1.45,1.45v18.22l1.07,1.08L595.89,249a1.45,1.45,0,0,1,0,2l-11.52,11.52-1.07,1.08v18a1.45,1.45,0,0,1-1.45,1.45h-18l-1.07,1.08L551,295.89a1.45,1.45,0,0,1-2,0l-11.76-11.75-1.07-1.08H518.4a1.45,1.45,0,0,1-1.45-1.45V263.86l-1.08-1.08L504.11,251a1.45,1.45,0,0,1,0-2l11.76-11.76,1.08-1.08v-18a1.45,1.45,0,0,1,1.45-1.45h18l1.08-1.08L549,204.11a1.41,1.41,0,0,1,1-.42m0-3.69a5.13,5.13,0,0,0-3.63,1.5L534.85,213H518.4a5.14,5.14,0,0,0-5.14,5.13v16.45L501.5,246.37a5.14,5.14,0,0,0,0,7.26l11.76,11.76v16.22a5.14,5.14,0,0,0,5.14,5.14h16.22l11.75,11.75a5.14,5.14,0,0,0,7.26,0l11.75-11.75h16.47a5.14,5.14,0,0,0,5.13-5.14V265.15l11.52-11.52a5.14,5.14,0,0,0,0-7.26L587,234.85V218.16a5.13,5.13,0,0,0-5.13-5.13h-16.7L553.63,201.5A5.13,5.13,0,0,0,550,200Z"/><path d="M650,203.69a1.41,1.41,0,0,1,1,.42l11.53,11.52,1.08,1.08h18.22a1.45,1.45,0,0,1,1.45,1.45v18.22l1.07,1.08L695.89,249a1.45,1.45,0,0,1,0,2l-11.52,11.52-1.07,1.08v18a1.45,1.45,0,0,1-1.45,1.45h-18l-1.07,1.08L651,295.89a1.45,1.45,0,0,1-2,0l-11.76-11.75-1.07-1.08H618.4a1.45,1.45,0,0,1-1.45-1.45V263.86l-1.08-1.08L604.11,251a1.45,1.45,0,0,1,0-2l11.76-11.76,1.08-1.08v-18a1.45,1.45,0,0,1,1.45-1.45h18l1.08-1.08L649,204.11a1.41,1.41,0,0,1,1-.42m0-3.69a5.13,5.13,0,0,0-3.63,1.5L634.85,213H618.4a5.14,5.14,0,0,0-5.14,5.13v16.45L601.5,246.37a5.14,5.14,0,0,0,0,7.26l11.76,11.76v16.22a5.14,5.14,0,0,0,5.14,5.14h16.22l11.75,11.75a5.14,5.14,0,0,0,7.26,0l11.75-11.75h16.47a5.14,5.14,0,0,0,5.13-5.14V265.15l11.52-11.52a5.14,5.14,0,0,0,0-7.26L687,234.85V218.16a5.13,5.13,0,0,0-5.13-5.13h-16.7L653.63,201.5A5.13,5.13,0,0,0,650,200Z"/><path d="M750,203.69a1.41,1.41,0,0,1,1,.42l11.53,11.52,1.08,1.08h18.22a1.45,1.45,0,0,1,1.45,1.45v18.22l1.07,1.08L795.89,249a1.45,1.45,0,0,1,0,2l-11.52,11.52-1.07,1.08v18a1.45,1.45,0,0,1-1.45,1.45h-18l-1.07,1.08L751,295.89a1.45,1.45,0,0,1-2,0l-11.76-11.75-1.07-1.08H718.4a1.45,1.45,0,0,1-1.45-1.45V263.86l-1.08-1.08L704.11,251a1.45,1.45,0,0,1,0-2l11.76-11.76,1.08-1.08v-18a1.45,1.45,0,0,1,1.45-1.45h18l1.08-1.08L749,204.11a1.41,1.41,0,0,1,1-.42m0-3.69a5.13,5.13,0,0,0-3.63,1.5L734.85,213H718.4a5.14,5.14,0,0,0-5.14,5.13v16.45L701.5,246.37a5.14,5.14,0,0,0,0,7.26l11.76,11.76v16.22a5.14,5.14,0,0,0,5.14,5.14h16.22l11.75,11.75a5.14,5.14,0,0,0,7.26,0l11.75-11.75h16.47a5.14,5.14,0,0,0,5.13-5.14V265.15l11.52-11.52a5.14,5.14,0,0,0,0-7.26L787,234.85V218.16a5.13,5.13,0,0,0-5.13-5.13h-16.7L753.63,201.5A5.13,5.13,0,0,0,750,200Z"/><path d="M850,203.69a1.41,1.41,0,0,1,1,.42l11.53,11.52,1.08,1.08h18.22a1.45,1.45,0,0,1,1.45,1.45v18.22l1.07,1.08L895.89,249a1.45,1.45,0,0,1,0,2l-11.52,11.52-1.07,1.08v18a1.45,1.45,0,0,1-1.45,1.45h-18l-1.07,1.08L851,295.89a1.45,1.45,0,0,1-2,0l-11.76-11.75-1.07-1.08H818.4a1.45,1.45,0,0,1-1.45-1.45V263.86l-1.08-1.08L804.11,251a1.45,1.45,0,0,1,0-2l11.76-11.76,1.08-1.08v-18a1.45,1.45,0,0,1,1.45-1.45h18l1.08-1.08L849,204.11a1.41,1.41,0,0,1,1-.42m0-3.69a5.13,5.13,0,0,0-3.63,1.5L834.85,213H818.4a5.14,5.14,0,0,0-5.14,5.13v16.45L801.5,246.37a5.14,5.14,0,0,0,0,7.26l11.76,11.76v16.22a5.14,5.14,0,0,0,5.14,5.14h16.22l11.75,11.75a5.14,5.14,0,0,0,7.26,0l11.75-11.75h16.47a5.14,5.14,0,0,0,5.13-5.14V265.15l11.52-11.52a5.14,5.14,0,0,0,0-7.26L887,234.85V218.16a5.13,5.13,0,0,0-5.13-5.13h-16.7L853.63,201.5A5.13,5.13,0,0,0,850,200Z"/><path d="M950,203.69a1.41,1.41,0,0,1,1,.42l11.53,11.52,1.08,1.08h18.22a1.45,1.45,0,0,1,1.45,1.45v18.22l1.07,1.08L995.89,249a1.45,1.45,0,0,1,0,2l-11.52,11.52-1.07,1.08v18a1.45,1.45,0,0,1-1.45,1.45h-18l-1.07,1.08L951,295.89a1.45,1.45,0,0,1-2,0l-11.76-11.75-1.07-1.08H918.4a1.45,1.45,0,0,1-1.45-1.45V263.86l-1.08-1.08L904.11,251a1.45,1.45,0,0,1,0-2l11.76-11.76,1.08-1.08v-18a1.45,1.45,0,0,1,1.45-1.45h18l1.08-1.08L949,204.11a1.41,1.41,0,0,1,1-.42m0-3.69a5.13,5.13,0,0,0-3.63,1.5L934.85,213H918.4a5.14,5.14,0,0,0-5.14,5.13v16.45L901.5,246.37a5.14,5.14,0,0,0,0,7.26l11.76,11.76v16.22a5.14,5.14,0,0,0,5.14,5.14h16.22l11.75,11.75a5.14,5.14,0,0,0,7.26,0l11.75-11.75h16.47a5.14,5.14,0,0,0,5.13-5.14V265.15l11.52-11.52a5.14,5.14,0,0,0,0-7.26L987,234.85V218.16a5.13,5.13,0,0,0-5.13-5.13h-16.7L953.63,201.5A5.13,5.13,0,0,0,950,200Z"/><path d="M50,303.69a1.41,1.41,0,0,1,1,.42l11.53,11.52,1.08,1.08H81.85a1.45,1.45,0,0,1,1.45,1.45v18.22l1.07,1.08L95.89,349a1.45,1.45,0,0,1,0,2L84.37,362.54l-1.07,1.08v18a1.45,1.45,0,0,1-1.45,1.45h-18l-1.07,1.08L51,395.89a1.45,1.45,0,0,1-2,0L37.22,384.14l-1.07-1.08H18.4A1.45,1.45,0,0,1,17,381.61V363.86l-1.08-1.08L4.11,351a1.45,1.45,0,0,1,0-2l11.76-11.76L17,336.14v-18a1.45,1.45,0,0,1,1.45-1.45h18l1.08-1.08L49,304.11a1.41,1.41,0,0,1,1-.42M50,300a5.13,5.13,0,0,0-3.63,1.5L34.85,313H18.4a5.14,5.14,0,0,0-5.14,5.13v16.45L1.5,346.37a5.14,5.14,0,0,0,0,7.26l11.76,11.76v16.22a5.14,5.14,0,0,0,5.14,5.14H34.62L46.37,398.5a5.14,5.14,0,0,0,7.26,0l11.75-11.75H81.85A5.14,5.14,0,0,0,87,381.61V365.15L98.5,353.63a5.14,5.14,0,0,0,0-7.26L87,334.85V318.16A5.13,5.13,0,0,0,81.85,313H65.15L53.63,301.5A5.13,5.13,0,0,0,50,300Z"/><path d="M150,303.69a1.41,1.41,0,0,1,1,.42l11.53,11.52,1.08,1.08h18.22a1.45,1.45,0,0,1,1.45,1.45v18.22l1.07,1.08L195.89,349a1.45,1.45,0,0,1,0,2l-11.52,11.52-1.07,1.08v18a1.45,1.45,0,0,1-1.45,1.45h-18l-1.07,1.08L151,395.89a1.45,1.45,0,0,1-2,0l-11.76-11.75-1.07-1.08H118.4a1.45,1.45,0,0,1-1.45-1.45V363.86l-1.08-1.08L104.11,351a1.45,1.45,0,0,1,0-2l11.76-11.76,1.08-1.08v-18a1.45,1.45,0,0,1,1.45-1.45h18l1.08-1.08L149,304.11a1.41,1.41,0,0,1,1-.42m0-3.69a5.13,5.13,0,0,0-3.63,1.5L134.85,313H118.4a5.14,5.14,0,0,0-5.14,5.13v16.45L101.5,346.37a5.14,5.14,0,0,0,0,7.26l11.76,11.76v16.22a5.14,5.14,0,0,0,5.14,5.14h16.22l11.75,11.75a5.14,5.14,0,0,0,7.26,0l11.75-11.75h16.47a5.14,5.14,0,0,0,5.13-5.14V365.15l11.52-11.52a5.14,5.14,0,0,0,0-7.26L187,334.85V318.16a5.13,5.13,0,0,0-5.13-5.13h-16.7L153.63,301.5A5.13,5.13,0,0,0,150,300Z"/><path d="M250,303.69a1.41,1.41,0,0,1,1,.42l11.53,11.52,1.08,1.08h18.22a1.45,1.45,0,0,1,1.45,1.45v18.22l1.07,1.08L295.89,349a1.45,1.45,0,0,1,0,2l-11.52,11.52-1.07,1.08v18a1.45,1.45,0,0,1-1.45,1.45h-18l-1.07,1.08L251,395.89a1.45,1.45,0,0,1-2,0l-11.76-11.75-1.07-1.08H218.4a1.45,1.45,0,0,1-1.45-1.45V363.86l-1.08-1.08L204.11,351a1.45,1.45,0,0,1,0-2l11.76-11.76,1.08-1.08v-18a1.45,1.45,0,0,1,1.45-1.45h18l1.08-1.08L249,304.11a1.41,1.41,0,0,1,1-.42m0-3.69a5.13,5.13,0,0,0-3.63,1.5L234.85,313H218.4a5.14,5.14,0,0,0-5.14,5.13v16.45L201.5,346.37a5.14,5.14,0,0,0,0,7.26l11.76,11.76v16.22a5.14,5.14,0,0,0,5.14,5.14h16.22l11.75,11.75a5.14,5.14,0,0,0,7.26,0l11.75-11.75h16.47a5.14,5.14,0,0,0,5.13-5.14V365.15l11.52-11.52a5.14,5.14,0,0,0,0-7.26L287,334.85V318.16a5.13,5.13,0,0,0-5.13-5.13h-16.7L253.63,301.5A5.13,5.13,0,0,0,250,300Z"/><path d="M350,303.69a1.41,1.41,0,0,1,1,.42l11.53,11.52,1.08,1.08h18.22a1.45,1.45,0,0,1,1.45,1.45v18.22l1.07,1.08L395.89,349a1.45,1.45,0,0,1,0,2l-11.52,11.52-1.07,1.08v18a1.45,1.45,0,0,1-1.45,1.45h-18l-1.07,1.08L351,395.89a1.45,1.45,0,0,1-2,0l-11.76-11.75-1.07-1.08H318.4a1.45,1.45,0,0,1-1.45-1.45V363.86l-1.08-1.08L304.11,351a1.45,1.45,0,0,1,0-2l11.76-11.76,1.08-1.08v-18a1.45,1.45,0,0,1,1.45-1.45h18l1.08-1.08L349,304.11a1.41,1.41,0,0,1,1-.42m0-3.69a5.13,5.13,0,0,0-3.63,1.5L334.85,313H318.4a5.14,5.14,0,0,0-5.14,5.13v16.45L301.5,346.37a5.14,5.14,0,0,0,0,7.26l11.76,11.76v16.22a5.14,5.14,0,0,0,5.14,5.14h16.22l11.75,11.75a5.14,5.14,0,0,0,7.26,0l11.75-11.75h16.47a5.14,5.14,0,0,0,5.13-5.14V365.15l11.52-11.52a5.14,5.14,0,0,0,0-7.26L387,334.85V318.16a5.13,5.13,0,0,0-5.13-5.13h-16.7L353.63,301.5A5.13,5.13,0,0,0,350,300Z"/><path d="M450,303.69a1.41,1.41,0,0,1,1,.42l11.53,11.52,1.08,1.08h18.22a1.45,1.45,0,0,1,1.45,1.45v18.22l1.07,1.08L495.89,349a1.45,1.45,0,0,1,0,2l-11.52,11.52-1.07,1.08v18a1.45,1.45,0,0,1-1.45,1.45h-18l-1.07,1.08L451,395.89a1.45,1.45,0,0,1-2,0l-11.76-11.75-1.07-1.08H418.4a1.45,1.45,0,0,1-1.45-1.45V363.86l-1.08-1.08L404.11,351a1.45,1.45,0,0,1,0-2l11.76-11.76,1.08-1.08v-18a1.45,1.45,0,0,1,1.45-1.45h18l1.08-1.08L449,304.11a1.41,1.41,0,0,1,1-.42m0-3.69a5.13,5.13,0,0,0-3.63,1.5L434.85,313H418.4a5.14,5.14,0,0,0-5.14,5.13v16.45L401.5,346.37a5.14,5.14,0,0,0,0,7.26l11.76,11.76v16.22a5.14,5.14,0,0,0,5.14,5.14h16.22l11.75,11.75a5.14,5.14,0,0,0,7.26,0l11.75-11.75h16.47a5.14,5.14,0,0,0,5.13-5.14V365.15l11.52-11.52a5.14,5.14,0,0,0,0-7.26L487,334.85V318.16a5.13,5.13,0,0,0-5.13-5.13h-16.7L453.63,301.5A5.13,5.13,0,0,0,450,300Z"/><path d="M550,303.69a1.41,1.41,0,0,1,1,.42l11.53,11.52,1.08,1.08h18.22a1.45,1.45,0,0,1,1.45,1.45v18.22l1.07,1.08L595.89,349a1.45,1.45,0,0,1,0,2l-11.52,11.52-1.07,1.08v18a1.45,1.45,0,0,1-1.45,1.45h-18l-1.07,1.08L551,395.89a1.45,1.45,0,0,1-2,0l-11.76-11.75-1.07-1.08H518.4a1.45,1.45,0,0,1-1.45-1.45V363.86l-1.08-1.08L504.11,351a1.45,1.45,0,0,1,0-2l11.76-11.76,1.08-1.08v-18a1.45,1.45,0,0,1,1.45-1.45h18l1.08-1.08L549,304.11a1.41,1.41,0,0,1,1-.42m0-3.69a5.13,5.13,0,0,0-3.63,1.5L534.85,313H518.4a5.14,5.14,0,0,0-5.14,5.13v16.45L501.5,346.37a5.14,5.14,0,0,0,0,7.26l11.76,11.76v16.22a5.14,5.14,0,0,0,5.14,5.14h16.22l11.75,11.75a5.14,5.14,0,0,0,7.26,0l11.75-11.75h16.47a5.14,5.14,0,0,0,5.13-5.14V365.15l11.52-11.52a5.14,5.14,0,0,0,0-7.26L587,334.85V318.16a5.13,5.13,0,0,0-5.13-5.13h-16.7L553.63,301.5A5.13,5.13,0,0,0,550,300Z"/><path d="M650,303.69a1.41,1.41,0,0,1,1,.42l11.53,11.52,1.08,1.08h18.22a1.45,1.45,0,0,1,1.45,1.45v18.22l1.07,1.08L695.89,349a1.45,1.45,0,0,1,0,2l-11.52,11.52-1.07,1.08v18a1.45,1.45,0,0,1-1.45,1.45h-18l-1.07,1.08L651,395.89a1.45,1.45,0,0,1-2,0l-11.76-11.75-1.07-1.08H618.4a1.45,1.45,0,0,1-1.45-1.45V363.86l-1.08-1.08L604.11,351a1.45,1.45,0,0,1,0-2l11.76-11.76,1.08-1.08v-18a1.45,1.45,0,0,1,1.45-1.45h18l1.08-1.08L649,304.11a1.41,1.41,0,0,1,1-.42m0-3.69a5.13,5.13,0,0,0-3.63,1.5L634.85,313H618.4a5.14,5.14,0,0,0-5.14,5.13v16.45L601.5,346.37a5.14,5.14,0,0,0,0,7.26l11.76,11.76v16.22a5.14,5.14,0,0,0,5.14,5.14h16.22l11.75,11.75a5.14,5.14,0,0,0,7.26,0l11.75-11.75h16.47a5.14,5.14,0,0,0,5.13-5.14V365.15l11.52-11.52a5.14,5.14,0,0,0,0-7.26L687,334.85V318.16a5.13,5.13,0,0,0-5.13-5.13h-16.7L653.63,301.5A5.13,5.13,0,0,0,650,300Z"/><path d="M750,303.69a1.41,1.41,0,0,1,1,.42l11.53,11.52,1.08,1.08h18.22a1.45,1.45,0,0,1,1.45,1.45v18.22l1.07,1.08L795.89,349a1.45,1.45,0,0,1,0,2l-11.52,11.52-1.07,1.08v18a1.45,1.45,0,0,1-1.45,1.45h-18l-1.07,1.08L751,395.89a1.45,1.45,0,0,1-2,0l-11.76-11.75-1.07-1.08H718.4a1.45,1.45,0,0,1-1.45-1.45V363.86l-1.08-1.08L704.11,351a1.45,1.45,0,0,1,0-2l11.76-11.76,1.08-1.08v-18a1.45,1.45,0,0,1,1.45-1.45h18l1.08-1.08L749,304.11a1.41,1.41,0,0,1,1-.42m0-3.69a5.13,5.13,0,0,0-3.63,1.5L734.85,313H718.4a5.14,5.14,0,0,0-5.14,5.13v16.45L701.5,346.37a5.14,5.14,0,0,0,0,7.26l11.76,11.76v16.22a5.14,5.14,0,0,0,5.14,5.14h16.22l11.75,11.75a5.14,5.14,0,0,0,7.26,0l11.75-11.75h16.47a5.14,5.14,0,0,0,5.13-5.14V365.15l11.52-11.52a5.14,5.14,0,0,0,0-7.26L787,334.85V318.16a5.13,5.13,0,0,0-5.13-5.13h-16.7L753.63,301.5A5.13,5.13,0,0,0,750,300Z"/><path d="M850,303.69a1.41,1.41,0,0,1,1,.42l11.53,11.52,1.08,1.08h18.22a1.45,1.45,0,0,1,1.45,1.45v18.22l1.07,1.08L895.89,349a1.45,1.45,0,0,1,0,2l-11.52,11.52-1.07,1.08v18a1.45,1.45,0,0,1-1.45,1.45h-18l-1.07,1.08L851,395.89a1.45,1.45,0,0,1-2,0l-11.76-11.75-1.07-1.08H818.4a1.45,1.45,0,0,1-1.45-1.45V363.86l-1.08-1.08L804.11,351a1.45,1.45,0,0,1,0-2l11.76-11.76,1.08-1.08v-18a1.45,1.45,0,0,1,1.45-1.45h18l1.08-1.08L849,304.11a1.41,1.41,0,0,1,1-.42m0-3.69a5.13,5.13,0,0,0-3.63,1.5L834.85,313H818.4a5.14,5.14,0,0,0-5.14,5.13v16.45L801.5,346.37a5.14,5.14,0,0,0,0,7.26l11.76,11.76v16.22a5.14,5.14,0,0,0,5.14,5.14h16.22l11.75,11.75a5.14,5.14,0,0,0,7.26,0l11.75-11.75h16.47a5.14,5.14,0,0,0,5.13-5.14V365.15l11.52-11.52a5.14,5.14,0,0,0,0-7.26L887,334.85V318.16a5.13,5.13,0,0,0-5.13-5.13h-16.7L853.63,301.5A5.13,5.13,0,0,0,850,300Z"/><path d="M950,303.69a1.41,1.41,0,0,1,1,.42l11.53,11.52,1.08,1.08h18.22a1.45,1.45,0,0,1,1.45,1.45v18.22l1.07,1.08L995.89,349a1.45,1.45,0,0,1,0,2l-11.52,11.52-1.07,1.08v18a1.45,1.45,0,0,1-1.45,1.45h-18l-1.07,1.08L951,395.89a1.45,1.45,0,0,1-2,0l-11.76-11.75-1.07-1.08H918.4a1.45,1.45,0,0,1-1.45-1.45V363.86l-1.08-1.08L904.11,351a1.45,1.45,0,0,1,0-2l11.76-11.76,1.08-1.08v-18a1.45,1.45,0,0,1,1.45-1.45h18l1.08-1.08L949,304.11a1.41,1.41,0,0,1,1-.42m0-3.69a5.13,5.13,0,0,0-3.63,1.5L934.85,313H918.4a5.14,5.14,0,0,0-5.14,5.13v16.45L901.5,346.37a5.14,5.14,0,0,0,0,7.26l11.76,11.76v16.22a5.14,5.14,0,0,0,5.14,5.14h16.22l11.75,11.75a5.14,5.14,0,0,0,7.26,0l11.75-11.75h16.47a5.14,5.14,0,0,0,5.13-5.14V365.15l11.52-11.52a5.14,5.14,0,0,0,0-7.26L987,334.85V318.16a5.13,5.13,0,0,0-5.13-5.13h-16.7L953.63,301.5A5.13,5.13,0,0,0,950,300Z"/><path d="M50,403.69a1.41,1.41,0,0,1,1,.42l11.53,11.52,1.08,1.08H81.85a1.45,1.45,0,0,1,1.45,1.45v18.22l1.07,1.08L95.89,449a1.45,1.45,0,0,1,0,2L84.37,462.54l-1.07,1.08v18a1.45,1.45,0,0,1-1.45,1.45h-18l-1.07,1.08L51,495.89a1.45,1.45,0,0,1-2,0L37.22,484.14l-1.07-1.08H18.4A1.45,1.45,0,0,1,17,481.61V463.86l-1.08-1.08L4.11,451a1.45,1.45,0,0,1,0-2l11.76-11.76L17,436.14v-18a1.45,1.45,0,0,1,1.45-1.45h18l1.08-1.08L49,404.11a1.41,1.41,0,0,1,1-.42M50,400a5.13,5.13,0,0,0-3.63,1.5L34.85,413H18.4a5.14,5.14,0,0,0-5.14,5.13v16.45L1.5,446.37a5.14,5.14,0,0,0,0,7.26l11.76,11.76v16.22a5.14,5.14,0,0,0,5.14,5.14H34.62L46.37,498.5a5.14,5.14,0,0,0,7.26,0l11.75-11.75H81.85A5.14,5.14,0,0,0,87,481.61V465.15L98.5,453.63a5.14,5.14,0,0,0,0-7.26L87,434.85V418.16A5.13,5.13,0,0,0,81.85,413H65.15L53.63,401.5A5.13,5.13,0,0,0,50,400Z"/><path d="M150,403.69a1.41,1.41,0,0,1,1,.42l11.53,11.52,1.08,1.08h18.22a1.45,1.45,0,0,1,1.45,1.45v18.22l1.07,1.08L195.89,449a1.45,1.45,0,0,1,0,2l-11.52,11.52-1.07,1.08v18a1.45,1.45,0,0,1-1.45,1.45h-18l-1.07,1.08L151,495.89a1.45,1.45,0,0,1-2,0l-11.76-11.75-1.07-1.08H118.4a1.45,1.45,0,0,1-1.45-1.45V463.86l-1.08-1.08L104.11,451a1.45,1.45,0,0,1,0-2l11.76-11.76,1.08-1.08v-18a1.45,1.45,0,0,1,1.45-1.45h18l1.08-1.08L149,404.11a1.41,1.41,0,0,1,1-.42m0-3.69a5.13,5.13,0,0,0-3.63,1.5L134.85,413H118.4a5.14,5.14,0,0,0-5.14,5.13v16.45L101.5,446.37a5.14,5.14,0,0,0,0,7.26l11.76,11.76v16.22a5.14,5.14,0,0,0,5.14,5.14h16.22l11.75,11.75a5.14,5.14,0,0,0,7.26,0l11.75-11.75h16.47a5.14,5.14,0,0,0,5.13-5.14V465.15l11.52-11.52a5.14,5.14,0,0,0,0-7.26L187,434.85V418.16a5.13,5.13,0,0,0-5.13-5.13h-16.7L153.63,401.5A5.13,5.13,0,0,0,150,400Z"/><path d="M250,403.69a1.41,1.41,0,0,1,1,.42l11.53,11.52,1.08,1.08h18.22a1.45,1.45,0,0,1,1.45,1.45v18.22l1.07,1.08L295.89,449a1.45,1.45,0,0,1,0,2l-11.52,11.52-1.07,1.08v18a1.45,1.45,0,0,1-1.45,1.45h-18l-1.07,1.08L251,495.89a1.45,1.45,0,0,1-2,0l-11.76-11.75-1.07-1.08H218.4a1.45,1.45,0,0,1-1.45-1.45V463.86l-1.08-1.08L204.11,451a1.45,1.45,0,0,1,0-2l11.76-11.76,1.08-1.08v-18a1.45,1.45,0,0,1,1.45-1.45h18l1.08-1.08L249,404.11a1.41,1.41,0,0,1,1-.42m0-3.69a5.13,5.13,0,0,0-3.63,1.5L234.85,413H218.4a5.14,5.14,0,0,0-5.14,5.13v16.45L201.5,446.37a5.14,5.14,0,0,0,0,7.26l11.76,11.76v16.22a5.14,5.14,0,0,0,5.14,5.14h16.22l11.75,11.75a5.14,5.14,0,0,0,7.26,0l11.75-11.75h16.47a5.14,5.14,0,0,0,5.13-5.14V465.15l11.52-11.52a5.14,5.14,0,0,0,0-7.26L287,434.85V418.16a5.13,5.13,0,0,0-5.13-5.13h-16.7L253.63,401.5A5.13,5.13,0,0,0,250,400Z"/><path d="M350,403.69a1.41,1.41,0,0,1,1,.42l11.53,11.52,1.08,1.08h18.22a1.45,1.45,0,0,1,1.45,1.45v18.22l1.07,1.08L395.89,449a1.45,1.45,0,0,1,0,2l-11.52,11.52-1.07,1.08v18a1.45,1.45,0,0,1-1.45,1.45h-18l-1.07,1.08L351,495.89a1.45,1.45,0,0,1-2,0l-11.76-11.75-1.07-1.08H318.4a1.45,1.45,0,0,1-1.45-1.45V463.86l-1.08-1.08L304.11,451a1.45,1.45,0,0,1,0-2l11.76-11.76,1.08-1.08v-18a1.45,1.45,0,0,1,1.45-1.45h18l1.08-1.08L349,404.11a1.41,1.41,0,0,1,1-.42m0-3.69a5.13,5.13,0,0,0-3.63,1.5L334.85,413H318.4a5.14,5.14,0,0,0-5.14,5.13v16.45L301.5,446.37a5.14,5.14,0,0,0,0,7.26l11.76,11.76v16.22a5.14,5.14,0,0,0,5.14,5.14h16.22l11.75,11.75a5.14,5.14,0,0,0,7.26,0l11.75-11.75h16.47a5.14,5.14,0,0,0,5.13-5.14V465.15l11.52-11.52a5.14,5.14,0,0,0,0-7.26L387,434.85V418.16a5.13,5.13,0,0,0-5.13-5.13h-16.7L353.63,401.5A5.13,5.13,0,0,0,350,400Z"/><path d="M450,403.69a1.41,1.41,0,0,1,1,.42l11.53,11.52,1.08,1.08h18.22a1.45,1.45,0,0,1,1.45,1.45v18.22l1.07,1.08L495.89,449a1.45,1.45,0,0,1,0,2l-11.52,11.52-1.07,1.08v18a1.45,1.45,0,0,1-1.45,1.45h-18l-1.07,1.08L451,495.89a1.45,1.45,0,0,1-2,0l-11.76-11.75-1.07-1.08H418.4a1.45,1.45,0,0,1-1.45-1.45V463.86l-1.08-1.08L404.11,451a1.45,1.45,0,0,1,0-2l11.76-11.76,1.08-1.08v-18a1.45,1.45,0,0,1,1.45-1.45h18l1.08-1.08L449,404.11a1.41,1.41,0,0,1,1-.42m0-3.69a5.13,5.13,0,0,0-3.63,1.5L434.85,413H418.4a5.14,5.14,0,0,0-5.14,5.13v16.45L401.5,446.37a5.14,5.14,0,0,0,0,7.26l11.76,11.76v16.22a5.14,5.14,0,0,0,5.14,5.14h16.22l11.75,11.75a5.14,5.14,0,0,0,7.26,0l11.75-11.75h16.47a5.14,5.14,0,0,0,5.13-5.14V465.15l11.52-11.52a5.14,5.14,0,0,0,0-7.26L487,434.85V418.16a5.13,5.13,0,0,0-5.13-5.13h-16.7L453.63,401.5A5.13,5.13,0,0,0,450,400Z"/><path d="M550,403.69a1.41,1.41,0,0,1,1,.42l11.53,11.52,1.08,1.08h18.22a1.45,1.45,0,0,1,1.45,1.45v18.22l1.07,1.08L595.89,449a1.45,1.45,0,0,1,0,2l-11.52,11.52-1.07,1.08v18a1.45,1.45,0,0,1-1.45,1.45h-18l-1.07,1.08L551,495.89a1.45,1.45,0,0,1-2,0l-11.76-11.75-1.07-1.08H518.4a1.45,1.45,0,0,1-1.45-1.45V463.86l-1.08-1.08L504.11,451a1.45,1.45,0,0,1,0-2l11.76-11.76,1.08-1.08v-18a1.45,1.45,0,0,1,1.45-1.45h18l1.08-1.08L549,404.11a1.41,1.41,0,0,1,1-.42m0-3.69a5.13,5.13,0,0,0-3.63,1.5L534.85,413H518.4a5.14,5.14,0,0,0-5.14,5.13v16.45L501.5,446.37a5.14,5.14,0,0,0,0,7.26l11.76,11.76v16.22a5.14,5.14,0,0,0,5.14,5.14h16.22l11.75,11.75a5.14,5.14,0,0,0,7.26,0l11.75-11.75h16.47a5.14,5.14,0,0,0,5.13-5.14V465.15l11.52-11.52a5.14,5.14,0,0,0,0-7.26L587,434.85V418.16a5.13,5.13,0,0,0-5.13-5.13h-16.7L553.63,401.5A5.13,5.13,0,0,0,550,400Z"/><path d="M650,403.69a1.41,1.41,0,0,1,1,.42l11.53,11.52,1.08,1.08h18.22a1.45,1.45,0,0,1,1.45,1.45v18.22l1.07,1.08L695.89,449a1.45,1.45,0,0,1,0,2l-11.52,11.52-1.07,1.08v18a1.45,1.45,0,0,1-1.45,1.45h-18l-1.07,1.08L651,495.89a1.45,1.45,0,0,1-2,0l-11.76-11.75-1.07-1.08H618.4a1.45,1.45,0,0,1-1.45-1.45V463.86l-1.08-1.08L604.11,451a1.45,1.45,0,0,1,0-2l11.76-11.76,1.08-1.08v-18a1.45,1.45,0,0,1,1.45-1.45h18l1.08-1.08L649,404.11a1.41,1.41,0,0,1,1-.42m0-3.69a5.13,5.13,0,0,0-3.63,1.5L634.85,413H618.4a5.14,5.14,0,0,0-5.14,5.13v16.45L601.5,446.37a5.14,5.14,0,0,0,0,7.26l11.76,11.76v16.22a5.14,5.14,0,0,0,5.14,5.14h16.22l11.75,11.75a5.14,5.14,0,0,0,7.26,0l11.75-11.75h16.47a5.14,5.14,0,0,0,5.13-5.14V465.15l11.52-11.52a5.14,5.14,0,0,0,0-7.26L687,434.85V418.16a5.13,5.13,0,0,0-5.13-5.13h-16.7L653.63,401.5A5.13,5.13,0,0,0,650,400Z"/><path d="M750,403.69a1.41,1.41,0,0,1,1,.42l11.53,11.52,1.08,1.08h18.22a1.45,1.45,0,0,1,1.45,1.45v18.22l1.07,1.08L795.89,449a1.45,1.45,0,0,1,0,2l-11.52,11.52-1.07,1.08v18a1.45,1.45,0,0,1-1.45,1.45h-18l-1.07,1.08L751,495.89a1.45,1.45,0,0,1-2,0l-11.76-11.75-1.07-1.08H718.4a1.45,1.45,0,0,1-1.45-1.45V463.86l-1.08-1.08L704.11,451a1.45,1.45,0,0,1,0-2l11.76-11.76,1.08-1.08v-18a1.45,1.45,0,0,1,1.45-1.45h18l1.08-1.08L749,404.11a1.41,1.41,0,0,1,1-.42m0-3.69a5.13,5.13,0,0,0-3.63,1.5L734.85,413H718.4a5.14,5.14,0,0,0-5.14,5.13v16.45L701.5,446.37a5.14,5.14,0,0,0,0,7.26l11.76,11.76v16.22a5.14,5.14,0,0,0,5.14,5.14h16.22l11.75,11.75a5.14,5.14,0,0,0,7.26,0l11.75-11.75h16.47a5.14,5.14,0,0,0,5.13-5.14V465.15l11.52-11.52a5.14,5.14,0,0,0,0-7.26L787,434.85V418.16a5.13,5.13,0,0,0-5.13-5.13h-16.7L753.63,401.5A5.13,5.13,0,0,0,750,400Z"/><path d="M850,403.69a1.41,1.41,0,0,1,1,.42l11.53,11.52,1.08,1.08h18.22a1.45,1.45,0,0,1,1.45,1.45v18.22l1.07,1.08L895.89,449a1.45,1.45,0,0,1,0,2l-11.52,11.52-1.07,1.08v18a1.45,1.45,0,0,1-1.45,1.45h-18l-1.07,1.08L851,495.89a1.45,1.45,0,0,1-2,0l-11.76-11.75-1.07-1.08H818.4a1.45,1.45,0,0,1-1.45-1.45V463.86l-1.08-1.08L804.11,451a1.45,1.45,0,0,1,0-2l11.76-11.76,1.08-1.08v-18a1.45,1.45,0,0,1,1.45-1.45h18l1.08-1.08L849,404.11a1.41,1.41,0,0,1,1-.42m0-3.69a5.13,5.13,0,0,0-3.63,1.5L834.85,413H818.4a5.14,5.14,0,0,0-5.14,5.13v16.45L801.5,446.37a5.14,5.14,0,0,0,0,7.26l11.76,11.76v16.22a5.14,5.14,0,0,0,5.14,5.14h16.22l11.75,11.75a5.14,5.14,0,0,0,7.26,0l11.75-11.75h16.47a5.14,5.14,0,0,0,5.13-5.14V465.15l11.52-11.52a5.14,5.14,0,0,0,0-7.26L887,434.85V418.16a5.13,5.13,0,0,0-5.13-5.13h-16.7L853.63,401.5A5.13,5.13,0,0,0,850,400Z"/><path d="M950,403.69a1.41,1.41,0,0,1,1,.42l11.53,11.52,1.08,1.08h18.22a1.45,1.45,0,0,1,1.45,1.45v18.22l1.07,1.08L995.89,449a1.45,1.45,0,0,1,0,2l-11.52,11.52-1.07,1.08v18a1.45,1.45,0,0,1-1.45,1.45h-18l-1.07,1.08L951,495.89a1.45,1.45,0,0,1-2,0l-11.76-11.75-1.07-1.08H918.4a1.45,1.45,0,0,1-1.45-1.45V463.86l-1.08-1.08L904.11,451a1.45,1.45,0,0,1,0-2l11.76-11.76,1.08-1.08v-18a1.45,1.45,0,0,1,1.45-1.45h18l1.08-1.08L949,404.11a1.41,1.41,0,0,1,1-.42m0-3.69a5.13,5.13,0,0,0-3.63,1.5L934.85,413H918.4a5.14,5.14,0,0,0-5.14,5.13v16.45L901.5,446.37a5.14,5.14,0,0,0,0,7.26l11.76,11.76v16.22a5.14,5.14,0,0,0,5.14,5.14h16.22l11.75,11.75a5.14,5.14,0,0,0,7.26,0l11.75-11.75h16.47a5.14,5.14,0,0,0,5.13-5.14V465.15l11.52-11.52a5.14,5.14,0,0,0,0-7.26L987,434.85V418.16a5.13,5.13,0,0,0-5.13-5.13h-16.7L953.63,401.5A5.13,5.13,0,0,0,950,400Z"/><path d="M50,503.69a1.41,1.41,0,0,1,1,.42l11.53,11.52,1.08,1.08H81.85a1.45,1.45,0,0,1,1.45,1.45v18.22l1.07,1.08L95.89,549a1.45,1.45,0,0,1,0,2L84.37,562.54l-1.07,1.08v18a1.45,1.45,0,0,1-1.45,1.45h-18l-1.07,1.08L51,595.89a1.45,1.45,0,0,1-2,0L37.22,584.14l-1.07-1.08H18.4A1.45,1.45,0,0,1,17,581.61V563.86l-1.08-1.08L4.11,551a1.45,1.45,0,0,1,0-2l11.76-11.76L17,536.14v-18a1.45,1.45,0,0,1,1.45-1.45h18l1.08-1.08L49,504.11a1.41,1.41,0,0,1,1-.42M50,500a5.13,5.13,0,0,0-3.63,1.5L34.85,513H18.4a5.14,5.14,0,0,0-5.14,5.13v16.45L1.5,546.37a5.14,5.14,0,0,0,0,7.26l11.76,11.76v16.22a5.14,5.14,0,0,0,5.14,5.14H34.62L46.37,598.5a5.14,5.14,0,0,0,7.26,0l11.75-11.75H81.85A5.14,5.14,0,0,0,87,581.61V565.15L98.5,553.63a5.14,5.14,0,0,0,0-7.26L87,534.85V518.16A5.13,5.13,0,0,0,81.85,513H65.15L53.63,501.5A5.13,5.13,0,0,0,50,500Z"/><path d="M150,503.69a1.41,1.41,0,0,1,1,.42l11.53,11.52,1.08,1.08h18.22a1.45,1.45,0,0,1,1.45,1.45v18.22l1.07,1.08L195.89,549a1.45,1.45,0,0,1,0,2l-11.52,11.52-1.07,1.08v18a1.45,1.45,0,0,1-1.45,1.45h-18l-1.07,1.08L151,595.89a1.45,1.45,0,0,1-2,0l-11.76-11.75-1.07-1.08H118.4a1.45,1.45,0,0,1-1.45-1.45V563.86l-1.08-1.08L104.11,551a1.45,1.45,0,0,1,0-2l11.76-11.76,1.08-1.08v-18a1.45,1.45,0,0,1,1.45-1.45h18l1.08-1.08L149,504.11a1.41,1.41,0,0,1,1-.42m0-3.69a5.13,5.13,0,0,0-3.63,1.5L134.85,513H118.4a5.14,5.14,0,0,0-5.14,5.13v16.45L101.5,546.37a5.14,5.14,0,0,0,0,7.26l11.76,11.76v16.22a5.14,5.14,0,0,0,5.14,5.14h16.22l11.75,11.75a5.14,5.14,0,0,0,7.26,0l11.75-11.75h16.47a5.14,5.14,0,0,0,5.13-5.14V565.15l11.52-11.52a5.14,5.14,0,0,0,0-7.26L187,534.85V518.16a5.13,5.13,0,0,0-5.13-5.13h-16.7L153.63,501.5A5.13,5.13,0,0,0,150,500Z"/><path d="M250,503.69a1.41,1.41,0,0,1,1,.42l11.53,11.52,1.08,1.08h18.22a1.45,1.45,0,0,1,1.45,1.45v18.22l1.07,1.08L295.89,549a1.45,1.45,0,0,1,0,2l-11.52,11.52-1.07,1.08v18a1.45,1.45,0,0,1-1.45,1.45h-18l-1.07,1.08L251,595.89a1.45,1.45,0,0,1-2,0l-11.76-11.75-1.07-1.08H218.4a1.45,1.45,0,0,1-1.45-1.45V563.86l-1.08-1.08L204.11,551a1.45,1.45,0,0,1,0-2l11.76-11.76,1.08-1.08v-18a1.45,1.45,0,0,1,1.45-1.45h18l1.08-1.08L249,504.11a1.41,1.41,0,0,1,1-.42m0-3.69a5.13,5.13,0,0,0-3.63,1.5L234.85,513H218.4a5.14,5.14,0,0,0-5.14,5.13v16.45L201.5,546.37a5.14,5.14,0,0,0,0,7.26l11.76,11.76v16.22a5.14,5.14,0,0,0,5.14,5.14h16.22l11.75,11.75a5.14,5.14,0,0,0,7.26,0l11.75-11.75h16.47a5.14,5.14,0,0,0,5.13-5.14V565.15l11.52-11.52a5.14,5.14,0,0,0,0-7.26L287,534.85V518.16a5.13,5.13,0,0,0-5.13-5.13h-16.7L253.63,501.5A5.13,5.13,0,0,0,250,500Z"/><path d="M350,503.69a1.41,1.41,0,0,1,1,.42l11.53,11.52,1.08,1.08h18.22a1.45,1.45,0,0,1,1.45,1.45v18.22l1.07,1.08L395.89,549a1.45,1.45,0,0,1,0,2l-11.52,11.52-1.07,1.08v18a1.45,1.45,0,0,1-1.45,1.45h-18l-1.07,1.08L351,595.89a1.45,1.45,0,0,1-2,0l-11.76-11.75-1.07-1.08H318.4a1.45,1.45,0,0,1-1.45-1.45V563.86l-1.08-1.08L304.11,551a1.45,1.45,0,0,1,0-2l11.76-11.76,1.08-1.08v-18a1.45,1.45,0,0,1,1.45-1.45h18l1.08-1.08L349,504.11a1.41,1.41,0,0,1,1-.42m0-3.69a5.13,5.13,0,0,0-3.63,1.5L334.85,513H318.4a5.14,5.14,0,0,0-5.14,5.13v16.45L301.5,546.37a5.14,5.14,0,0,0,0,7.26l11.76,11.76v16.22a5.14,5.14,0,0,0,5.14,5.14h16.22l11.75,11.75a5.14,5.14,0,0,0,7.26,0l11.75-11.75h16.47a5.14,5.14,0,0,0,5.13-5.14V565.15l11.52-11.52a5.14,5.14,0,0,0,0-7.26L387,534.85V518.16a5.13,5.13,0,0,0-5.13-5.13h-16.7L353.63,501.5A5.13,5.13,0,0,0,350,500Z"/><path d="M450,503.69a1.41,1.41,0,0,1,1,.42l11.53,11.52,1.08,1.08h18.22a1.45,1.45,0,0,1,1.45,1.45v18.22l1.07,1.08L495.89,549a1.45,1.45,0,0,1,0,2l-11.52,11.52-1.07,1.08v18a1.45,1.45,0,0,1-1.45,1.45h-18l-1.07,1.08L451,595.89a1.45,1.45,0,0,1-2,0l-11.76-11.75-1.07-1.08H418.4a1.45,1.45,0,0,1-1.45-1.45V563.86l-1.08-1.08L404.11,551a1.45,1.45,0,0,1,0-2l11.76-11.76,1.08-1.08v-18a1.45,1.45,0,0,1,1.45-1.45h18l1.08-1.08L449,504.11a1.41,1.41,0,0,1,1-.42m0-3.69a5.13,5.13,0,0,0-3.63,1.5L434.85,513H418.4a5.14,5.14,0,0,0-5.14,5.13v16.45L401.5,546.37a5.14,5.14,0,0,0,0,7.26l11.76,11.76v16.22a5.14,5.14,0,0,0,5.14,5.14h16.22l11.75,11.75a5.14,5.14,0,0,0,7.26,0l11.75-11.75h16.47a5.14,5.14,0,0,0,5.13-5.14V565.15l11.52-11.52a5.14,5.14,0,0,0,0-7.26L487,534.85V518.16a5.13,5.13,0,0,0-5.13-5.13h-16.7L453.63,501.5A5.13,5.13,0,0,0,450,500Z"/><path d="M550,503.69a1.41,1.41,0,0,1,1,.42l11.53,11.52,1.08,1.08h18.22a1.45,1.45,0,0,1,1.45,1.45v18.22l1.07,1.08L595.89,549a1.45,1.45,0,0,1,0,2l-11.52,11.52-1.07,1.08v18a1.45,1.45,0,0,1-1.45,1.45h-18l-1.07,1.08L551,595.89a1.45,1.45,0,0,1-2,0l-11.76-11.75-1.07-1.08H518.4a1.45,1.45,0,0,1-1.45-1.45V563.86l-1.08-1.08L504.11,551a1.45,1.45,0,0,1,0-2l11.76-11.76,1.08-1.08v-18a1.45,1.45,0,0,1,1.45-1.45h18l1.08-1.08L549,504.11a1.41,1.41,0,0,1,1-.42m0-3.69a5.13,5.13,0,0,0-3.63,1.5L534.85,513H518.4a5.14,5.14,0,0,0-5.14,5.13v16.45L501.5,546.37a5.14,5.14,0,0,0,0,7.26l11.76,11.76v16.22a5.14,5.14,0,0,0,5.14,5.14h16.22l11.75,11.75a5.14,5.14,0,0,0,7.26,0l11.75-11.75h16.47a5.14,5.14,0,0,0,5.13-5.14V565.15l11.52-11.52a5.14,5.14,0,0,0,0-7.26L587,534.85V518.16a5.13,5.13,0,0,0-5.13-5.13h-16.7L553.63,501.5A5.13,5.13,0,0,0,550,500Z"/><path d="M650,503.69a1.41,1.41,0,0,1,1,.42l11.53,11.52,1.08,1.08h18.22a1.45,1.45,0,0,1,1.45,1.45v18.22l1.07,1.08L695.89,549a1.45,1.45,0,0,1,0,2l-11.52,11.52-1.07,1.08v18a1.45,1.45,0,0,1-1.45,1.45h-18l-1.07,1.08L651,595.89a1.45,1.45,0,0,1-2,0l-11.76-11.75-1.07-1.08H618.4a1.45,1.45,0,0,1-1.45-1.45V563.86l-1.08-1.08L604.11,551a1.45,1.45,0,0,1,0-2l11.76-11.76,1.08-1.08v-18a1.45,1.45,0,0,1,1.45-1.45h18l1.08-1.08L649,504.11a1.41,1.41,0,0,1,1-.42m0-3.69a5.13,5.13,0,0,0-3.63,1.5L634.85,513H618.4a5.14,5.14,0,0,0-5.14,5.13v16.45L601.5,546.37a5.14,5.14,0,0,0,0,7.26l11.76,11.76v16.22a5.14,5.14,0,0,0,5.14,5.14h16.22l11.75,11.75a5.14,5.14,0,0,0,7.26,0l11.75-11.75h16.47a5.14,5.14,0,0,0,5.13-5.14V565.15l11.52-11.52a5.14,5.14,0,0,0,0-7.26L687,534.85V518.16a5.13,5.13,0,0,0-5.13-5.13h-16.7L653.63,501.5A5.13,5.13,0,0,0,650,500Z"/><path d="M750,503.69a1.41,1.41,0,0,1,1,.42l11.53,11.52,1.08,1.08h18.22a1.45,1.45,0,0,1,1.45,1.45v18.22l1.07,1.08L795.89,549a1.45,1.45,0,0,1,0,2l-11.52,11.52-1.07,1.08v18a1.45,1.45,0,0,1-1.45,1.45h-18l-1.07,1.08L751,595.89a1.45,1.45,0,0,1-2,0l-11.76-11.75-1.07-1.08H718.4a1.45,1.45,0,0,1-1.45-1.45V563.86l-1.08-1.08L704.11,551a1.45,1.45,0,0,1,0-2l11.76-11.76,1.08-1.08v-18a1.45,1.45,0,0,1,1.45-1.45h18l1.08-1.08L749,504.11a1.41,1.41,0,0,1,1-.42m0-3.69a5.13,5.13,0,0,0-3.63,1.5L734.85,513H718.4a5.14,5.14,0,0,0-5.14,5.13v16.45L701.5,546.37a5.14,5.14,0,0,0,0,7.26l11.76,11.76v16.22a5.14,5.14,0,0,0,5.14,5.14h16.22l11.75,11.75a5.14,5.14,0,0,0,7.26,0l11.75-11.75h16.47a5.14,5.14,0,0,0,5.13-5.14V565.15l11.52-11.52a5.14,5.14,0,0,0,0-7.26L787,534.85V518.16a5.13,5.13,0,0,0-5.13-5.13h-16.7L753.63,501.5A5.13,5.13,0,0,0,750,500Z"/><path d="M850,503.69a1.41,1.41,0,0,1,1,.42l11.53,11.52,1.08,1.08h18.22a1.45,1.45,0,0,1,1.45,1.45v18.22l1.07,1.08L895.89,549a1.45,1.45,0,0,1,0,2l-11.52,11.52-1.07,1.08v18a1.45,1.45,0,0,1-1.45,1.45h-18l-1.07,1.08L851,595.89a1.45,1.45,0,0,1-2,0l-11.76-11.75-1.07-1.08H818.4a1.45,1.45,0,0,1-1.45-1.45V563.86l-1.08-1.08L804.11,551a1.45,1.45,0,0,1,0-2l11.76-11.76,1.08-1.08v-18a1.45,1.45,0,0,1,1.45-1.45h18l1.08-1.08L849,504.11a1.41,1.41,0,0,1,1-.42m0-3.69a5.13,5.13,0,0,0-3.63,1.5L834.85,513H818.4a5.14,5.14,0,0,0-5.14,5.13v16.45L801.5,546.37a5.14,5.14,0,0,0,0,7.26l11.76,11.76v16.22a5.14,5.14,0,0,0,5.14,5.14h16.22l11.75,11.75a5.14,5.14,0,0,0,7.26,0l11.75-11.75h16.47a5.14,5.14,0,0,0,5.13-5.14V565.15l11.52-11.52a5.14,5.14,0,0,0,0-7.26L887,534.85V518.16a5.13,5.13,0,0,0-5.13-5.13h-16.7L853.63,501.5A5.13,5.13,0,0,0,850,500Z"/><path d="M950,503.69a1.41,1.41,0,0,1,1,.42l11.53,11.52,1.08,1.08h18.22a1.45,1.45,0,0,1,1.45,1.45v18.22l1.07,1.08L995.89,549a1.45,1.45,0,0,1,0,2l-11.52,11.52-1.07,1.08v18a1.45,1.45,0,0,1-1.45,1.45h-18l-1.07,1.08L951,595.89a1.45,1.45,0,0,1-2,0l-11.76-11.75-1.07-1.08H918.4a1.45,1.45,0,0,1-1.45-1.45V563.86l-1.08-1.08L904.11,551a1.45,1.45,0,0,1,0-2l11.76-11.76,1.08-1.08v-18a1.45,1.45,0,0,1,1.45-1.45h18l1.08-1.08L949,504.11a1.41,1.41,0,0,1,1-.42m0-3.69a5.13,5.13,0,0,0-3.63,1.5L934.85,513H918.4a5.14,5.14,0,0,0-5.14,5.13v16.45L901.5,546.37a5.14,5.14,0,0,0,0,7.26l11.76,11.76v16.22a5.14,5.14,0,0,0,5.14,5.14h16.22l11.75,11.75a5.14,5.14,0,0,0,7.26,0l11.75-11.75h16.47a5.14,5.14,0,0,0,5.13-5.14V565.15l11.52-11.52a5.14,5.14,0,0,0,0-7.26L987,534.85V518.16a5.13,5.13,0,0,0-5.13-5.13h-16.7L953.63,501.5A5.13,5.13,0,0,0,950,500Z"/><path d="M50,603.69a1.41,1.41,0,0,1,1,.42l11.53,11.52,1.08,1.08H81.85a1.45,1.45,0,0,1,1.45,1.45v18.22l1.07,1.08L95.89,649a1.45,1.45,0,0,1,0,2L84.37,662.54l-1.07,1.08v18a1.45,1.45,0,0,1-1.45,1.45h-18l-1.07,1.08L51,695.89a1.45,1.45,0,0,1-2,0L37.22,684.14l-1.07-1.08H18.4A1.45,1.45,0,0,1,17,681.61V663.86l-1.08-1.08L4.11,651a1.45,1.45,0,0,1,0-2l11.76-11.76L17,636.14v-18a1.45,1.45,0,0,1,1.45-1.45h18l1.08-1.08L49,604.11a1.41,1.41,0,0,1,1-.42M50,600a5.13,5.13,0,0,0-3.63,1.5L34.85,613H18.4a5.14,5.14,0,0,0-5.14,5.13v16.45L1.5,646.37a5.14,5.14,0,0,0,0,7.26l11.76,11.76v16.22a5.14,5.14,0,0,0,5.14,5.14H34.62L46.37,698.5a5.14,5.14,0,0,0,7.26,0l11.75-11.75H81.85A5.14,5.14,0,0,0,87,681.61V665.15L98.5,653.63a5.14,5.14,0,0,0,0-7.26L87,634.85V618.16A5.13,5.13,0,0,0,81.85,613H65.15L53.63,601.5A5.13,5.13,0,0,0,50,600Z"/><path d="M150,603.69a1.41,1.41,0,0,1,1,.42l11.53,11.52,1.08,1.08h18.22a1.45,1.45,0,0,1,1.45,1.45v18.22l1.07,1.08L195.89,649a1.45,1.45,0,0,1,0,2l-11.52,11.52-1.07,1.08v18a1.45,1.45,0,0,1-1.45,1.45h-18l-1.07,1.08L151,695.89a1.45,1.45,0,0,1-2,0l-11.76-11.75-1.07-1.08H118.4a1.45,1.45,0,0,1-1.45-1.45V663.86l-1.08-1.08L104.11,651a1.45,1.45,0,0,1,0-2l11.76-11.76,1.08-1.08v-18a1.45,1.45,0,0,1,1.45-1.45h18l1.08-1.08L149,604.11a1.41,1.41,0,0,1,1-.42m0-3.69a5.13,5.13,0,0,0-3.63,1.5L134.85,613H118.4a5.14,5.14,0,0,0-5.14,5.13v16.45L101.5,646.37a5.14,5.14,0,0,0,0,7.26l11.76,11.76v16.22a5.14,5.14,0,0,0,5.14,5.14h16.22l11.75,11.75a5.14,5.14,0,0,0,7.26,0l11.75-11.75h16.47a5.14,5.14,0,0,0,5.13-5.14V665.15l11.52-11.52a5.14,5.14,0,0,0,0-7.26L187,634.85V618.16a5.13,5.13,0,0,0-5.13-5.13h-16.7L153.63,601.5A5.13,5.13,0,0,0,150,600Z"/><path d="M250,603.69a1.41,1.41,0,0,1,1,.42l11.53,11.52,1.08,1.08h18.22a1.45,1.45,0,0,1,1.45,1.45v18.22l1.07,1.08L295.89,649a1.45,1.45,0,0,1,0,2l-11.52,11.52-1.07,1.08v18a1.45,1.45,0,0,1-1.45,1.45h-18l-1.07,1.08L251,695.89a1.45,1.45,0,0,1-2,0l-11.76-11.75-1.07-1.08H218.4a1.45,1.45,0,0,1-1.45-1.45V663.86l-1.08-1.08L204.11,651a1.45,1.45,0,0,1,0-2l11.76-11.76,1.08-1.08v-18a1.45,1.45,0,0,1,1.45-1.45h18l1.08-1.08L249,604.11a1.41,1.41,0,0,1,1-.42m0-3.69a5.13,5.13,0,0,0-3.63,1.5L234.85,613H218.4a5.14,5.14,0,0,0-5.14,5.13v16.45L201.5,646.37a5.14,5.14,0,0,0,0,7.26l11.76,11.76v16.22a5.14,5.14,0,0,0,5.14,5.14h16.22l11.75,11.75a5.14,5.14,0,0,0,7.26,0l11.75-11.75h16.47a5.14,5.14,0,0,0,5.13-5.14V665.15l11.52-11.52a5.14,5.14,0,0,0,0-7.26L287,634.85V618.16a5.13,5.13,0,0,0-5.13-5.13h-16.7L253.63,601.5A5.13,5.13,0,0,0,250,600Z"/><path d="M350,603.69a1.41,1.41,0,0,1,1,.42l11.53,11.52,1.08,1.08h18.22a1.45,1.45,0,0,1,1.45,1.45v18.22l1.07,1.08L395.89,649a1.45,1.45,0,0,1,0,2l-11.52,11.52-1.07,1.08v18a1.45,1.45,0,0,1-1.45,1.45h-18l-1.07,1.08L351,695.89a1.45,1.45,0,0,1-2,0l-11.76-11.75-1.07-1.08H318.4a1.45,1.45,0,0,1-1.45-1.45V663.86l-1.08-1.08L304.11,651a1.45,1.45,0,0,1,0-2l11.76-11.76,1.08-1.08v-18a1.45,1.45,0,0,1,1.45-1.45h18l1.08-1.08L349,604.11a1.41,1.41,0,0,1,1-.42m0-3.69a5.13,5.13,0,0,0-3.63,1.5L334.85,613H318.4a5.14,5.14,0,0,0-5.14,5.13v16.45L301.5,646.37a5.14,5.14,0,0,0,0,7.26l11.76,11.76v16.22a5.14,5.14,0,0,0,5.14,5.14h16.22l11.75,11.75a5.14,5.14,0,0,0,7.26,0l11.75-11.75h16.47a5.14,5.14,0,0,0,5.13-5.14V665.15l11.52-11.52a5.14,5.14,0,0,0,0-7.26L387,634.85V618.16a5.13,5.13,0,0,0-5.13-5.13h-16.7L353.63,601.5A5.13,5.13,0,0,0,350,600Z"/><path d="M450,603.69a1.41,1.41,0,0,1,1,.42l11.53,11.52,1.08,1.08h18.22a1.45,1.45,0,0,1,1.45,1.45v18.22l1.07,1.08L495.89,649a1.45,1.45,0,0,1,0,2l-11.52,11.52-1.07,1.08v18a1.45,1.45,0,0,1-1.45,1.45h-18l-1.07,1.08L451,695.89a1.45,1.45,0,0,1-2,0l-11.76-11.75-1.07-1.08H418.4a1.45,1.45,0,0,1-1.45-1.45V663.86l-1.08-1.08L404.11,651a1.45,1.45,0,0,1,0-2l11.76-11.76,1.08-1.08v-18a1.45,1.45,0,0,1,1.45-1.45h18l1.08-1.08L449,604.11a1.41,1.41,0,0,1,1-.42m0-3.69a5.13,5.13,0,0,0-3.63,1.5L434.85,613H418.4a5.14,5.14,0,0,0-5.14,5.13v16.45L401.5,646.37a5.14,5.14,0,0,0,0,7.26l11.76,11.76v16.22a5.14,5.14,0,0,0,5.14,5.14h16.22l11.75,11.75a5.14,5.14,0,0,0,7.26,0l11.75-11.75h16.47a5.14,5.14,0,0,0,5.13-5.14V665.15l11.52-11.52a5.14,5.14,0,0,0,0-7.26L487,634.85V618.16a5.13,5.13,0,0,0-5.13-5.13h-16.7L453.63,601.5A5.13,5.13,0,0,0,450,600Z"/><path d="M550,603.69a1.41,1.41,0,0,1,1,.42l11.53,11.52,1.08,1.08h18.22a1.45,1.45,0,0,1,1.45,1.45v18.22l1.07,1.08L595.89,649a1.45,1.45,0,0,1,0,2l-11.52,11.52-1.07,1.08v18a1.45,1.45,0,0,1-1.45,1.45h-18l-1.07,1.08L551,695.89a1.45,1.45,0,0,1-2,0l-11.76-11.75-1.07-1.08H518.4a1.45,1.45,0,0,1-1.45-1.45V663.86l-1.08-1.08L504.11,651a1.45,1.45,0,0,1,0-2l11.76-11.76,1.08-1.08v-18a1.45,1.45,0,0,1,1.45-1.45h18l1.08-1.08L549,604.11a1.41,1.41,0,0,1,1-.42m0-3.69a5.13,5.13,0,0,0-3.63,1.5L534.85,613H518.4a5.14,5.14,0,0,0-5.14,5.13v16.45L501.5,646.37a5.14,5.14,0,0,0,0,7.26l11.76,11.76v16.22a5.14,5.14,0,0,0,5.14,5.14h16.22l11.75,11.75a5.14,5.14,0,0,0,7.26,0l11.75-11.75h16.47a5.14,5.14,0,0,0,5.13-5.14V665.15l11.52-11.52a5.14,5.14,0,0,0,0-7.26L587,634.85V618.16a5.13,5.13,0,0,0-5.13-5.13h-16.7L553.63,601.5A5.13,5.13,0,0,0,550,600Z"/><path d="M650,603.69a1.41,1.41,0,0,1,1,.42l11.53,11.52,1.08,1.08h18.22a1.45,1.45,0,0,1,1.45,1.45v18.22l1.07,1.08L695.89,649a1.45,1.45,0,0,1,0,2l-11.52,11.52-1.07,1.08v18a1.45,1.45,0,0,1-1.45,1.45h-18l-1.07,1.08L651,695.89a1.45,1.45,0,0,1-2,0l-11.76-11.75-1.07-1.08H618.4a1.45,1.45,0,0,1-1.45-1.45V663.86l-1.08-1.08L604.11,651a1.45,1.45,0,0,1,0-2l11.76-11.76,1.08-1.08v-18a1.45,1.45,0,0,1,1.45-1.45h18l1.08-1.08L649,604.11a1.41,1.41,0,0,1,1-.42m0-3.69a5.13,5.13,0,0,0-3.63,1.5L634.85,613H618.4a5.14,5.14,0,0,0-5.14,5.13v16.45L601.5,646.37a5.14,5.14,0,0,0,0,7.26l11.76,11.76v16.22a5.14,5.14,0,0,0,5.14,5.14h16.22l11.75,11.75a5.14,5.14,0,0,0,7.26,0l11.75-11.75h16.47a5.14,5.14,0,0,0,5.13-5.14V665.15l11.52-11.52a5.14,5.14,0,0,0,0-7.26L687,634.85V618.16a5.13,5.13,0,0,0-5.13-5.13h-16.7L653.63,601.5A5.13,5.13,0,0,0,650,600Z"/><path d="M750,603.69a1.41,1.41,0,0,1,1,.42l11.53,11.52,1.08,1.08h18.22a1.45,1.45,0,0,1,1.45,1.45v18.22l1.07,1.08L795.89,649a1.45,1.45,0,0,1,0,2l-11.52,11.52-1.07,1.08v18a1.45,1.45,0,0,1-1.45,1.45h-18l-1.07,1.08L751,695.89a1.45,1.45,0,0,1-2,0l-11.76-11.75-1.07-1.08H718.4a1.45,1.45,0,0,1-1.45-1.45V663.86l-1.08-1.08L704.11,651a1.45,1.45,0,0,1,0-2l11.76-11.76,1.08-1.08v-18a1.45,1.45,0,0,1,1.45-1.45h18l1.08-1.08L749,604.11a1.41,1.41,0,0,1,1-.42m0-3.69a5.13,5.13,0,0,0-3.63,1.5L734.85,613H718.4a5.14,5.14,0,0,0-5.14,5.13v16.45L701.5,646.37a5.14,5.14,0,0,0,0,7.26l11.76,11.76v16.22a5.14,5.14,0,0,0,5.14,5.14h16.22l11.75,11.75a5.14,5.14,0,0,0,7.26,0l11.75-11.75h16.47a5.14,5.14,0,0,0,5.13-5.14V665.15l11.52-11.52a5.14,5.14,0,0,0,0-7.26L787,634.85V618.16a5.13,5.13,0,0,0-5.13-5.13h-16.7L753.63,601.5A5.13,5.13,0,0,0,750,600Z"/><path d="M850,603.69a1.41,1.41,0,0,1,1,.42l11.53,11.52,1.08,1.08h18.22a1.45,1.45,0,0,1,1.45,1.45v18.22l1.07,1.08L895.89,649a1.45,1.45,0,0,1,0,2l-11.52,11.52-1.07,1.08v18a1.45,1.45,0,0,1-1.45,1.45h-18l-1.07,1.08L851,695.89a1.45,1.45,0,0,1-2,0l-11.76-11.75-1.07-1.08H818.4a1.45,1.45,0,0,1-1.45-1.45V663.86l-1.08-1.08L804.11,651a1.45,1.45,0,0,1,0-2l11.76-11.76,1.08-1.08v-18a1.45,1.45,0,0,1,1.45-1.45h18l1.08-1.08L849,604.11a1.41,1.41,0,0,1,1-.42m0-3.69a5.13,5.13,0,0,0-3.63,1.5L834.85,613H818.4a5.14,5.14,0,0,0-5.14,5.13v16.45L801.5,646.37a5.14,5.14,0,0,0,0,7.26l11.76,11.76v16.22a5.14,5.14,0,0,0,5.14,5.14h16.22l11.75,11.75a5.14,5.14,0,0,0,7.26,0l11.75-11.75h16.47a5.14,5.14,0,0,0,5.13-5.14V665.15l11.52-11.52a5.14,5.14,0,0,0,0-7.26L887,634.85V618.16a5.13,5.13,0,0,0-5.13-5.13h-16.7L853.63,601.5A5.13,5.13,0,0,0,850,600Z"/><path d="M950,603.69a1.41,1.41,0,0,1,1,.42l11.53,11.52,1.08,1.08h18.22a1.45,1.45,0,0,1,1.45,1.45v18.22l1.07,1.08L995.89,649a1.45,1.45,0,0,1,0,2l-11.52,11.52-1.07,1.08v18a1.45,1.45,0,0,1-1.45,1.45h-18l-1.07,1.08L951,695.89a1.45,1.45,0,0,1-2,0l-11.76-11.75-1.07-1.08H918.4a1.45,1.45,0,0,1-1.45-1.45V663.86l-1.08-1.08L904.11,651a1.45,1.45,0,0,1,0-2l11.76-11.76,1.08-1.08v-18a1.45,1.45,0,0,1,1.45-1.45h18l1.08-1.08L949,604.11a1.41,1.41,0,0,1,1-.42m0-3.69a5.13,5.13,0,0,0-3.63,1.5L934.85,613H918.4a5.14,5.14,0,0,0-5.14,5.13v16.45L901.5,646.37a5.14,5.14,0,0,0,0,7.26l11.76,11.76v16.22a5.14,5.14,0,0,0,5.14,5.14h16.22l11.75,11.75a5.14,5.14,0,0,0,7.26,0l11.75-11.75h16.47a5.14,5.14,0,0,0,5.13-5.14V665.15l11.52-11.52a5.14,5.14,0,0,0,0-7.26L987,634.85V618.16a5.13,5.13,0,0,0-5.13-5.13h-16.7L953.63,601.5A5.13,5.13,0,0,0,950,600Z"/><path d="M50,703.69a1.41,1.41,0,0,1,1,.42l11.53,11.52,1.08,1.08H81.85a1.45,1.45,0,0,1,1.45,1.45v18.22l1.07,1.08L95.89,749a1.45,1.45,0,0,1,0,2L84.37,762.54l-1.07,1.08v18a1.45,1.45,0,0,1-1.45,1.45h-18l-1.07,1.08L51,795.89a1.45,1.45,0,0,1-2,0L37.22,784.14l-1.07-1.08H18.4A1.45,1.45,0,0,1,17,781.61V763.86l-1.08-1.08L4.11,751a1.45,1.45,0,0,1,0-2l11.76-11.76L17,736.14v-18a1.45,1.45,0,0,1,1.45-1.45h18l1.08-1.08L49,704.11a1.41,1.41,0,0,1,1-.42M50,700a5.13,5.13,0,0,0-3.63,1.5L34.85,713H18.4a5.14,5.14,0,0,0-5.14,5.13v16.45L1.5,746.37a5.14,5.14,0,0,0,0,7.26l11.76,11.76v16.22a5.14,5.14,0,0,0,5.14,5.14H34.62L46.37,798.5a5.14,5.14,0,0,0,7.26,0l11.75-11.75H81.85A5.14,5.14,0,0,0,87,781.61V765.15L98.5,753.63a5.14,5.14,0,0,0,0-7.26L87,734.85V718.16A5.13,5.13,0,0,0,81.85,713H65.15L53.63,701.5A5.13,5.13,0,0,0,50,700Z"/><path d="M150,703.69a1.41,1.41,0,0,1,1,.42l11.53,11.52,1.08,1.08h18.22a1.45,1.45,0,0,1,1.45,1.45v18.22l1.07,1.08L195.89,749a1.45,1.45,0,0,1,0,2l-11.52,11.52-1.07,1.08v18a1.45,1.45,0,0,1-1.45,1.45h-18l-1.07,1.08L151,795.89a1.45,1.45,0,0,1-2,0l-11.76-11.75-1.07-1.08H118.4a1.45,1.45,0,0,1-1.45-1.45V763.86l-1.08-1.08L104.11,751a1.45,1.45,0,0,1,0-2l11.76-11.76,1.08-1.08v-18a1.45,1.45,0,0,1,1.45-1.45h18l1.08-1.08L149,704.11a1.41,1.41,0,0,1,1-.42m0-3.69a5.13,5.13,0,0,0-3.63,1.5L134.85,713H118.4a5.14,5.14,0,0,0-5.14,5.13v16.45L101.5,746.37a5.14,5.14,0,0,0,0,7.26l11.76,11.76v16.22a5.14,5.14,0,0,0,5.14,5.14h16.22l11.75,11.75a5.14,5.14,0,0,0,7.26,0l11.75-11.75h16.47a5.14,5.14,0,0,0,5.13-5.14V765.15l11.52-11.52a5.14,5.14,0,0,0,0-7.26L187,734.85V718.16a5.13,5.13,0,0,0-5.13-5.13h-16.7L153.63,701.5A5.13,5.13,0,0,0,150,700Z"/><path d="M250,703.69a1.41,1.41,0,0,1,1,.42l11.53,11.52,1.08,1.08h18.22a1.45,1.45,0,0,1,1.45,1.45v18.22l1.07,1.08L295.89,749a1.45,1.45,0,0,1,0,2l-11.52,11.52-1.07,1.08v18a1.45,1.45,0,0,1-1.45,1.45h-18l-1.07,1.08L251,795.89a1.45,1.45,0,0,1-2,0l-11.76-11.75-1.07-1.08H218.4a1.45,1.45,0,0,1-1.45-1.45V763.86l-1.08-1.08L204.11,751a1.45,1.45,0,0,1,0-2l11.76-11.76,1.08-1.08v-18a1.45,1.45,0,0,1,1.45-1.45h18l1.08-1.08L249,704.11a1.41,1.41,0,0,1,1-.42m0-3.69a5.13,5.13,0,0,0-3.63,1.5L234.85,713H218.4a5.14,5.14,0,0,0-5.14,5.13v16.45L201.5,746.37a5.14,5.14,0,0,0,0,7.26l11.76,11.76v16.22a5.14,5.14,0,0,0,5.14,5.14h16.22l11.75,11.75a5.14,5.14,0,0,0,7.26,0l11.75-11.75h16.47a5.14,5.14,0,0,0,5.13-5.14V765.15l11.52-11.52a5.14,5.14,0,0,0,0-7.26L287,734.85V718.16a5.13,5.13,0,0,0-5.13-5.13h-16.7L253.63,701.5A5.13,5.13,0,0,0,250,700Z"/><path d="M350,703.69a1.41,1.41,0,0,1,1,.42l11.53,11.52,1.08,1.08h18.22a1.45,1.45,0,0,1,1.45,1.45v18.22l1.07,1.08L395.89,749a1.45,1.45,0,0,1,0,2l-11.52,11.52-1.07,1.08v18a1.45,1.45,0,0,1-1.45,1.45h-18l-1.07,1.08L351,795.89a1.45,1.45,0,0,1-2,0l-11.76-11.75-1.07-1.08H318.4a1.45,1.45,0,0,1-1.45-1.45V763.86l-1.08-1.08L304.11,751a1.45,1.45,0,0,1,0-2l11.76-11.76,1.08-1.08v-18a1.45,1.45,0,0,1,1.45-1.45h18l1.08-1.08L349,704.11a1.41,1.41,0,0,1,1-.42m0-3.69a5.13,5.13,0,0,0-3.63,1.5L334.85,713H318.4a5.14,5.14,0,0,0-5.14,5.13v16.45L301.5,746.37a5.14,5.14,0,0,0,0,7.26l11.76,11.76v16.22a5.14,5.14,0,0,0,5.14,5.14h16.22l11.75,11.75a5.14,5.14,0,0,0,7.26,0l11.75-11.75h16.47a5.14,5.14,0,0,0,5.13-5.14V765.15l11.52-11.52a5.14,5.14,0,0,0,0-7.26L387,734.85V718.16a5.13,5.13,0,0,0-5.13-5.13h-16.7L353.63,701.5A5.13,5.13,0,0,0,350,700Z"/><path d="M450,703.69a1.41,1.41,0,0,1,1,.42l11.53,11.52,1.08,1.08h18.22a1.45,1.45,0,0,1,1.45,1.45v18.22l1.07,1.08L495.89,749a1.45,1.45,0,0,1,0,2l-11.52,11.52-1.07,1.08v18a1.45,1.45,0,0,1-1.45,1.45h-18l-1.07,1.08L451,795.89a1.45,1.45,0,0,1-2,0l-11.76-11.75-1.07-1.08H418.4a1.45,1.45,0,0,1-1.45-1.45V763.86l-1.08-1.08L404.11,751a1.45,1.45,0,0,1,0-2l11.76-11.76,1.08-1.08v-18a1.45,1.45,0,0,1,1.45-1.45h18l1.08-1.08L449,704.11a1.41,1.41,0,0,1,1-.42m0-3.69a5.13,5.13,0,0,0-3.63,1.5L434.85,713H418.4a5.14,5.14,0,0,0-5.14,5.13v16.45L401.5,746.37a5.14,5.14,0,0,0,0,7.26l11.76,11.76v16.22a5.14,5.14,0,0,0,5.14,5.14h16.22l11.75,11.75a5.14,5.14,0,0,0,7.26,0l11.75-11.75h16.47a5.14,5.14,0,0,0,5.13-5.14V765.15l11.52-11.52a5.14,5.14,0,0,0,0-7.26L487,734.85V718.16a5.13,5.13,0,0,0-5.13-5.13h-16.7L453.63,701.5A5.13,5.13,0,0,0,450,700Z"/><path d="M550,703.69a1.41,1.41,0,0,1,1,.42l11.53,11.52,1.08,1.08h18.22a1.45,1.45,0,0,1,1.45,1.45v18.22l1.07,1.08L595.89,749a1.45,1.45,0,0,1,0,2l-11.52,11.52-1.07,1.08v18a1.45,1.45,0,0,1-1.45,1.45h-18l-1.07,1.08L551,795.89a1.45,1.45,0,0,1-2,0l-11.76-11.75-1.07-1.08H518.4a1.45,1.45,0,0,1-1.45-1.45V763.86l-1.08-1.08L504.11,751a1.45,1.45,0,0,1,0-2l11.76-11.76,1.08-1.08v-18a1.45,1.45,0,0,1,1.45-1.45h18l1.08-1.08L549,704.11a1.41,1.41,0,0,1,1-.42m0-3.69a5.13,5.13,0,0,0-3.63,1.5L534.85,713H518.4a5.14,5.14,0,0,0-5.14,5.13v16.45L501.5,746.37a5.14,5.14,0,0,0,0,7.26l11.76,11.76v16.22a5.14,5.14,0,0,0,5.14,5.14h16.22l11.75,11.75a5.14,5.14,0,0,0,7.26,0l11.75-11.75h16.47a5.14,5.14,0,0,0,5.13-5.14V765.15l11.52-11.52a5.14,5.14,0,0,0,0-7.26L587,734.85V718.16a5.13,5.13,0,0,0-5.13-5.13h-16.7L553.63,701.5A5.13,5.13,0,0,0,550,700Z"/><path d="M650,703.69a1.41,1.41,0,0,1,1,.42l11.53,11.52,1.08,1.08h18.22a1.45,1.45,0,0,1,1.45,1.45v18.22l1.07,1.08L695.89,749a1.45,1.45,0,0,1,0,2l-11.52,11.52-1.07,1.08v18a1.45,1.45,0,0,1-1.45,1.45h-18l-1.07,1.08L651,795.89a1.45,1.45,0,0,1-2,0l-11.76-11.75-1.07-1.08H618.4a1.45,1.45,0,0,1-1.45-1.45V763.86l-1.08-1.08L604.11,751a1.45,1.45,0,0,1,0-2l11.76-11.76,1.08-1.08v-18a1.45,1.45,0,0,1,1.45-1.45h18l1.08-1.08L649,704.11a1.41,1.41,0,0,1,1-.42m0-3.69a5.13,5.13,0,0,0-3.63,1.5L634.85,713H618.4a5.14,5.14,0,0,0-5.14,5.13v16.45L601.5,746.37a5.14,5.14,0,0,0,0,7.26l11.76,11.76v16.22a5.14,5.14,0,0,0,5.14,5.14h16.22l11.75,11.75a5.14,5.14,0,0,0,7.26,0l11.75-11.75h16.47a5.14,5.14,0,0,0,5.13-5.14V765.15l11.52-11.52a5.14,5.14,0,0,0,0-7.26L687,734.85V718.16a5.13,5.13,0,0,0-5.13-5.13h-16.7L653.63,701.5A5.13,5.13,0,0,0,650,700Z"/><path d="M750,703.69a1.41,1.41,0,0,1,1,.42l11.53,11.52,1.08,1.08h18.22a1.45,1.45,0,0,1,1.45,1.45v18.22l1.07,1.08L795.89,749a1.45,1.45,0,0,1,0,2l-11.52,11.52-1.07,1.08v18a1.45,1.45,0,0,1-1.45,1.45h-18l-1.07,1.08L751,795.89a1.45,1.45,0,0,1-2,0l-11.76-11.75-1.07-1.08H718.4a1.45,1.45,0,0,1-1.45-1.45V763.86l-1.08-1.08L704.11,751a1.45,1.45,0,0,1,0-2l11.76-11.76,1.08-1.08v-18a1.45,1.45,0,0,1,1.45-1.45h18l1.08-1.08L749,704.11a1.41,1.41,0,0,1,1-.42m0-3.69a5.13,5.13,0,0,0-3.63,1.5L734.85,713H718.4a5.14,5.14,0,0,0-5.14,5.13v16.45L701.5,746.37a5.14,5.14,0,0,0,0,7.26l11.76,11.76v16.22a5.14,5.14,0,0,0,5.14,5.14h16.22l11.75,11.75a5.14,5.14,0,0,0,7.26,0l11.75-11.75h16.47a5.14,5.14,0,0,0,5.13-5.14V765.15l11.52-11.52a5.14,5.14,0,0,0,0-7.26L787,734.85V718.16a5.13,5.13,0,0,0-5.13-5.13h-16.7L753.63,701.5A5.13,5.13,0,0,0,750,700Z"/><path d="M850,703.69a1.41,1.41,0,0,1,1,.42l11.53,11.52,1.08,1.08h18.22a1.45,1.45,0,0,1,1.45,1.45v18.22l1.07,1.08L895.89,749a1.45,1.45,0,0,1,0,2l-11.52,11.52-1.07,1.08v18a1.45,1.45,0,0,1-1.45,1.45h-18l-1.07,1.08L851,795.89a1.45,1.45,0,0,1-2,0l-11.76-11.75-1.07-1.08H818.4a1.45,1.45,0,0,1-1.45-1.45V763.86l-1.08-1.08L804.11,751a1.45,1.45,0,0,1,0-2l11.76-11.76,1.08-1.08v-18a1.45,1.45,0,0,1,1.45-1.45h18l1.08-1.08L849,704.11a1.41,1.41,0,0,1,1-.42m0-3.69a5.13,5.13,0,0,0-3.63,1.5L834.85,713H818.4a5.14,5.14,0,0,0-5.14,5.13v16.45L801.5,746.37a5.14,5.14,0,0,0,0,7.26l11.76,11.76v16.22a5.14,5.14,0,0,0,5.14,5.14h16.22l11.75,11.75a5.14,5.14,0,0,0,7.26,0l11.75-11.75h16.47a5.14,5.14,0,0,0,5.13-5.14V765.15l11.52-11.52a5.14,5.14,0,0,0,0-7.26L887,734.85V718.16a5.13,5.13,0,0,0-5.13-5.13h-16.7L853.63,701.5A5.13,5.13,0,0,0,850,700Z"/><path d="M950,703.69a1.41,1.41,0,0,1,1,.42l11.53,11.52,1.08,1.08h18.22a1.45,1.45,0,0,1,1.45,1.45v18.22l1.07,1.08L995.89,749a1.45,1.45,0,0,1,0,2l-11.52,11.52-1.07,1.08v18a1.45,1.45,0,0,1-1.45,1.45h-18l-1.07,1.08L951,795.89a1.45,1.45,0,0,1-2,0l-11.76-11.75-1.07-1.08H918.4a1.45,1.45,0,0,1-1.45-1.45V763.86l-1.08-1.08L904.11,751a1.45,1.45,0,0,1,0-2l11.76-11.76,1.08-1.08v-18a1.45,1.45,0,0,1,1.45-1.45h18l1.08-1.08L949,704.11a1.41,1.41,0,0,1,1-.42m0-3.69a5.13,5.13,0,0,0-3.63,1.5L934.85,713H918.4a5.14,5.14,0,0,0-5.14,5.13v16.45L901.5,746.37a5.14,5.14,0,0,0,0,7.26l11.76,11.76v16.22a5.14,5.14,0,0,0,5.14,5.14h16.22l11.75,11.75a5.14,5.14,0,0,0,7.26,0l11.75-11.75h16.47a5.14,5.14,0,0,0,5.13-5.14V765.15l11.52-11.52a5.14,5.14,0,0,0,0-7.26L987,734.85V718.16a5.13,5.13,0,0,0-5.13-5.13h-16.7L953.63,701.5A5.13,5.13,0,0,0,950,700Z"/><path d="M50,803.69a1.41,1.41,0,0,1,1,.42l11.53,11.52,1.08,1.08H81.85a1.45,1.45,0,0,1,1.45,1.45v18.22l1.07,1.08L95.89,849a1.45,1.45,0,0,1,0,2L84.37,862.54l-1.07,1.08v18a1.45,1.45,0,0,1-1.45,1.45h-18l-1.07,1.08L51,895.89a1.45,1.45,0,0,1-2,0L37.22,884.14l-1.07-1.08H18.4A1.45,1.45,0,0,1,17,881.61V863.86l-1.08-1.08L4.11,851a1.45,1.45,0,0,1,0-2l11.76-11.76L17,836.14v-18a1.45,1.45,0,0,1,1.45-1.45h18l1.08-1.08L49,804.11a1.41,1.41,0,0,1,1-.42M50,800a5.13,5.13,0,0,0-3.63,1.5L34.85,813H18.4a5.14,5.14,0,0,0-5.14,5.13v16.45L1.5,846.37a5.14,5.14,0,0,0,0,7.26l11.76,11.76v16.22a5.14,5.14,0,0,0,5.14,5.14H34.62L46.37,898.5a5.14,5.14,0,0,0,7.26,0l11.75-11.75H81.85A5.14,5.14,0,0,0,87,881.61V865.15L98.5,853.63a5.14,5.14,0,0,0,0-7.26L87,834.85V818.16A5.13,5.13,0,0,0,81.85,813H65.15L53.63,801.5A5.13,5.13,0,0,0,50,800Z"/><path d="M150,803.69a1.41,1.41,0,0,1,1,.42l11.53,11.52,1.08,1.08h18.22a1.45,1.45,0,0,1,1.45,1.45v18.22l1.07,1.08L195.89,849a1.45,1.45,0,0,1,0,2l-11.52,11.52-1.07,1.08v18a1.45,1.45,0,0,1-1.45,1.45h-18l-1.07,1.08L151,895.89a1.45,1.45,0,0,1-2,0l-11.76-11.75-1.07-1.08H118.4a1.45,1.45,0,0,1-1.45-1.45V863.86l-1.08-1.08L104.11,851a1.45,1.45,0,0,1,0-2l11.76-11.76,1.08-1.08v-18a1.45,1.45,0,0,1,1.45-1.45h18l1.08-1.08L149,804.11a1.41,1.41,0,0,1,1-.42m0-3.69a5.13,5.13,0,0,0-3.63,1.5L134.85,813H118.4a5.14,5.14,0,0,0-5.14,5.13v16.45L101.5,846.37a5.14,5.14,0,0,0,0,7.26l11.76,11.76v16.22a5.14,5.14,0,0,0,5.14,5.14h16.22l11.75,11.75a5.14,5.14,0,0,0,7.26,0l11.75-11.75h16.47a5.14,5.14,0,0,0,5.13-5.14V865.15l11.52-11.52a5.14,5.14,0,0,0,0-7.26L187,834.85V818.16a5.13,5.13,0,0,0-5.13-5.13h-16.7L153.63,801.5A5.13,5.13,0,0,0,150,800Z"/><path d="M250,803.69a1.41,1.41,0,0,1,1,.42l11.53,11.52,1.08,1.08h18.22a1.45,1.45,0,0,1,1.45,1.45v18.22l1.07,1.08L295.89,849a1.45,1.45,0,0,1,0,2l-11.52,11.52-1.07,1.08v18a1.45,1.45,0,0,1-1.45,1.45h-18l-1.07,1.08L251,895.89a1.45,1.45,0,0,1-2,0l-11.76-11.75-1.07-1.08H218.4a1.45,1.45,0,0,1-1.45-1.45V863.86l-1.08-1.08L204.11,851a1.45,1.45,0,0,1,0-2l11.76-11.76,1.08-1.08v-18a1.45,1.45,0,0,1,1.45-1.45h18l1.08-1.08L249,804.11a1.41,1.41,0,0,1,1-.42m0-3.69a5.13,5.13,0,0,0-3.63,1.5L234.85,813H218.4a5.14,5.14,0,0,0-5.14,5.13v16.45L201.5,846.37a5.14,5.14,0,0,0,0,7.26l11.76,11.76v16.22a5.14,5.14,0,0,0,5.14,5.14h16.22l11.75,11.75a5.14,5.14,0,0,0,7.26,0l11.75-11.75h16.47a5.14,5.14,0,0,0,5.13-5.14V865.15l11.52-11.52a5.14,5.14,0,0,0,0-7.26L287,834.85V818.16a5.13,5.13,0,0,0-5.13-5.13h-16.7L253.63,801.5A5.13,5.13,0,0,0,250,800Z"/><path d="M350,803.69a1.41,1.41,0,0,1,1,.42l11.53,11.52,1.08,1.08h18.22a1.45,1.45,0,0,1,1.45,1.45v18.22l1.07,1.08L395.89,849a1.45,1.45,0,0,1,0,2l-11.52,11.52-1.07,1.08v18a1.45,1.45,0,0,1-1.45,1.45h-18l-1.07,1.08L351,895.89a1.45,1.45,0,0,1-2,0l-11.76-11.75-1.07-1.08H318.4a1.45,1.45,0,0,1-1.45-1.45V863.86l-1.08-1.08L304.11,851a1.45,1.45,0,0,1,0-2l11.76-11.76,1.08-1.08v-18a1.45,1.45,0,0,1,1.45-1.45h18l1.08-1.08L349,804.11a1.41,1.41,0,0,1,1-.42m0-3.69a5.13,5.13,0,0,0-3.63,1.5L334.85,813H318.4a5.14,5.14,0,0,0-5.14,5.13v16.45L301.5,846.37a5.14,5.14,0,0,0,0,7.26l11.76,11.76v16.22a5.14,5.14,0,0,0,5.14,5.14h16.22l11.75,11.75a5.14,5.14,0,0,0,7.26,0l11.75-11.75h16.47a5.14,5.14,0,0,0,5.13-5.14V865.15l11.52-11.52a5.14,5.14,0,0,0,0-7.26L387,834.85V818.16a5.13,5.13,0,0,0-5.13-5.13h-16.7L353.63,801.5A5.13,5.13,0,0,0,350,800Z"/><path d="M450,803.69a1.41,1.41,0,0,1,1,.42l11.53,11.52,1.08,1.08h18.22a1.45,1.45,0,0,1,1.45,1.45v18.22l1.07,1.08L495.89,849a1.45,1.45,0,0,1,0,2l-11.52,11.52-1.07,1.08v18a1.45,1.45,0,0,1-1.45,1.45h-18l-1.07,1.08L451,895.89a1.45,1.45,0,0,1-2,0l-11.76-11.75-1.07-1.08H418.4a1.45,1.45,0,0,1-1.45-1.45V863.86l-1.08-1.08L404.11,851a1.45,1.45,0,0,1,0-2l11.76-11.76,1.08-1.08v-18a1.45,1.45,0,0,1,1.45-1.45h18l1.08-1.08L449,804.11a1.41,1.41,0,0,1,1-.42m0-3.69a5.13,5.13,0,0,0-3.63,1.5L434.85,813H418.4a5.14,5.14,0,0,0-5.14,5.13v16.45L401.5,846.37a5.14,5.14,0,0,0,0,7.26l11.76,11.76v16.22a5.14,5.14,0,0,0,5.14,5.14h16.22l11.75,11.75a5.14,5.14,0,0,0,7.26,0l11.75-11.75h16.47a5.14,5.14,0,0,0,5.13-5.14V865.15l11.52-11.52a5.14,5.14,0,0,0,0-7.26L487,834.85V818.16a5.13,5.13,0,0,0-5.13-5.13h-16.7L453.63,801.5A5.13,5.13,0,0,0,450,800Z"/><path d="M550,803.69a1.41,1.41,0,0,1,1,.42l11.53,11.52,1.08,1.08h18.22a1.45,1.45,0,0,1,1.45,1.45v18.22l1.07,1.08L595.89,849a1.45,1.45,0,0,1,0,2l-11.52,11.52-1.07,1.08v18a1.45,1.45,0,0,1-1.45,1.45h-18l-1.07,1.08L551,895.89a1.45,1.45,0,0,1-2,0l-11.76-11.75-1.07-1.08H518.4a1.45,1.45,0,0,1-1.45-1.45V863.86l-1.08-1.08L504.11,851a1.45,1.45,0,0,1,0-2l11.76-11.76,1.08-1.08v-18a1.45,1.45,0,0,1,1.45-1.45h18l1.08-1.08L549,804.11a1.41,1.41,0,0,1,1-.42m0-3.69a5.13,5.13,0,0,0-3.63,1.5L534.85,813H518.4a5.14,5.14,0,0,0-5.14,5.13v16.45L501.5,846.37a5.14,5.14,0,0,0,0,7.26l11.76,11.76v16.22a5.14,5.14,0,0,0,5.14,5.14h16.22l11.75,11.75a5.14,5.14,0,0,0,7.26,0l11.75-11.75h16.47a5.14,5.14,0,0,0,5.13-5.14V865.15l11.52-11.52a5.14,5.14,0,0,0,0-7.26L587,834.85V818.16a5.13,5.13,0,0,0-5.13-5.13h-16.7L553.63,801.5A5.13,5.13,0,0,0,550,800Z"/><path d="M650,803.69a1.41,1.41,0,0,1,1,.42l11.53,11.52,1.08,1.08h18.22a1.45,1.45,0,0,1,1.45,1.45v18.22l1.07,1.08L695.89,849a1.45,1.45,0,0,1,0,2l-11.52,11.52-1.07,1.08v18a1.45,1.45,0,0,1-1.45,1.45h-18l-1.07,1.08L651,895.89a1.45,1.45,0,0,1-2,0l-11.76-11.75-1.07-1.08H618.4a1.45,1.45,0,0,1-1.45-1.45V863.86l-1.08-1.08L604.11,851a1.45,1.45,0,0,1,0-2l11.76-11.76,1.08-1.08v-18a1.45,1.45,0,0,1,1.45-1.45h18l1.08-1.08L649,804.11a1.41,1.41,0,0,1,1-.42m0-3.69a5.13,5.13,0,0,0-3.63,1.5L634.85,813H618.4a5.14,5.14,0,0,0-5.14,5.13v16.45L601.5,846.37a5.14,5.14,0,0,0,0,7.26l11.76,11.76v16.22a5.14,5.14,0,0,0,5.14,5.14h16.22l11.75,11.75a5.14,5.14,0,0,0,7.26,0l11.75-11.75h16.47a5.14,5.14,0,0,0,5.13-5.14V865.15l11.52-11.52a5.14,5.14,0,0,0,0-7.26L687,834.85V818.16a5.13,5.13,0,0,0-5.13-5.13h-16.7L653.63,801.5A5.13,5.13,0,0,0,650,800Z"/><path d="M750,803.69a1.41,1.41,0,0,1,1,.42l11.53,11.52,1.08,1.08h18.22a1.45,1.45,0,0,1,1.45,1.45v18.22l1.07,1.08L795.89,849a1.45,1.45,0,0,1,0,2l-11.52,11.52-1.07,1.08v18a1.45,1.45,0,0,1-1.45,1.45h-18l-1.07,1.08L751,895.89a1.45,1.45,0,0,1-2,0l-11.76-11.75-1.07-1.08H718.4a1.45,1.45,0,0,1-1.45-1.45V863.86l-1.08-1.08L704.11,851a1.45,1.45,0,0,1,0-2l11.76-11.76,1.08-1.08v-18a1.45,1.45,0,0,1,1.45-1.45h18l1.08-1.08L749,804.11a1.41,1.41,0,0,1,1-.42m0-3.69a5.13,5.13,0,0,0-3.63,1.5L734.85,813H718.4a5.14,5.14,0,0,0-5.14,5.13v16.45L701.5,846.37a5.14,5.14,0,0,0,0,7.26l11.76,11.76v16.22a5.14,5.14,0,0,0,5.14,5.14h16.22l11.75,11.75a5.14,5.14,0,0,0,7.26,0l11.75-11.75h16.47a5.14,5.14,0,0,0,5.13-5.14V865.15l11.52-11.52a5.14,5.14,0,0,0,0-7.26L787,834.85V818.16a5.13,5.13,0,0,0-5.13-5.13h-16.7L753.63,801.5A5.13,5.13,0,0,0,750,800Z"/><path d="M850,803.69a1.41,1.41,0,0,1,1,.42l11.53,11.52,1.08,1.08h18.22a1.45,1.45,0,0,1,1.45,1.45v18.22l1.07,1.08L895.89,849a1.45,1.45,0,0,1,0,2l-11.52,11.52-1.07,1.08v18a1.45,1.45,0,0,1-1.45,1.45h-18l-1.07,1.08L851,895.89a1.45,1.45,0,0,1-2,0l-11.76-11.75-1.07-1.08H818.4a1.45,1.45,0,0,1-1.45-1.45V863.86l-1.08-1.08L804.11,851a1.45,1.45,0,0,1,0-2l11.76-11.76,1.08-1.08v-18a1.45,1.45,0,0,1,1.45-1.45h18l1.08-1.08L849,804.11a1.41,1.41,0,0,1,1-.42m0-3.69a5.13,5.13,0,0,0-3.63,1.5L834.85,813H818.4a5.14,5.14,0,0,0-5.14,5.13v16.45L801.5,846.37a5.14,5.14,0,0,0,0,7.26l11.76,11.76v16.22a5.14,5.14,0,0,0,5.14,5.14h16.22l11.75,11.75a5.14,5.14,0,0,0,7.26,0l11.75-11.75h16.47a5.14,5.14,0,0,0,5.13-5.14V865.15l11.52-11.52a5.14,5.14,0,0,0,0-7.26L887,834.85V818.16a5.13,5.13,0,0,0-5.13-5.13h-16.7L853.63,801.5A5.13,5.13,0,0,0,850,800Z"/><path d="M950,803.69a1.41,1.41,0,0,1,1,.42l11.53,11.52,1.08,1.08h18.22a1.45,1.45,0,0,1,1.45,1.45v18.22l1.07,1.08L995.89,849a1.45,1.45,0,0,1,0,2l-11.52,11.52-1.07,1.08v18a1.45,1.45,0,0,1-1.45,1.45h-18l-1.07,1.08L951,895.89a1.45,1.45,0,0,1-2,0l-11.76-11.75-1.07-1.08H918.4a1.45,1.45,0,0,1-1.45-1.45V863.86l-1.08-1.08L904.11,851a1.45,1.45,0,0,1,0-2l11.76-11.76,1.08-1.08v-18a1.45,1.45,0,0,1,1.45-1.45h18l1.08-1.08L949,804.11a1.41,1.41,0,0,1,1-.42m0-3.69a5.13,5.13,0,0,0-3.63,1.5L934.85,813H918.4a5.14,5.14,0,0,0-5.14,5.13v16.45L901.5,846.37a5.14,5.14,0,0,0,0,7.26l11.76,11.76v16.22a5.14,5.14,0,0,0,5.14,5.14h16.22l11.75,11.75a5.14,5.14,0,0,0,7.26,0l11.75-11.75h16.47a5.14,5.14,0,0,0,5.13-5.14V865.15l11.52-11.52a5.14,5.14,0,0,0,0-7.26L987,834.85V818.16a5.13,5.13,0,0,0-5.13-5.13h-16.7L953.63,801.5A5.13,5.13,0,0,0,950,800Z"/><path d="M50,903.69a1.41,1.41,0,0,1,1,.42l11.53,11.52,1.08,1.08H81.85a1.45,1.45,0,0,1,1.45,1.45v18.22l1.07,1.08L95.89,949a1.45,1.45,0,0,1,0,2L84.37,962.54l-1.07,1.08v18a1.45,1.45,0,0,1-1.45,1.45h-18l-1.07,1.08L51,995.89a1.45,1.45,0,0,1-2,0L37.22,984.14l-1.07-1.08H18.4A1.45,1.45,0,0,1,17,981.61V963.86l-1.08-1.08L4.11,951a1.45,1.45,0,0,1,0-2l11.76-11.76L17,936.14v-18a1.45,1.45,0,0,1,1.45-1.45h18l1.08-1.08L49,904.11a1.41,1.41,0,0,1,1-.42M50,900a5.13,5.13,0,0,0-3.63,1.5L34.85,913H18.4a5.14,5.14,0,0,0-5.14,5.13v16.45L1.5,946.37a5.14,5.14,0,0,0,0,7.26l11.76,11.76v16.22a5.14,5.14,0,0,0,5.14,5.14H34.62L46.37,998.5a5.14,5.14,0,0,0,7.26,0l11.75-11.75H81.85A5.14,5.14,0,0,0,87,981.61V965.15L98.5,953.63a5.14,5.14,0,0,0,0-7.26L87,934.85V918.16A5.13,5.13,0,0,0,81.85,913H65.15L53.63,901.5A5.13,5.13,0,0,0,50,900Z"/><path d="M150,903.69a1.41,1.41,0,0,1,1,.42l11.53,11.52,1.08,1.08h18.22a1.45,1.45,0,0,1,1.45,1.45v18.22l1.07,1.08L195.89,949a1.45,1.45,0,0,1,0,2l-11.52,11.52-1.07,1.08v18a1.45,1.45,0,0,1-1.45,1.45h-18l-1.07,1.08L151,995.89a1.45,1.45,0,0,1-2,0l-11.76-11.75-1.07-1.08H118.4a1.45,1.45,0,0,1-1.45-1.45V963.86l-1.08-1.08L104.11,951a1.45,1.45,0,0,1,0-2l11.76-11.76,1.08-1.08v-18a1.45,1.45,0,0,1,1.45-1.45h18l1.08-1.08L149,904.11a1.41,1.41,0,0,1,1-.42m0-3.69a5.13,5.13,0,0,0-3.63,1.5L134.85,913H118.4a5.14,5.14,0,0,0-5.14,5.13v16.45L101.5,946.37a5.14,5.14,0,0,0,0,7.26l11.76,11.76v16.22a5.14,5.14,0,0,0,5.14,5.14h16.22l11.75,11.75a5.14,5.14,0,0,0,7.26,0l11.75-11.75h16.47a5.14,5.14,0,0,0,5.13-5.14V965.15l11.52-11.52a5.14,5.14,0,0,0,0-7.26L187,934.85V918.16a5.13,5.13,0,0,0-5.13-5.13h-16.7L153.63,901.5A5.13,5.13,0,0,0,150,900Z"/><path d="M250,903.69a1.41,1.41,0,0,1,1,.42l11.53,11.52,1.08,1.08h18.22a1.45,1.45,0,0,1,1.45,1.45v18.22l1.07,1.08L295.89,949a1.45,1.45,0,0,1,0,2l-11.52,11.52-1.07,1.08v18a1.45,1.45,0,0,1-1.45,1.45h-18l-1.07,1.08L251,995.89a1.45,1.45,0,0,1-2,0l-11.76-11.75-1.07-1.08H218.4a1.45,1.45,0,0,1-1.45-1.45V963.86l-1.08-1.08L204.11,951a1.45,1.45,0,0,1,0-2l11.76-11.76,1.08-1.08v-18a1.45,1.45,0,0,1,1.45-1.45h18l1.08-1.08L249,904.11a1.41,1.41,0,0,1,1-.42m0-3.69a5.13,5.13,0,0,0-3.63,1.5L234.85,913H218.4a5.14,5.14,0,0,0-5.14,5.13v16.45L201.5,946.37a5.14,5.14,0,0,0,0,7.26l11.76,11.76v16.22a5.14,5.14,0,0,0,5.14,5.14h16.22l11.75,11.75a5.14,5.14,0,0,0,7.26,0l11.75-11.75h16.47a5.14,5.14,0,0,0,5.13-5.14V965.15l11.52-11.52a5.14,5.14,0,0,0,0-7.26L287,934.85V918.16a5.13,5.13,0,0,0-5.13-5.13h-16.7L253.63,901.5A5.13,5.13,0,0,0,250,900Z"/><path d="M350,903.69a1.41,1.41,0,0,1,1,.42l11.53,11.52,1.08,1.08h18.22a1.45,1.45,0,0,1,1.45,1.45v18.22l1.07,1.08L395.89,949a1.45,1.45,0,0,1,0,2l-11.52,11.52-1.07,1.08v18a1.45,1.45,0,0,1-1.45,1.45h-18l-1.07,1.08L351,995.89a1.45,1.45,0,0,1-2,0l-11.76-11.75-1.07-1.08H318.4a1.45,1.45,0,0,1-1.45-1.45V963.86l-1.08-1.08L304.11,951a1.45,1.45,0,0,1,0-2l11.76-11.76,1.08-1.08v-18a1.45,1.45,0,0,1,1.45-1.45h18l1.08-1.08L349,904.11a1.41,1.41,0,0,1,1-.42m0-3.69a5.13,5.13,0,0,0-3.63,1.5L334.85,913H318.4a5.14,5.14,0,0,0-5.14,5.13v16.45L301.5,946.37a5.14,5.14,0,0,0,0,7.26l11.76,11.76v16.22a5.14,5.14,0,0,0,5.14,5.14h16.22l11.75,11.75a5.14,5.14,0,0,0,7.26,0l11.75-11.75h16.47a5.14,5.14,0,0,0,5.13-5.14V965.15l11.52-11.52a5.14,5.14,0,0,0,0-7.26L387,934.85V918.16a5.13,5.13,0,0,0-5.13-5.13h-16.7L353.63,901.5A5.13,5.13,0,0,0,350,900Z"/><path d="M450,903.69a1.41,1.41,0,0,1,1,.42l11.53,11.52,1.08,1.08h18.22a1.45,1.45,0,0,1,1.45,1.45v18.22l1.07,1.08L495.89,949a1.45,1.45,0,0,1,0,2l-11.52,11.52-1.07,1.08v18a1.45,1.45,0,0,1-1.45,1.45h-18l-1.07,1.08L451,995.89a1.45,1.45,0,0,1-2,0l-11.76-11.75-1.07-1.08H418.4a1.45,1.45,0,0,1-1.45-1.45V963.86l-1.08-1.08L404.11,951a1.45,1.45,0,0,1,0-2l11.76-11.76,1.08-1.08v-18a1.45,1.45,0,0,1,1.45-1.45h18l1.08-1.08L449,904.11a1.41,1.41,0,0,1,1-.42m0-3.69a5.13,5.13,0,0,0-3.63,1.5L434.85,913H418.4a5.14,5.14,0,0,0-5.14,5.13v16.45L401.5,946.37a5.14,5.14,0,0,0,0,7.26l11.76,11.76v16.22a5.14,5.14,0,0,0,5.14,5.14h16.22l11.75,11.75a5.14,5.14,0,0,0,7.26,0l11.75-11.75h16.47a5.14,5.14,0,0,0,5.13-5.14V965.15l11.52-11.52a5.14,5.14,0,0,0,0-7.26L487,934.85V918.16a5.13,5.13,0,0,0-5.13-5.13h-16.7L453.63,901.5A5.13,5.13,0,0,0,450,900Z"/><path d="M550,903.69a1.41,1.41,0,0,1,1,.42l11.53,11.52,1.08,1.08h18.22a1.45,1.45,0,0,1,1.45,1.45v18.22l1.07,1.08L595.89,949a1.45,1.45,0,0,1,0,2l-11.52,11.52-1.07,1.08v18a1.45,1.45,0,0,1-1.45,1.45h-18l-1.07,1.08L551,995.89a1.45,1.45,0,0,1-2,0l-11.76-11.75-1.07-1.08H518.4a1.45,1.45,0,0,1-1.45-1.45V963.86l-1.08-1.08L504.11,951a1.45,1.45,0,0,1,0-2l11.76-11.76,1.08-1.08v-18a1.45,1.45,0,0,1,1.45-1.45h18l1.08-1.08L549,904.11a1.41,1.41,0,0,1,1-.42m0-3.69a5.13,5.13,0,0,0-3.63,1.5L534.85,913H518.4a5.14,5.14,0,0,0-5.14,5.13v16.45L501.5,946.37a5.14,5.14,0,0,0,0,7.26l11.76,11.76v16.22a5.14,5.14,0,0,0,5.14,5.14h16.22l11.75,11.75a5.14,5.14,0,0,0,7.26,0l11.75-11.75h16.47a5.14,5.14,0,0,0,5.13-5.14V965.15l11.52-11.52a5.14,5.14,0,0,0,0-7.26L587,934.85V918.16a5.13,5.13,0,0,0-5.13-5.13h-16.7L553.63,901.5A5.13,5.13,0,0,0,550,900Z"/><path d="M650,903.69a1.41,1.41,0,0,1,1,.42l11.53,11.52,1.08,1.08h18.22a1.45,1.45,0,0,1,1.45,1.45v18.22l1.07,1.08L695.89,949a1.45,1.45,0,0,1,0,2l-11.52,11.52-1.07,1.08v18a1.45,1.45,0,0,1-1.45,1.45h-18l-1.07,1.08L651,995.89a1.45,1.45,0,0,1-2,0l-11.76-11.75-1.07-1.08H618.4a1.45,1.45,0,0,1-1.45-1.45V963.86l-1.08-1.08L604.11,951a1.45,1.45,0,0,1,0-2l11.76-11.76,1.08-1.08v-18a1.45,1.45,0,0,1,1.45-1.45h18l1.08-1.08L649,904.11a1.41,1.41,0,0,1,1-.42m0-3.69a5.13,5.13,0,0,0-3.63,1.5L634.85,913H618.4a5.14,5.14,0,0,0-5.14,5.13v16.45L601.5,946.37a5.14,5.14,0,0,0,0,7.26l11.76,11.76v16.22a5.14,5.14,0,0,0,5.14,5.14h16.22l11.75,11.75a5.14,5.14,0,0,0,7.26,0l11.75-11.75h16.47a5.14,5.14,0,0,0,5.13-5.14V965.15l11.52-11.52a5.14,5.14,0,0,0,0-7.26L687,934.85V918.16a5.13,5.13,0,0,0-5.13-5.13h-16.7L653.63,901.5A5.13,5.13,0,0,0,650,900Z"/><path d="M750,903.69a1.41,1.41,0,0,1,1,.42l11.53,11.52,1.08,1.08h18.22a1.45,1.45,0,0,1,1.45,1.45v18.22l1.07,1.08L795.89,949a1.45,1.45,0,0,1,0,2l-11.52,11.52-1.07,1.08v18a1.45,1.45,0,0,1-1.45,1.45h-18l-1.07,1.08L751,995.89a1.45,1.45,0,0,1-2,0l-11.76-11.75-1.07-1.08H718.4a1.45,1.45,0,0,1-1.45-1.45V963.86l-1.08-1.08L704.11,951a1.45,1.45,0,0,1,0-2l11.76-11.76,1.08-1.08v-18a1.45,1.45,0,0,1,1.45-1.45h18l1.08-1.08L749,904.11a1.41,1.41,0,0,1,1-.42m0-3.69a5.13,5.13,0,0,0-3.63,1.5L734.85,913H718.4a5.14,5.14,0,0,0-5.14,5.13v16.45L701.5,946.37a5.14,5.14,0,0,0,0,7.26l11.76,11.76v16.22a5.14,5.14,0,0,0,5.14,5.14h16.22l11.75,11.75a5.14,5.14,0,0,0,7.26,0l11.75-11.75h16.47a5.14,5.14,0,0,0,5.13-5.14V965.15l11.52-11.52a5.14,5.14,0,0,0,0-7.26L787,934.85V918.16a5.13,5.13,0,0,0-5.13-5.13h-16.7L753.63,901.5A5.13,5.13,0,0,0,750,900Z"/><path d="M850,903.69a1.41,1.41,0,0,1,1,.42l11.53,11.52,1.08,1.08h18.22a1.45,1.45,0,0,1,1.45,1.45v18.22l1.07,1.08L895.89,949a1.45,1.45,0,0,1,0,2l-11.52,11.52-1.07,1.08v18a1.45,1.45,0,0,1-1.45,1.45h-18l-1.07,1.08L851,995.89a1.45,1.45,0,0,1-2,0l-11.76-11.75-1.07-1.08H818.4a1.45,1.45,0,0,1-1.45-1.45V963.86l-1.08-1.08L804.11,951a1.45,1.45,0,0,1,0-2l11.76-11.76,1.08-1.08v-18a1.45,1.45,0,0,1,1.45-1.45h18l1.08-1.08L849,904.11a1.41,1.41,0,0,1,1-.42m0-3.69a5.13,5.13,0,0,0-3.63,1.5L834.85,913H818.4a5.14,5.14,0,0,0-5.14,5.13v16.45L801.5,946.37a5.14,5.14,0,0,0,0,7.26l11.76,11.76v16.22a5.14,5.14,0,0,0,5.14,5.14h16.22l11.75,11.75a5.14,5.14,0,0,0,7.26,0l11.75-11.75h16.47a5.14,5.14,0,0,0,5.13-5.14V965.15l11.52-11.52a5.14,5.14,0,0,0,0-7.26L887,934.85V918.16a5.13,5.13,0,0,0-5.13-5.13h-16.7L853.63,901.5A5.13,5.13,0,0,0,850,900Z"/><path d="M950,903.69a1.41,1.41,0,0,1,1,.42l11.53,11.52,1.08,1.08h18.22a1.45,1.45,0,0,1,1.45,1.45v18.22l1.07,1.08L995.89,949a1.45,1.45,0,0,1,0,2l-11.52,11.52-1.07,1.08v18a1.45,1.45,0,0,1-1.45,1.45h-18l-1.07,1.08L951,995.89a1.45,1.45,0,0,1-2,0l-11.76-11.75-1.07-1.08H918.4a1.45,1.45,0,0,1-1.45-1.45V963.86l-1.08-1.08L904.11,951a1.45,1.45,0,0,1,0-2l11.76-11.76,1.08-1.08v-18a1.45,1.45,0,0,1,1.45-1.45h18l1.08-1.08L949,904.11a1.41,1.41,0,0,1,1-.42m0-3.69a5.13,5.13,0,0,0-3.63,1.5L934.85,913H918.4a5.14,5.14,0,0,0-5.14,5.13v16.45L901.5,946.37a5.14,5.14,0,0,0,0,7.26l11.76,11.76v16.22a5.14,5.14,0,0,0,5.14,5.14h16.22l11.75,11.75a5.14,5.14,0,0,0,7.26,0l11.75-11.75h16.47a5.14,5.14,0,0,0,5.13-5.14V965.15l11.52-11.52a5.14,5.14,0,0,0,0-7.26L987,934.85V918.16a5.13,5.13,0,0,0-5.13-5.13h-16.7L953.63,901.5A5.13,5.13,0,0,0,950,900Z"/></g></g></svg>