<svg xmlns="http://www.w3.org/2000/svg" viewBox="0 0 116 116"><defs><style>.cls-1{fill:#fff;}</style></defs><g id="Ebene_2" data-name="Ebene 2"><g id="Ebene_1-2" data-name="Ebene 1"><path class="cls-1" d="M58,116a58,58,0,1,1,58-58A58.07,58.07,0,0,1,58,116ZM58,4a54,54,0,1,0,54,54A54.06,54.06,0,0,0,58,4Z"/><path class="cls-1" d="M57.75,90l-3.1-2.79q-8-7.33-13.21-12.65A92.92,92.92,0,0,1,33.13,65a31.37,31.37,0,0,1-4.34-7.59,19.8,19.8,0,0,1-1.25-6.87A15.61,15.61,0,0,1,43.4,34.65a16.11,16.11,0,0,1,8,2,19.32,19.32,0,0,1,6.38,5.89,21.84,21.84,0,0,1,6.72-6,15.7,15.7,0,0,1,7.63-1.93A15.61,15.61,0,0,1,88,50.58a19.79,19.79,0,0,1-1.24,6.87A31.37,31.37,0,0,1,82.37,65a94.17,94.17,0,0,1-8.31,9.52q-5.2,5.32-13.22,12.65Zm0-6q7.62-7,12.57-12a97.81,97.81,0,0,0,7.85-8.8,28.8,28.8,0,0,0,4.08-6.72,15.81,15.81,0,0,0,1.17-5.89,11.14,11.14,0,0,0-3.17-8.19,11,11,0,0,0-8.15-3.21,12.08,12.08,0,0,0-7.18,2.38,17,17,0,0,0-5.36,6.68h-3.7a16.71,16.71,0,0,0-5.28-6.64,12,12,0,0,0-7.18-2.42,11,11,0,0,0-8.15,3.21,11.15,11.15,0,0,0-3.18,8.19,15.94,15.94,0,0,0,1.18,5.93,29.41,29.41,0,0,0,4.07,6.8,91.18,91.18,0,0,0,7.89,8.79Q50.21,77.1,57.75,84Z"/></g></g></svg>