<svg xmlns="http://www.w3.org/2000/svg" viewBox="0 0 116 116"><defs><style>.cls-1{fill:#fff;}</style></defs><g id="Ebene_2" data-name="Ebene 2"><g id="Ebene_3" data-name="Ebene 3"><rect class="cls-1" x="1.93" y="1.93" width="112.13" height="112.13" rx="7.01"/><path d="M107.29,116H8.71A8.72,8.72,0,0,1,0,107.29V8.71A8.72,8.72,0,0,1,8.71,0h98.58A8.72,8.72,0,0,1,116,8.71v98.58A8.72,8.72,0,0,1,107.29,116ZM8.71,3.87A4.84,4.84,0,0,0,3.87,8.71v98.58a4.84,4.84,0,0,0,4.84,4.84h98.58a4.84,4.84,0,0,0,4.84-4.84V8.71a4.84,4.84,0,0,0-4.84-4.84Z"/><rect x="1.93" y="17.4" width="112.13" height="3.87"/><rect x="16.43" y="35.77" width="83.13" height="3.87"/><rect x="16.43" y="52.2" width="83.13" height="3.87"/><rect x="16.43" y="69.6" width="57.03" height="3.87"/><rect x="16.43" y="88.93" width="21.27" height="3.87"/></g></g></svg>