<svg xmlns="http://www.w3.org/2000/svg" xmlns:xlink="http://www.w3.org/1999/xlink" viewBox="0 0 563.43 665.73"><defs><style>.cls-1{fill:url(#Unbenannter_Verlauf_44);}.cls-2{fill:url(#Unbenannter_Verlauf_41);}.cls-3{fill:url(#Unbenannter_Verlauf_2);}.cls-4{fill:#fff;}.cls-5{fill:url(#Unbenannter_Verlauf_2-2);}.cls-13,.cls-14,.cls-15,.cls-6,.cls-7,.cls-8{stroke:#bab4a8;stroke-width:0.1px;}.cls-10,.cls-13,.cls-14,.cls-15,.cls-6,.cls-7,.cls-8{stroke-miterlimit:10;}.cls-6{fill:url(#Unbenannter_Verlauf_26);}.cls-7{fill:url(#Unbenannter_Verlauf_26-2);}.cls-8{fill:url(#Unbenannter_Verlauf_26-3);}.cls-9{fill:url(#Unbenannter_Verlauf_2-3);}.cls-10,.cls-11{fill:none;}.cls-10{stroke:#ea1313;}.cls-12{fill:url(#Unbenannter_Verlauf_2-4);}.cls-13{fill:url(#Unbenannter_Verlauf_26-4);}.cls-14{fill:url(#Unbenannter_Verlauf_26-5);}.cls-15{fill:url(#Unbenannter_Verlauf_26-6);}.cls-16{fill:url(#Unbenannter_Verlauf_2-5);}.cls-17{opacity:0.23;}.cls-18{fill:url(#Unbenannter_Verlauf_41-2);}.cls-19{fill:url(#Unbenannter_Verlauf_2-6);}.cls-20{fill:url(#Unbenannter_Verlauf_2-7);}.cls-21{fill:url(#Unbenannter_Verlauf_2-8);}</style><radialGradient id="Unbenannter_Verlauf_44" cx="543.94" cy="643.96" r="152.82" gradientTransform="translate(-257 391.1) rotate(0.92) scale(1 0.12)" gradientUnits="userSpaceOnUse"><stop offset="0" stop-color="#000402" stop-opacity="0.4"/><stop offset="1" stop-color="#009245" stop-opacity="0"/></radialGradient><linearGradient id="Unbenannter_Verlauf_41" x1="543.12" y1="176.56" x2="533.77" y2="556.54" gradientUnits="userSpaceOnUse"><stop offset="0" stop-color="#009245"/><stop offset="0.66" stop-color="#37b44a" stop-opacity="0.8"/><stop offset="0.67" stop-color="#37b44a" stop-opacity="0.66"/><stop offset="0.69" stop-color="#37b44a" stop-opacity="0.48"/><stop offset="0.72" stop-color="#37b44a" stop-opacity="0.33"/><stop offset="0.74" stop-color="#37b44a" stop-opacity="0.21"/><stop offset="0.77" stop-color="#37b44a" stop-opacity="0.11"/><stop offset="0.81" stop-color="#37b44a" stop-opacity="0.05"/><stop offset="0.86" stop-color="#37b44a" stop-opacity="0.01"/><stop offset="1" stop-color="#37b44a" stop-opacity="0"/></linearGradient><linearGradient id="Unbenannter_Verlauf_2" x1="532.95" y1="307.73" x2="543.08" y2="517.4" gradientUnits="userSpaceOnUse"><stop offset="0" stop-color="#009245"/><stop offset="1" stop-color="#32704a"/></linearGradient><linearGradient id="Unbenannter_Verlauf_2-2" x1="392.43" y1="629.32" x2="403.52" y2="589.54" xlink:href="#Unbenannter_Verlauf_2"/><linearGradient id="Unbenannter_Verlauf_26" x1="383.16" y1="599.21" x2="337.66" y2="555.63" gradientUnits="userSpaceOnUse"><stop offset="0" stop-color="#c4baa0"/><stop offset="1" stop-color="#e7dbbd"/></linearGradient><linearGradient id="Unbenannter_Verlauf_26-2" x1="406.03" y1="635.83" x2="425.92" y2="565.76" xlink:href="#Unbenannter_Verlauf_26"/><linearGradient id="Unbenannter_Verlauf_26-3" x1="399.77" y1="632.77" x2="465.1" y2="545.35" xlink:href="#Unbenannter_Verlauf_26"/><linearGradient id="Unbenannter_Verlauf_2-3" x1="530.64" y1="626.33" x2="532.87" y2="609.41" xlink:href="#Unbenannter_Verlauf_2"/><linearGradient id="Unbenannter_Verlauf_2-4" x1="169.71" y1="629.32" x2="180.8" y2="589.54" gradientTransform="matrix(-1, 0, 0, 1, 857.28, 0)" xlink:href="#Unbenannter_Verlauf_2"/><linearGradient id="Unbenannter_Verlauf_26-4" x1="160.44" y1="599.21" x2="114.94" y2="555.63" gradientTransform="matrix(-1, 0, 0, 1, 857.28, 0)" xlink:href="#Unbenannter_Verlauf_26"/><linearGradient id="Unbenannter_Verlauf_26-5" x1="183.31" y1="635.83" x2="203.2" y2="565.76" gradientTransform="matrix(-1, 0, 0, 1, 857.28, 0)" xlink:href="#Unbenannter_Verlauf_26"/><linearGradient id="Unbenannter_Verlauf_26-6" x1="177.03" y1="632.79" x2="242.29" y2="545.47" gradientTransform="matrix(-1, 0, 0, 1, 857.28, 0)" xlink:href="#Unbenannter_Verlauf_26"/><linearGradient id="Unbenannter_Verlauf_2-5" x1="307.92" y1="626.33" x2="310.15" y2="609.41" gradientTransform="matrix(-1, 0, 0, 1, 857.28, 0)" xlink:href="#Unbenannter_Verlauf_2"/><linearGradient id="Unbenannter_Verlauf_41-2" x1="542.41" y1="205.63" x2="534.23" y2="537.64" xlink:href="#Unbenannter_Verlauf_41"/><linearGradient id="Unbenannter_Verlauf_2-6" x1="462.21" y1="715.31" x2="496.28" y2="715.31" xlink:href="#Unbenannter_Verlauf_2"/><linearGradient id="Unbenannter_Verlauf_2-7" x1="504.63" y1="715.5" x2="569.11" y2="715.5" xlink:href="#Unbenannter_Verlauf_2"/><linearGradient id="Unbenannter_Verlauf_2-8" x1="575.9" y1="716.09" x2="650.56" y2="716.09" xlink:href="#Unbenannter_Verlauf_2"/></defs><g id="Ebene_6" data-name="Ebene 6"><ellipse class="cls-1" cx="286.86" cy="473.58" rx="262.97" ry="23.68"/></g><g id="Ebene_1" data-name="Ebene 1"><g id="_Radiale_Wiederholung_" data-name="&lt;Radiale Wiederholung&gt;"><path class="cls-2" d="M771.85,402.86,711.7,339.64l2.16-87.23a13.79,13.79,0,0,0-13.45-14.14l-87.24-2.17L553,172.89a13.8,13.8,0,0,0-19.51-.49l-63.22,60.16-87.23-2.16a13.79,13.79,0,0,0-14.14,13.45l-2.17,87.23-63.21,60.16a13.8,13.8,0,0,0-.49,19.51L363.21,474,361,561.2a13.8,13.8,0,0,0,13.46,14.14l87.23,2.17,60.15,63.21a13.82,13.82,0,0,0,19.52.49l63.22-60.16,87.23,2.16A13.79,13.79,0,0,0,706,569.76l2.17-87.23,63.21-60.16A13.8,13.8,0,0,0,771.85,402.86Zm-19.24,17.45-52.88,50.33-5.84,5.56-.2,8.06-1.81,73a11.55,11.55,0,0,1-11.83,11.25l-73-1.81-8-.2h0l-5.84,5.55-52.89,50.32A11.52,11.52,0,0,1,524,622l-50.33-52.88-5.56-5.84L460,563l-73-1.81a11.54,11.54,0,0,1-11.25-11.83l1.81-73,.2-8.05h0l-5.55-5.84-50.32-52.89a11.53,11.53,0,0,1,.4-16.32L375.18,343l5.84-5.56.2-8.06,1.81-73a11.54,11.54,0,0,1,11.83-11.26l73,1.81,3.41.08,4.64.12h0l5.84-5.55,52.89-50.32a11.53,11.53,0,0,1,16.32.41l50.33,52.88,2.35,2.48,3.21,3.36,8.06.2,73,1.81a11.56,11.56,0,0,1,11.26,11.83l-1.81,73-.2,8.05h0l5.55,5.84L753,404A11.53,11.53,0,0,1,752.61,420.31Z" transform="translate(-258.29 -168.6)"/></g></g><g id="Ebene_2" data-name="Ebene 2"><path class="cls-3" d="M610.88,438.55c0,17.73,9.61,14.38,9.61,27.11v56.92h-9.94V462.73c0-8.81-5.75-16-12.86-16s-12.86,7.14-12.86,16v50.56a85.53,85.53,0,0,1-15.2,9.29V462.17c0-22-14.41-39.91-32.18-39.91s-32.18,17.87-32.18,39.91v60.41a85.09,85.09,0,0,1-15.19-9.29V462.73c0-8.81-5.77-16-12.87-16s-12.85,7.14-12.85,16v59.85h-9.94V465.66c0-12.73,9.6-9.38,9.6-27.11,0-14.95-22.07-8.18-22.07-36.19,0-106.7,95.5-84.87,95.5-127.6,0,42.73,95.51,20.9,95.51,127.6C633,430.37,610.88,423.6,610.88,438.55Z" transform="translate(-258.29 -168.6)"/><path class="cls-4" d="M575.81,364.32a37.5,37.5,0,1,1-48.58-38.94,31.58,31.58,0,1,0,48.58,38.94Z" transform="translate(-258.29 -168.6)"/><polygon class="cls-4" points="298.42 187.01 289.93 185.4 283.79 191.48 282.7 182.9 275.02 178.94 282.84 175.25 284.23 166.72 290.15 173.02 298.7 171.71 294.54 179.29 298.42 187.01"/></g><g id="Ebene_3" data-name="Ebene 3"><path class="cls-5" d="M527.28,624.27a34.07,34.07,0,0,0-7.54,4.1C516,625.45,510,622.29,493,620.2c-39.56-4.86-234.68,11.62-234.68,11.62l14-20.18s6.36,3.81,12.13,4.91c13.13,2.52,33-1.65,38.66-2.65s48.82-10.29,57.08-11.62,36-5.3,58.2-3c16,1.69,31.91,4,44.31,7.28S527.28,624.27,527.28,624.27Z" transform="translate(-258.29 -168.6)"/><path class="cls-6" d="M531.62,622.84a34,34,0,0,0-4.34,1.43s-32.18-14.37-44.57-17.69S454.44,601,438.4,599.3c-22.16-2.32-49.95,1.66-58.2,3s-51.44,10.63-57.08,11.62-25.53,5.17-38.66,2.65c-5.77-1.1-12.13-4.91-12.13-4.91l66.07-94.85,6.12-.44,3-6.3,8.25-.68-71,96.41a215.6,215.6,0,0,0,30.79,2.47c15.77,0,32.29-5.63,54.81-12.6s37.81-9.19,66.34-7.53,52.68,8.64,62.83,14.27C508.1,607.14,530.9,622.36,531.62,622.84Z" transform="translate(-258.29 -168.6)"/><path class="cls-7" d="M539.74,621.81a30.51,30.51,0,0,0-8.11,1h0c-.72-.48-23.52-15.7-32-20.45-10.15-5.63-34.3-12.61-62.83-14.27s-43.81.56-66.34,7.53-39,12.6-54.81,12.6a215.6,215.6,0,0,1-30.79-2.47l71-96.41,3-6.3,7.15-.33-65,92.91s-1.51,2.66,13.89,2.48,22.52-7.79,48.81-14.09,53.7-8.54,81.09-5.31,56,11.94,69.1,18.58C525.8,603.34,537.66,619,539.74,621.81Z" transform="translate(-258.29 -168.6)"/><path class="cls-8" d="M540,621.82h-.3c-2.08-2.83-13.94-18.47-25.87-24.5-13.15-6.64-41.68-15.36-69.1-18.58s-54.81-1-81.09,5.31S330.25,598,314.87,598.13,301,595.65,301,595.65l65-92.91,3.37-6s9.39,1,18,1.64,21.77-1,29.65-2S438.4,489,459,490s36.8,3.77,52.57,12.72a196.73,196.73,0,0,1,25.57,17s3.08,2.35,3.08,2.68Z" transform="translate(-258.29 -168.6)"/><path class="cls-9" d="M540,621.81v13.92c-14.34-.51-15.58-3.76-20.3-7.36a37.49,37.49,0,0,1,12-5.53h0A31.33,31.33,0,0,1,540,621.81Z" transform="translate(-258.29 -168.6)"/><path class="cls-10" d="M540.26,621.82H540" transform="translate(-258.29 -168.6)"/><polyline class="cls-11" points="281.46 470.56 281.46 467.13 281.46 453.2"/><path class="cls-12" d="M552.72,624.27a34.07,34.07,0,0,1,7.54,4.1c3.77-2.92,9.77-6.08,26.77-8.17,39.56-4.86,234.68,11.62,234.68,11.62l-14-20.18s-6.36,3.81-12.13,4.91c-13.13,2.52-33-1.65-38.66-2.65s-48.82-10.29-57.08-11.62-36-5.3-58.2-3c-16,1.69-31.91,4-44.31,7.28S552.72,624.27,552.72,624.27Z" transform="translate(-258.29 -168.6)"/><path class="cls-13" d="M548.38,622.84a34,34,0,0,1,4.34,1.43s32.18-14.37,44.57-17.69,28.27-5.59,44.31-7.28c22.16-2.32,49.95,1.66,58.2,3s51.44,10.63,57.08,11.62,25.53,5.17,38.66,2.65c5.77-1.1,12.13-4.91,12.13-4.91L741.6,516.79l-6.12-.44-3-6.3-8.25-.68,71,96.41a215.6,215.6,0,0,1-30.79,2.47c-15.77,0-32.29-5.63-54.81-12.6s-37.81-9.19-66.34-7.53-52.68,8.64-62.83,14.27C571.9,607.14,549.1,622.36,548.38,622.84Z" transform="translate(-258.29 -168.6)"/><path class="cls-14" d="M540.26,621.81a30.51,30.51,0,0,1,8.11,1h0c.72-.48,23.52-15.7,32-20.45,10.15-5.63,34.3-12.61,62.83-14.27s43.81.56,66.34,7.53,39,12.6,54.81,12.6a215.6,215.6,0,0,0,30.79-2.47l-71-96.41-3-6.3-7.15-.33,65,92.91s1.51,2.66-13.89,2.48-22.52-7.79-48.81-14.09-53.7-8.54-81.09-5.31-56,11.94-69.1,18.58C554.2,603.34,542.34,619,540.26,621.81Z" transform="translate(-258.29 -168.6)"/><path class="cls-15" d="M540,621.82h.3c2.08-2.83,13.94-18.47,25.87-24.5,13.15-6.64,41.68-15.36,69.1-18.58s54.81-1,81.09,5.31,33.43,13.93,48.81,14.09S779,595.65,779,595.65l-65-92.91-3.37-6s-9.39,1-18,1.64-21.77-1-29.65-2S641.6,489,621,490s-36.8,3.77-52.57,12.72a183,183,0,0,0-26.27,18,18.82,18.82,0,0,0-1.86,1.74Z" transform="translate(-258.29 -168.6)"/><path class="cls-16" d="M540,621.81v13.92c14.34-.51,15.58-3.76,20.3-7.36a37.49,37.49,0,0,0-12-5.53h0A31.33,31.33,0,0,0,540,621.81Z" transform="translate(-258.29 -168.6)"/><path class="cls-10" d="M540,621.82h-.22" transform="translate(-258.29 -168.6)"/><polyline class="cls-11" points="281.97 453.2 281.97 467.13 281.97 470.56"/><g id="_Radiale_Wiederholung_2" data-name="&lt;Radiale Wiederholung&gt;" class="cls-17"><path class="cls-18" d="M742.27,403.36,689.7,348.12l1.9-76.22a12.06,12.06,0,0,0-11.76-12.36l-76.22-1.89-52.56-55.24A12.08,12.08,0,0,0,534,202l-55.23,52.57-76.22-1.9a12.06,12.06,0,0,0-12.36,11.75l-1.89,76.23L333.06,393.2a12.07,12.07,0,0,0-.42,17.05l52.56,55.24-1.89,76.22a12.05,12.05,0,0,0,11.75,12.36L471.29,556l52.56,55.24a12.07,12.07,0,0,0,17,.42l55.24-52.56L672.36,561a12.06,12.06,0,0,0,12.36-11.75L686.61,473l55.24-52.56A12.07,12.07,0,0,0,742.27,403.36Zm-16.81,15.25-46.21,44-5.1,4.86-.18,7-1.58,63.78a10.09,10.09,0,0,1-10.34,9.83l-63.78-1.58-7-.17h0l-5.1,4.85-46.22,44a10.07,10.07,0,0,1-14.26-.35l-44-46.21-4.85-5.1-7-.18L406,541.74a10.09,10.09,0,0,1-9.83-10.34l1.58-63.77.17-7h0l-4.85-5.1-44-46.21a10.09,10.09,0,0,1,.35-14.27l46.21-44,5.1-4.86.18-7,1.58-63.78a10.09,10.09,0,0,1,10.34-9.83l63.77,1.58,3,.07,4.05.1h0l5.1-4.85,46.21-44a10.07,10.07,0,0,1,14.26.35l44,46.21,2.06,2.17,2.8,2.93,7,.18,63.78,1.58a10.09,10.09,0,0,1,9.83,10.34L677.16,346l-.17,7h0l4.85,5.1,44,46.21A10.09,10.09,0,0,1,725.46,418.61Z" transform="translate(-258.29 -168.6)"/></g><path class="cls-19" d="M496.28,759.56c0,.74-.53,1.11-1.57,1.11H493.4q-.78-.39-17.75-.39c-2.17,0-4.35.08-6.52.26-1.14.08-2.87.13-5.22.13-1.14,0-1.7-.39-1.7-1.18s1.13-1.08,3.39-1.17q5.22-.14,6.14-1.24t.91-7.53V680.68q0-6.42-.66-7.2c-.53-.87-2.95-1.4-7.27-1.57-1.68-.08-2.51-.38-2.51-.92,0-.69.52-1,1.58-1h17.76c1.31,0,3.85,0,7.62.13l5-.13c1.4,0,2.11.37,2.11,1.11s-1.94,1.08-5.82,1.24c-2.2.09-3.55.48-4,1.18s-.73,2.52-.73,5.48v69.7q0,7.44.66,8.09c.95,1,3.78,1.52,8.48,1.7Q496.28,758.45,496.28,759.56Z" transform="translate(-258.29 -168.6)"/><path class="cls-20" d="M569.11,732.6A6.08,6.08,0,0,1,569,734l-.65,4.31q-.92,5.74-2.35,16.83c-.18,1.22-.39,3.14-.65,5.75H535q-18.52,0-26.49.56a15.7,15.7,0,0,1-2,.09c-1.31,0-2-.35-2-1l.26-.79c.17-.26,1.22-2.26,3.13-6q8.88-17.24,33.82-63.82,5.08-9.54,8.34-16.45-3-.66-13-.66-15.93,0-20.1,6.53a35.79,35.79,0,0,0-2.68,7,59,59,0,0,0-2.15,9.07c-.26,1.83-.91,2.74-2,2.74a1.15,1.15,0,0,1-1.3-1.3,6.82,6.82,0,0,1,.13-1.57L510,689q.39-3,1-6.53l.91-5.35q.52-3,1.57-7.7,7.83.78,24.53.78,5.61,0,12-.19t11.23-.2h2.09a5.3,5.3,0,0,0,2.09-.39q-.68,2.13-4.89,10.93-.66,2-35.91,68.39-1.56,3-4.68,8.89a146.17,146.17,0,0,0,15.29.68,94.83,94.83,0,0,0,12.15-.53q7.07-1.18,10.85-5,5.61-5.65,7.57-19.5c.18-1.49.74-2.24,1.7-2.24A1.38,1.38,0,0,1,569.11,732.6Z" transform="translate(-258.29 -168.6)"/><path class="cls-21" d="M650.56,756.75q0,5.49-9.14,5.48a18.18,18.18,0,0,1-15.92-8.48,20.09,20.09,0,0,1-3.2-7q-.72-3.39-2.15-17.23-.79-8.36-5.36-11.81t-14.88-3.72v41.11c0,1.75,1.39,2.83,4.18,3.27.78.09,2.78.17,6,.26,1.12,0,1.69.35,1.69,1s-.74,1.18-2.22,1.18H578.9c-1.92,0-2.87-.39-2.87-1.18,0-.61,1.26-1,3.78-1q6.13-.14,6.66-1.57c.35-.43.52-2.13.52-5.09v-72q0-5.22-1.11-6.26t-6.72-1.18c-2.18,0-3.26-.39-3.26-1.17S576.59,670,578,670a8.84,8.84,0,0,1,1.17.13l17.36.39c1.74,0,4.18-.05,7.31-.17q5.22-.34,7.31-.35,12.14,0,19.25,5.42a17.48,17.48,0,0,1,7.12,14.68,18.62,18.62,0,0,1-7.31,15.08q-7.32,5.94-19.84,7c-.79.09-1.22.22-1.31.39,0,.35.44.53,1.31.53q13.7,2.36,18.86,9.62t6.85,26.24q1,10.74,7.31,10.73c1.3,0,2-.26,2-.78a.4.4,0,0,0-.13-.26,6,6,0,0,1-.66-2.35c0-1.83,1-2.74,2.88-2.74C649.51,753.49,650.56,754.58,650.56,756.75Zm-27-65.39q0-18.68-16.19-18.67-4.3,0-5.87,1.18c-1,.78-1.57,2.17-1.57,4.17V711.2q12.54.12,18.08-4.57T623.54,691.36Z" transform="translate(-258.29 -168.6)"/><path d="M291.45,792.85h4.35V834h-4.35Z" transform="translate(-258.29 -168.6)"/><path d="M305.26,829l1.7-3.35c2.94,2.88,8.17,5,13.58,5,7.7,0,11-3.23,11-7.28,0-11.29-25.32-4.35-25.32-19.57,0-6,4.7-11.28,15.16-11.28a23.23,23.23,0,0,1,12.75,3.64l-1.47,3.47a21.09,21.09,0,0,0-11.28-3.41c-7.52,0-10.87,3.35-10.87,7.46,0,11.28,25.32,4.47,25.32,19.45,0,6-4.81,11.22-15.33,11.22C314.37,834.33,308.32,832.16,305.26,829Z" transform="translate(-258.29 -168.6)"/><path d="M345.33,792.85h4.35v37.37h23V834H345.33Z" transform="translate(-258.29 -168.6)"/><path d="M405.85,823H382.93L378,834h-4.53l18.81-41.13h4.29L415.37,834h-4.58Zm-1.59-3.52-9.87-22.1-9.87,22.1Z" transform="translate(-258.29 -168.6)"/><path d="M464.9,792.85V834h-4.17v-32.9l-16.16,27.67h-2.06l-16.16-27.5V834h-4.17V792.85h3.59l17.86,30.5,17.69-30.5Z" transform="translate(-258.29 -168.6)"/><path d="M493.69,792.85H498V834h-4.35Z" transform="translate(-258.29 -168.6)"/><path d="M507.49,829l1.71-3.35c2.94,2.88,8.17,5,13.57,5,7.7,0,11.05-3.23,11.05-7.28,0-11.29-25.33-4.35-25.33-19.57,0-6,4.7-11.28,15.16-11.28a23.21,23.21,0,0,1,12.75,3.64l-1.47,3.47a21.07,21.07,0,0,0-11.28-3.41c-7.52,0-10.87,3.35-10.87,7.46,0,11.28,25.33,4.47,25.33,19.45,0,6-4.82,11.22-15.34,11.22C516.6,834.33,510.55,832.16,507.49,829Z" transform="translate(-258.29 -168.6)"/><path d="M555,796.61H540.51v-3.76h33.26v3.76H559.32V834H555Z" transform="translate(-258.29 -168.6)"/><path d="M596.1,792.85h4.35v37.37h23V834H596.1Z" transform="translate(-258.29 -168.6)"/><path d="M659.79,830.22V834H630.7V792.85h28.21v3.76H635.05v14.63h21.27v3.7H635.05v15.28Z" transform="translate(-258.29 -168.6)"/><path d="M704.39,823c0,7-5.18,11-15.46,11H670V792.85h17.75c9.16,0,14.45,3.88,14.45,10.58a9.55,9.55,0,0,1-6.29,9.34C701.21,813.94,704.39,817.41,704.39,823Zm-30-26.56v14.93h13.1c6.58,0,10.4-2.53,10.4-7.46s-3.82-7.47-10.4-7.47ZM700,822.64c0-5.35-3.94-7.7-11.17-7.7H674.36V830.4h14.51C696.1,830.4,700,828.05,700,822.64Z" transform="translate(-258.29 -168.6)"/><path d="M743.4,830.22V834H714.31V792.85h28.21v3.76H718.66v14.63h21.27v3.7H718.66v15.28Z" transform="translate(-258.29 -168.6)"/><path d="M788,792.85V834h-3.58L758,800.6V834h-4.35V792.85h3.58l26.51,33.37V792.85Z" transform="translate(-258.29 -168.6)"/></g></svg>