<svg id="Ebene_1" data-name="Ebene 1" xmlns="http://www.w3.org/2000/svg" viewBox="0 0 1209.03 69.65"><path d="M17.25,35l-5.08-5.08H5v-7.2L-.09,17.6,5,12.51V5.31h7.19L17.25.22l5.09,5.09h7.18v7.2l5.09,5.09-5.09,5.09v7.2H22.33ZM8,26.86h5.42l3.83,3.84,3.83-3.84H26.5V21.44l3.83-3.84L26.5,13.76V8.34H21.09L17.25,4.5,13.42,8.34H8v5.43L4.18,17.6,8,21.43Z" transform="translate(0.09 -0.22)"/><path d="M17.25,69.87l-5.08-5.09H5v-7.2L-.09,52.49,5,47.4V40.2h7.19l5.08-5.09,5.09,5.09h7.18v7.2l5.09,5.09-5.09,5.09v7.2H22.33ZM8,61.75h5.42l3.83,3.84,3.83-3.84H26.5V56.33l3.83-3.84L26.5,48.65V43.23H21.09l-3.84-3.84-3.83,3.84H8v5.43L4.18,52.49,8,56.33Z" transform="translate(0.09 -0.22)"/><path d="M51.89,35l-5.08-5.08H39.62v-7.2L34.54,17.6l5.08-5.09V5.31H46.8L51.89.22,57,5.31h7.19v7.2l5.08,5.09-5.08,5.09v7.2H57Zm-9.25-8.11h5.42l3.83,3.84,3.83-3.84h5.42V21.44L65,17.6l-3.83-3.84V8.34H55.72L51.89,4.5,48.05,8.34H42.64v5.43L38.81,17.6l3.83,3.83Z" transform="translate(0.09 -0.22)"/><path d="M51.89,69.87l-5.08-5.09H39.62v-7.2l-5.08-5.09,5.08-5.09V40.2H46.8l5.09-5.09L57,40.2h7.19v7.2l5.08,5.09-5.08,5.09v7.2H57Zm-9.25-8.12h5.42l3.83,3.84,3.83-3.84h5.42V56.33L65,52.49l-3.83-3.84V43.23H55.72l-3.83-3.84-3.84,3.84H42.64v5.43l-3.83,3.83,3.83,3.84Z" transform="translate(0.09 -0.22)"/><path d="M86.52,35l-5.08-5.08H74.25v-7.2L69.18,17.6l5.07-5.09V5.31h7.19L86.52.22l5.09,5.09h7.18v7.2l5.09,5.09-5.09,5.09v7.2H91.6Zm-9.25-8.11h5.42l3.83,3.84,3.83-3.84h5.42V21.44L99.6,17.6l-3.83-3.84V8.34H90.36L86.52,4.5,82.69,8.34H77.27v5.43L73.45,17.6l3.82,3.83Z" transform="translate(0.09 -0.22)"/><path d="M86.52,69.87l-5.08-5.09H74.25v-7.2l-5.07-5.09,5.07-5.09V40.2h7.19l5.08-5.09,5.09,5.09h7.18v7.2l5.09,5.09-5.09,5.09v7.2H91.6Zm-9.25-8.12h5.42l3.83,3.84,3.83-3.84h5.42V56.33l3.83-3.84-3.83-3.84V43.23H90.36l-3.84-3.84-3.83,3.84H77.27v5.43l-3.82,3.83,3.82,3.84Z" transform="translate(0.09 -0.22)"/><path d="M121.16,35l-5.08-5.08h-7.19v-7.2l-5.08-5.09,5.08-5.09V5.31h7.18L121.16.22l5.08,5.09h7.19v7.2l5.08,5.09-5.08,5.09v7.2h-7.19Zm-9.25-8.11h5.42l3.83,3.84L125,26.86h5.42V21.44l3.83-3.84-3.83-3.84V8.34H125L121.16,4.5l-3.84,3.84h-5.41v5.43l-3.83,3.83,3.83,3.83Z" transform="translate(0.09 -0.22)"/><path d="M121.16,69.87l-5.08-5.09h-7.19v-7.2l-5.08-5.09,5.08-5.09V40.2h7.18l5.09-5.09,5.08,5.09h7.19v7.2l5.08,5.09-5.08,5.09v7.2h-7.19Zm-9.25-8.12h5.42l3.83,3.84L125,61.75h5.42V56.33l3.83-3.84-3.83-3.84V43.23H125l-3.83-3.84-3.84,3.84h-5.41v5.43l-3.83,3.83,3.83,3.84Z" transform="translate(0.09 -0.22)"/><path d="M155.15,35l-5.08-5.08h-7.19v-7.2L137.8,17.6l5.08-5.09V5.31h7.18L155.15.22l5.08,5.09h7.19v7.2l5.08,5.09-5.08,5.09v7.2h-7.19Zm-9.25-8.11h5.42l3.83,3.84L159,26.86h5.42V21.44l3.83-3.84-3.83-3.84V8.34H159L155.15,4.5l-3.83,3.84H145.9v5.43l-3.83,3.83,3.83,3.83Z" transform="translate(0.09 -0.22)"/><path d="M155.15,69.87l-5.08-5.09h-7.19v-7.2l-5.08-5.09,5.08-5.09V40.2h7.18l5.09-5.09,5.08,5.09h7.19v7.2l5.08,5.09-5.08,5.09v7.2h-7.19Zm-9.25-8.12h5.42l3.83,3.84L159,61.75h5.42V56.33l3.83-3.84-3.83-3.84V43.23H159l-3.83-3.84-3.83,3.84H145.9v5.43l-3.83,3.83,3.83,3.84Z" transform="translate(0.09 -0.22)"/><path d="M189.78,35l-5.07-5.08h-7.19v-7.2l-5.08-5.09,5.08-5.09V5.31h7.18L189.78.22l5.09,5.09h7.18v7.2l5.09,5.09-5.09,5.09v7.2h-7.19Zm-9.24-8.11H186l3.82,3.84,3.83-3.84H199V21.44l3.84-3.84L199,13.76V8.34h-5.41L189.78,4.5,186,8.34h-5.41v5.43l-3.83,3.83,3.83,3.83Z" transform="translate(0.09 -0.22)"/><path d="M189.78,69.87l-5.07-5.09h-7.19v-7.2l-5.08-5.09,5.08-5.09V40.2h7.18l5.08-5.09,5.09,5.09h7.18v7.2l5.09,5.09-5.09,5.09v7.2h-7.19Zm-9.24-8.12H186l3.82,3.84,3.83-3.84H199V56.33l3.84-3.84L199,48.65V43.23h-5.41l-3.84-3.84L186,43.23h-5.41v5.43l-3.83,3.83,3.83,3.84Z" transform="translate(0.09 -0.22)"/><path d="M224.42,35l-5.08-5.08h-7.19v-7.2l-5.08-5.09,5.08-5.09V5.31h7.18L224.42.22l5.08,5.09h7.19v7.2l5.08,5.09-5.08,5.09v7.2H229.5Zm-9.25-8.11h5.42l3.83,3.84,3.83-3.84h5.42V21.44l3.83-3.84-3.83-3.84V8.34h-5.42L224.42,4.5l-3.83,3.84h-5.42v5.43l-3.83,3.83,3.83,3.83Z" transform="translate(0.09 -0.22)"/><path d="M224.42,69.87l-5.08-5.09h-7.19v-7.2l-5.08-5.09,5.08-5.09V40.2h7.18l5.09-5.09,5.08,5.09h7.19v7.2l5.08,5.09-5.08,5.09v7.2H229.5Zm-9.25-8.12h5.42l3.83,3.84,3.83-3.84h5.42V56.33l3.83-3.84-3.83-3.84V43.23h-5.42l-3.83-3.84-3.83,3.84h-5.42v5.43l-3.83,3.83,3.83,3.84Z" transform="translate(0.09 -0.22)"/><path d="M259.05,35,254,29.89h-7.19v-7.2l-5.08-5.09,5.08-5.09V5.31H254L259.05.22l5.09,5.09h7.18v7.2l5.09,5.09-5.09,5.09v7.2h-7.19Zm-9.24-8.11h5.42l3.82,3.84,3.83-3.84h5.42V21.44l3.84-3.84-3.84-3.84V8.34h-5.41L259.05,4.5l-3.83,3.84h-5.41v5.43L246,17.6l3.83,3.83Z" transform="translate(0.09 -0.22)"/><path d="M259.05,69.87,254,64.78h-7.19v-7.2l-5.08-5.09,5.08-5.09V40.2H254l5.08-5.09,5.09,5.09h7.18v7.2l5.09,5.09-5.09,5.09v7.2h-7.19Zm-9.24-8.12h5.42l3.82,3.84,3.83-3.84h5.42V56.33l3.84-3.84-3.84-3.84V43.23h-5.41l-3.84-3.84-3.83,3.84h-5.41v5.43L246,52.49l3.83,3.84Z" transform="translate(0.09 -0.22)"/><path d="M293.58,35l-5.08-5.08h-7.19v-7.2l-5.08-5.09,5.08-5.09V5.31h7.19L293.58.22l5.09,5.09h7.18v7.2l5.08,5.09-5.08,5.09v7.2h-7.19Zm-9.25-8.11h5.42l3.83,3.84,3.83-3.84h5.42V21.44l3.83-3.84-3.83-3.84V8.34h-5.41L293.58,4.5l-3.83,3.84h-5.42v5.43l-3.82,3.83,3.82,3.83Z" transform="translate(0.09 -0.22)"/><path d="M293.58,69.87l-5.08-5.09h-7.19v-7.2l-5.08-5.09,5.08-5.09V40.2h7.19l5.08-5.09,5.09,5.09h7.18v7.2l5.08,5.09-5.08,5.09v7.2h-7.19Zm-9.25-8.12h5.42l3.83,3.84,3.83-3.84h5.42V56.33l3.83-3.84-3.83-3.84V43.23h-5.41l-3.84-3.84-3.83,3.84h-5.42v5.43l-3.82,3.83,3.82,3.84Z" transform="translate(0.09 -0.22)"/><path d="M328.22,35l-5.08-5.08H316v-7.2l-5.08-5.09L316,12.51V5.31h7.18L328.22.22l5.08,5.09h7.18v7.2l5.09,5.09-5.09,5.09v7.2H333.3ZM319,26.86h5.42l3.83,3.84L332,26.86h5.42V21.44l3.84-3.84-3.84-3.84V8.34h-5.41L328.22,4.5l-3.84,3.84H319v5.43l-3.83,3.83L319,21.43Z" transform="translate(0.09 -0.22)"/><path d="M328.22,69.87l-5.08-5.09H316v-7.2l-5.08-5.09L316,47.4V40.2h7.18l5.09-5.09,5.08,5.09h7.18v7.2l5.09,5.09-5.09,5.09v7.2H333.3ZM319,61.75h5.42l3.83,3.84L332,61.75h5.42V56.33l3.84-3.84-3.84-3.84V43.23h-5.41l-3.83-3.84-3.84,3.84H319v5.43l-3.83,3.83L319,56.33Z" transform="translate(0.09 -0.22)"/><path d="M362.85,35l-5.08-5.08h-7.19v-7.2l-5.07-5.09,5.07-5.09V5.31h7.19L362.85.22l5.09,5.09h7.18v7.2l5.08,5.09-5.08,5.09v7.2h-7.19Zm-9.25-8.11H359l3.83,3.84,3.83-3.84h5.42V21.44l3.83-3.84-3.83-3.84V8.34h-5.41L362.85,4.5,359,8.34H353.6v5.43l-3.82,3.83,3.82,3.83Z" transform="translate(0.09 -0.22)"/><path d="M362.85,69.87l-5.08-5.09h-7.19v-7.2l-5.07-5.09,5.07-5.09V40.2h7.19l5.08-5.09,5.09,5.09h7.18v7.2l5.08,5.09-5.08,5.09v7.2h-7.19Zm-9.25-8.12H359l3.83,3.84,3.83-3.84h5.42V56.33l3.83-3.84-3.83-3.84V43.23h-5.41l-3.84-3.84L359,43.23H353.6v5.43l-3.82,3.83,3.82,3.84Z" transform="translate(0.09 -0.22)"/><path d="M397.49,35l-5.08-5.08h-7.19v-7.2l-5.08-5.09,5.08-5.09V5.31h7.18L397.49.22l5.08,5.09h7.19v7.2l5.08,5.09-5.08,5.09v7.2h-7.19Zm-9.25-8.11h5.42l3.83,3.84,3.82-3.84h5.42V21.44l3.84-3.84-3.84-3.84V8.34h-5.41L397.49,4.5l-3.84,3.84h-5.41v5.43l-3.83,3.83,3.83,3.83Z" transform="translate(0.09 -0.22)"/><path d="M397.49,69.87l-5.08-5.09h-7.19v-7.2l-5.08-5.09,5.08-5.09V40.2h7.18l5.09-5.09,5.08,5.09h7.19v7.2l5.08,5.09-5.08,5.09v7.2h-7.19Zm-9.25-8.12h5.42l3.83,3.84,3.82-3.84h5.42V56.33l3.84-3.84-3.84-3.84V43.23h-5.41l-3.83-3.84-3.84,3.84h-5.41v5.43l-3.83,3.83,3.83,3.84Z" transform="translate(0.09 -0.22)"/><path d="M431.48,35l-5.08-5.08h-7.19v-7.2l-5.08-5.09,5.08-5.09V5.31h7.18L431.48.22l5.08,5.09h7.19v7.2l5.08,5.09-5.08,5.09v7.2h-7.19Zm-9.25-8.11h5.42l3.83,3.84,3.83-3.84h5.42V21.44l3.83-3.84-3.83-3.84V8.34h-5.42L431.48,4.5l-3.84,3.84h-5.41v5.43L418.4,17.6l3.83,3.83Z" transform="translate(0.09 -0.22)"/><path d="M431.48,69.87l-5.08-5.09h-7.19v-7.2l-5.08-5.09,5.08-5.09V40.2h7.18l5.09-5.09,5.08,5.09h7.19v7.2l5.08,5.09-5.08,5.09v7.2h-7.19Zm-9.25-8.12h5.42l3.83,3.84,3.83-3.84h5.42V56.33l3.83-3.84-3.83-3.84V43.23h-5.42l-3.83-3.84-3.84,3.84h-5.41v5.43l-3.83,3.83,3.83,3.84Z" transform="translate(0.09 -0.22)"/><path d="M466.11,35,461,29.89h-7.18v-7.2l-5.08-5.09,5.08-5.09V5.31H461L466.11.22l5.09,5.09h7.18v7.2l5.09,5.09-5.09,5.09v7.2h-7.19Zm-9.24-8.11h5.42l3.82,3.84,3.83-3.84h5.42V21.44l3.84-3.84-3.84-3.84V8.34H470L466.11,4.5l-3.83,3.84h-5.41v5.43L453,17.6l3.83,3.83Z" transform="translate(0.09 -0.22)"/><path d="M466.11,69.87,461,64.78h-7.18v-7.2l-5.08-5.09,5.08-5.09V40.2H461l5.08-5.09,5.09,5.09h7.18v7.2l5.09,5.09-5.09,5.09v7.2h-7.19Zm-9.24-8.12h5.42l3.82,3.84,3.83-3.84h5.42V56.33l3.84-3.84-3.84-3.84V43.23H470l-3.84-3.84-3.83,3.84h-5.41v5.43L453,52.49l3.83,3.84Z" transform="translate(0.09 -0.22)"/><path d="M500.75,35l-5.08-5.08h-7.19v-7.2L483.4,17.6l5.08-5.09V5.31h7.18L500.75.22l5.08,5.09H513v7.2l5.08,5.09L513,22.69v7.2h-7.19Zm-9.25-8.11h5.42l3.83,3.84,3.83-3.84H510V21.44l3.83-3.84L510,13.76V8.34h-5.42L500.75,4.5l-3.84,3.84H491.5v5.43l-3.83,3.83,3.83,3.83Z" transform="translate(0.09 -0.22)"/><path d="M500.75,69.87l-5.08-5.09h-7.19v-7.2l-5.08-5.09,5.08-5.09V40.2h7.18l5.09-5.09,5.08,5.09H513v7.2l5.08,5.09L513,57.58v7.2h-7.19Zm-9.25-8.12h5.42l3.83,3.84,3.83-3.84H510V56.33l3.83-3.84L510,48.65V43.23h-5.42l-3.83-3.84-3.84,3.84H491.5v5.43l-3.83,3.83,3.83,3.84Z" transform="translate(0.09 -0.22)"/><path d="M535.38,35l-5.07-5.08h-7.19v-7.2L518,17.6l5.08-5.09V5.31h7.18L535.38.22l5.09,5.09h7.18v7.2l5.09,5.09-5.09,5.09v7.2h-7.19Zm-9.24-8.11h5.42l3.82,3.84,3.83-3.84h5.42V21.44l3.84-3.84-3.84-3.84V8.34h-5.41L535.38,4.5l-3.83,3.84h-5.41v5.43l-3.83,3.83,3.83,3.83Z" transform="translate(0.09 -0.22)"/><path d="M535.38,69.87l-5.07-5.09h-7.19v-7.2L518,52.49l5.08-5.09V40.2h7.18l5.08-5.09,5.09,5.09h7.18v7.2l5.09,5.09-5.09,5.09v7.2h-7.19Zm-9.24-8.12h5.42l3.82,3.84,3.83-3.84h5.42V56.33l3.84-3.84-3.84-3.84V43.23h-5.41l-3.84-3.84-3.83,3.84h-5.41v5.43l-3.83,3.83,3.83,3.84Z" transform="translate(0.09 -0.22)"/><path d="M569.55,35l-5.08-5.08h-7.19v-7.2L552.2,17.6l5.08-5.09V5.31h7.18L569.55.22l5.08,5.09h7.18v7.2l5.09,5.09-5.09,5.09v7.2h-7.19Zm-9.25-8.11h5.42l3.83,3.84,3.82-3.84h5.42V21.44l3.84-3.84-3.84-3.84V8.34h-5.41L569.55,4.5l-3.84,3.84H560.3v5.43l-3.83,3.83,3.83,3.83Z" transform="translate(0.09 -0.22)"/><path d="M569.55,69.87l-5.08-5.09h-7.19v-7.2l-5.08-5.09,5.08-5.09V40.2h7.18l5.09-5.09,5.08,5.09h7.18v7.2l5.09,5.09-5.09,5.09v7.2h-7.19Zm-9.25-8.12h5.42l3.83,3.84,3.82-3.84h5.42V56.33l3.84-3.84-3.84-3.84V43.23h-5.41l-3.83-3.84-3.84,3.84H560.3v5.43l-3.83,3.83,3.83,3.84Z" transform="translate(0.09 -0.22)"/><path d="M604.18,35l-5.08-5.08h-7.19v-7.2l-5.08-5.09,5.08-5.09V5.31h7.19L604.18.22l5.09,5.09h7.18v7.2l5.08,5.09-5.08,5.09v7.2h-7.19Zm-9.25-8.11h5.42l3.83,3.84L608,26.86h5.42V21.44l3.83-3.84-3.83-3.84V8.34H608L604.18,4.5l-3.83,3.84h-5.42v5.43l-3.82,3.83,3.82,3.83Z" transform="translate(0.09 -0.22)"/><path d="M604.18,69.87l-5.08-5.09h-7.19v-7.2l-5.08-5.09,5.08-5.09V40.2h7.19l5.08-5.09,5.09,5.09h7.18v7.2l5.08,5.09-5.08,5.09v7.2h-7.19Zm-9.25-8.12h5.42l3.83,3.84L608,61.75h5.42V56.33l3.83-3.84-3.83-3.84V43.23H608l-3.84-3.84-3.83,3.84h-5.42v5.43l-3.82,3.83,3.82,3.84Z" transform="translate(0.09 -0.22)"/><path d="M638.82,35l-5.08-5.08h-7.19v-7.2l-5.08-5.09,5.08-5.09V5.31h7.18L638.82.22l5.08,5.09h7.18v7.2l5.09,5.09-5.09,5.09v7.2h-7.19Zm-9.25-8.11H635l3.83,3.84,3.82-3.84h5.42V21.44l3.84-3.84-3.84-3.84V8.34h-5.41L638.82,4.5,635,8.34h-5.41v5.43l-3.83,3.83,3.83,3.83Z" transform="translate(0.09 -0.22)"/><path d="M638.82,69.87l-5.08-5.09h-7.19v-7.2l-5.08-5.09,5.08-5.09V40.2h7.18l5.09-5.09,5.08,5.09h7.18v7.2l5.09,5.09-5.09,5.09v7.2h-7.19Zm-9.25-8.12H635l3.83,3.84,3.82-3.84h5.42V56.33l3.84-3.84-3.84-3.84V43.23h-5.41l-3.83-3.84L635,43.23h-5.41v5.43l-3.83,3.83,3.83,3.84Z" transform="translate(0.09 -0.22)"/><path d="M673.45,35l-5.08-5.08h-7.19v-7.2L656.1,17.6l5.08-5.09V5.31h7.19L673.45.22l5.09,5.09h7.18v7.2l5.08,5.09-5.08,5.09v7.2h-7.19Zm-9.25-8.11h5.42l3.83,3.84,3.83-3.84h5.42V21.44l3.83-3.84-3.83-3.84V8.34h-5.41L673.45,4.5l-3.83,3.84H664.2v5.43l-3.82,3.83,3.82,3.83Z" transform="translate(0.09 -0.22)"/><path d="M673.45,69.87l-5.08-5.09h-7.19v-7.2l-5.08-5.09,5.08-5.09V40.2h7.19l5.08-5.09,5.09,5.09h7.18v7.2l5.08,5.09-5.08,5.09v7.2h-7.19Zm-9.25-8.12h5.42l3.83,3.84,3.83-3.84h5.42V56.33l3.83-3.84-3.83-3.84V43.23h-5.41l-3.84-3.84-3.83,3.84H664.2v5.43l-3.82,3.83,3.82,3.84Z" transform="translate(0.09 -0.22)"/><path d="M707.44,35l-5.08-5.08h-7.19v-7.2L690.1,17.6l5.07-5.09V5.31h7.19L707.44.22l5.09,5.09h7.18v7.2l5.09,5.09-5.09,5.09v7.2h-7.19Zm-9.25-8.11h5.42l3.83,3.84,3.83-3.84h5.42V21.44l3.83-3.84-3.83-3.84V8.34h-5.41L707.44,4.5l-3.83,3.84h-5.42v5.43l-3.82,3.83,3.82,3.83Z" transform="translate(0.09 -0.22)"/><path d="M707.44,69.87l-5.08-5.09h-7.19v-7.2l-5.07-5.09,5.07-5.09V40.2h7.19l5.08-5.09,5.09,5.09h7.18v7.2l5.09,5.09-5.09,5.09v7.2h-7.19Zm-9.25-8.12h5.42l3.83,3.84,3.83-3.84h5.42V56.33l3.83-3.84-3.83-3.84V43.23h-5.41l-3.84-3.84-3.83,3.84h-5.42v5.43l-3.82,3.83,3.82,3.84Z" transform="translate(0.09 -0.22)"/><path d="M742.08,35,737,29.89h-7.19v-7.2l-5.08-5.09,5.08-5.09V5.31H737L742.08.22l5.08,5.09h7.19v7.2l5.08,5.09-5.08,5.09v7.2h-7.19Zm-9.25-8.11h5.42l3.83,3.84,3.83-3.84h5.42V21.44l3.83-3.84-3.83-3.84V8.34h-5.42L742.08,4.5l-3.84,3.84h-5.41v5.43L729,17.6l3.83,3.83Z" transform="translate(0.09 -0.22)"/><path d="M742.08,69.87,737,64.78h-7.19v-7.2l-5.08-5.09,5.08-5.09V40.2H737l5.09-5.09,5.08,5.09h7.19v7.2l5.08,5.09-5.08,5.09v7.2h-7.19Zm-9.25-8.12h5.42l3.83,3.84,3.83-3.84h5.42V56.33l3.83-3.84-3.83-3.84V43.23h-5.42l-3.83-3.84-3.84,3.84h-5.41v5.43L729,52.49l3.83,3.84Z" transform="translate(0.09 -0.22)"/><path d="M776.71,35l-5.08-5.08h-7.19v-7.2l-5.07-5.09,5.07-5.09V5.31h7.19L776.71.22l5.09,5.09H789v7.2l5.09,5.09L789,22.69v7.2h-7.19Zm-9.24-8.11h5.42l3.82,3.84,3.83-3.84H786V21.44l3.84-3.84L786,13.76V8.34h-5.41L776.71,4.5l-3.83,3.84h-5.41v5.43l-3.83,3.83,3.83,3.83Z" transform="translate(0.09 -0.22)"/><path d="M776.71,69.87l-5.08-5.09h-7.19v-7.2l-5.07-5.09,5.07-5.09V40.2h7.19l5.08-5.09,5.09,5.09H789v7.2l5.09,5.09L789,57.58v7.2h-7.19Zm-9.24-8.12h5.42l3.82,3.84,3.83-3.84H786V56.33l3.84-3.84L786,48.65V43.23h-5.41l-3.84-3.84-3.83,3.84h-5.41v5.43l-3.83,3.83,3.83,3.84Z" transform="translate(0.09 -0.22)"/><path d="M811.35,35l-5.08-5.08h-7.19v-7.2L794,17.6l5.08-5.09V5.31h7.18L811.35.22l5.08,5.09h7.19v7.2l5.08,5.09-5.08,5.09v7.2h-7.19Zm-9.25-8.11h5.42l3.83,3.84,3.83-3.84h5.42V21.44l3.83-3.84-3.83-3.84V8.34h-5.42L811.35,4.5l-3.84,3.84H802.1v5.43l-3.83,3.83,3.83,3.83Z" transform="translate(0.09 -0.22)"/><path d="M811.35,69.87l-5.08-5.09h-7.19v-7.2L794,52.49l5.08-5.09V40.2h7.18l5.09-5.09,5.08,5.09h7.19v7.2l5.08,5.09-5.08,5.09v7.2h-7.19Zm-9.25-8.12h5.42l3.83,3.84,3.83-3.84h5.42V56.33l3.83-3.84-3.83-3.84V43.23h-5.42l-3.83-3.84-3.84,3.84H802.1v5.43l-3.83,3.83,3.83,3.84Z" transform="translate(0.09 -0.22)"/><path d="M845.87,35l-5.07-5.08h-7.19v-7.2l-5.08-5.09,5.08-5.09V5.31h7.18L845.87.22,851,5.31h7.18v7.2l5.09,5.09-5.09,5.09v7.2H851Zm-9.24-8.11h5.42l3.82,3.84,3.83-3.84h5.42V21.44L859,17.6l-3.84-3.84V8.34h-5.41L845.87,4.5,842,8.34h-5.41v5.43L832.8,17.6l3.83,3.83Z" transform="translate(0.09 -0.22)"/><path d="M845.87,69.87l-5.07-5.09h-7.19v-7.2l-5.08-5.09,5.08-5.09V40.2h7.18l5.08-5.09L851,40.2h7.18v7.2l5.09,5.09-5.09,5.09v7.2H851Zm-9.24-8.12h5.42l3.82,3.84,3.83-3.84h5.42V56.33L859,52.49l-3.84-3.84V43.23h-5.41l-3.84-3.84L842,43.23h-5.41v5.43l-3.83,3.83,3.83,3.84Z" transform="translate(0.09 -0.22)"/><path d="M880.51,35l-5.08-5.08h-7.19v-7.2l-5.08-5.09,5.08-5.09V5.31h7.18L880.51.22l5.08,5.09h7.19v7.2l5.08,5.09-5.08,5.09v7.2h-7.19Zm-9.25-8.11h5.42l3.83,3.84,3.83-3.84h5.42V21.44l3.83-3.84-3.83-3.84V8.34h-5.42L880.51,4.5l-3.83,3.84h-5.42v5.43l-3.83,3.83,3.83,3.83Z" transform="translate(0.09 -0.22)"/><path d="M880.51,69.87l-5.08-5.09h-7.19v-7.2l-5.08-5.09,5.08-5.09V40.2h7.18l5.09-5.09,5.08,5.09h7.19v7.2l5.08,5.09-5.08,5.09v7.2h-7.19Zm-9.25-8.12h5.42l3.83,3.84,3.83-3.84h5.42V56.33l3.83-3.84-3.83-3.84V43.23h-5.42l-3.83-3.84-3.83,3.84h-5.42v5.43l-3.83,3.83,3.83,3.84Z" transform="translate(0.09 -0.22)"/><path d="M915.14,35l-5.07-5.08h-7.19v-7.2L897.8,17.6l5.08-5.09V5.31h7.18L915.14.22l5.09,5.09h7.18v7.2l5.09,5.09-5.09,5.09v7.2h-7.19Zm-9.24-8.11h5.42l3.82,3.84L919,26.86h5.42V21.44l3.84-3.84-3.84-3.84V8.34H919L915.14,4.5l-3.83,3.84H905.9v5.43l-3.83,3.83,3.83,3.83Z" transform="translate(0.09 -0.22)"/><path d="M915.14,69.87l-5.07-5.09h-7.19v-7.2l-5.08-5.09,5.08-5.09V40.2h7.18l5.08-5.09,5.09,5.09h7.18v7.2l5.09,5.09-5.09,5.09v7.2h-7.19Zm-9.24-8.12h5.42l3.82,3.84L919,61.75h5.42V56.33l3.84-3.84-3.84-3.84V43.23H919l-3.84-3.84-3.83,3.84H905.9v5.43l-3.83,3.83,3.83,3.84Z" transform="translate(0.09 -0.22)"/><path d="M949.78,35l-5.08-5.08h-7.19v-7.2l-5.08-5.09,5.08-5.09V5.31h7.19L949.78.22l5.09,5.09h7.18v7.2l5.08,5.09-5.08,5.09v7.2h-7.19Zm-9.25-8.11H946l3.83,3.84,3.83-3.84H959V21.44l3.83-3.84L959,13.76V8.34h-5.42L949.78,4.5,946,8.34h-5.42v5.43L936.7,17.6l3.83,3.83Z" transform="translate(0.09 -0.22)"/><path d="M949.78,69.87l-5.08-5.09h-7.19v-7.2l-5.08-5.09,5.08-5.09V40.2h7.19l5.08-5.09,5.09,5.09h7.18v7.2l5.08,5.09-5.08,5.09v7.2h-7.19Zm-9.25-8.12H946l3.83,3.84,3.83-3.84H959V56.33l3.83-3.84L959,48.65V43.23h-5.42l-3.83-3.84L946,43.23h-5.42v5.43l-3.83,3.83,3.83,3.84Z" transform="translate(0.09 -0.22)"/><path d="M983.77,35l-5.08-5.08H971.5v-7.2l-5.08-5.09,5.08-5.09V5.31h7.19L983.77.22l5.09,5.09H996v7.2l5.08,5.09L996,22.69v7.2h-7.19Zm-9.25-8.11h5.42l3.83,3.84,3.83-3.84H993V21.44l3.83-3.84L993,13.76V8.34h-5.41L983.77,4.5l-3.83,3.84h-5.42v5.43L970.7,17.6l3.82,3.83Z" transform="translate(0.09 -0.22)"/><path d="M983.77,69.87l-5.08-5.09H971.5v-7.2l-5.08-5.09,5.08-5.09V40.2h7.19l5.08-5.09,5.09,5.09H996v7.2l5.08,5.09L996,57.58v7.2h-7.19Zm-9.25-8.12h5.42l3.83,3.84,3.83-3.84H993V56.33l3.83-3.84L993,48.65V43.23h-5.41l-3.84-3.84-3.83,3.84h-5.42v5.43l-3.82,3.83,3.82,3.84Z" transform="translate(0.09 -0.22)"/><path d="M1018.41,35l-5.08-5.08h-7.19v-7.2l-5.08-5.09,5.08-5.09V5.31h7.18l5.09-5.09,5.08,5.09h7.19v7.2l5.08,5.09-5.08,5.09v7.2h-7.19Zm-9.25-8.11h5.42l3.83,3.84,3.82-3.84h5.42V21.44l3.84-3.84-3.84-3.84V8.34h-5.41l-3.83-3.84-3.84,3.84h-5.41v5.43l-3.83,3.83,3.83,3.83Z" transform="translate(0.09 -0.22)"/><path d="M1018.41,69.87l-5.08-5.09h-7.19v-7.2l-5.08-5.09,5.08-5.09V40.2h7.18l5.09-5.09,5.08,5.09h7.19v7.2l5.08,5.09-5.08,5.09v7.2h-7.19Zm-9.25-8.12h5.42l3.83,3.84,3.82-3.84h5.42V56.33l3.84-3.84-3.84-3.84V43.23h-5.41l-3.83-3.84-3.84,3.84h-5.41v5.43l-3.83,3.83,3.83,3.84Z" transform="translate(0.09 -0.22)"/><path d="M1053,35,1048,29.89h-7.19v-7.2l-5.07-5.09,5.07-5.09V5.31H1048L1053,.22l5.09,5.09h7.18v7.2l5.09,5.09-5.09,5.09v7.2h-7.19Zm-9.25-8.11h5.42L1053,30.7l3.83-3.84h5.42V21.44l3.83-3.84-3.83-3.84V8.34h-5.41L1053,4.5l-3.83,3.84h-5.42v5.43L1040,17.6l3.82,3.83Z" transform="translate(0.09 -0.22)"/><path d="M1053,69.87,1048,64.78h-7.19v-7.2l-5.07-5.09,5.07-5.09V40.2H1048l5.08-5.09,5.09,5.09h7.18v7.2l5.09,5.09-5.09,5.09v7.2h-7.19Zm-9.25-8.12h5.42l3.83,3.84,3.83-3.84h5.42V56.33l3.83-3.84-3.83-3.84V43.23h-5.41L1053,39.39l-3.83,3.84h-5.42v5.43L1040,52.49l3.82,3.84Z" transform="translate(0.09 -0.22)"/><path d="M1087.68,35l-5.08-5.08h-7.19v-7.2l-5.08-5.09,5.08-5.09V5.31h7.18l5.09-5.09,5.08,5.09H1100v7.2L1105,17.6,1100,22.69v7.2h-7.19Zm-9.25-8.11h5.42l3.83,3.84,3.83-3.84h5.42V21.44l3.83-3.84-3.83-3.84V8.34h-5.42l-3.83-3.84-3.84,3.84h-5.41v5.43l-3.83,3.83,3.83,3.83Z" transform="translate(0.09 -0.22)"/><path d="M1087.68,69.87l-5.08-5.09h-7.19v-7.2l-5.08-5.09,5.08-5.09V40.2h7.18l5.09-5.09,5.08,5.09H1100v7.2l5.08,5.09L1100,57.58v7.2h-7.19Zm-9.25-8.12h5.42l3.83,3.84,3.83-3.84h5.42V56.33l3.83-3.84-3.83-3.84V43.23h-5.42l-3.83-3.84-3.84,3.84h-5.41v5.43l-3.83,3.83,3.83,3.84Z" transform="translate(0.09 -0.22)"/><path d="M1122.31,35l-5.08-5.08H1110v-7.2L1105,17.6l5.07-5.09V5.31h7.19l5.08-5.09,5.09,5.09h7.18v7.2l5.09,5.09-5.09,5.09v7.2h-7.19Zm-9.25-8.11h5.42l3.83,3.84,3.83-3.84h5.42V21.44l3.83-3.84-3.83-3.84V8.34h-5.41l-3.84-3.84-3.83,3.84h-5.42v5.43l-3.82,3.83,3.82,3.83Z" transform="translate(0.09 -0.22)"/><path d="M1122.31,69.87l-5.08-5.09H1110v-7.2L1105,52.49,1110,47.4V40.2h7.19l5.08-5.09,5.09,5.09h7.18v7.2l5.09,5.09-5.09,5.09v7.2h-7.19Zm-9.25-8.12h5.42l3.83,3.84,3.83-3.84h5.42V56.33l3.83-3.84-3.83-3.84V43.23h-5.41l-3.84-3.84-3.83,3.84h-5.42v5.43l-3.82,3.83,3.82,3.84Z" transform="translate(0.09 -0.22)"/><path d="M1157,35l-5.08-5.08h-7.19v-7.2l-5.08-5.09,5.08-5.09V5.31h7.18L1157,.22,1162,5.31h7.19v7.2l5.08,5.09-5.08,5.09v7.2H1162Zm-9.25-8.11h5.42L1157,30.7l3.83-3.84h5.42V21.44L1170,17.6l-3.83-3.84V8.34h-5.42L1157,4.5l-3.84,3.84h-5.41v5.43l-3.83,3.83,3.83,3.83Z" transform="translate(0.09 -0.22)"/><path d="M1157,69.87l-5.08-5.09h-7.19v-7.2l-5.08-5.09,5.08-5.09V40.2h7.18l5.09-5.09L1162,40.2h7.19v7.2l5.08,5.09-5.08,5.09v7.2H1162Zm-9.25-8.12h5.42l3.83,3.84,3.83-3.84h5.42V56.33l3.83-3.84-3.83-3.84V43.23h-5.42L1157,39.39l-3.84,3.84h-5.41v5.43l-3.83,3.83,3.83,3.84Z" transform="translate(0.09 -0.22)"/><path d="M1191.58,35l-5.08-5.08h-7.19v-7.2l-5.07-5.09,5.07-5.09V5.31h7.19l5.08-5.09,5.09,5.09h7.18v7.2l5.09,5.09-5.09,5.09v7.2h-7.19Zm-9.25-8.11h5.42l3.83,3.84,3.83-3.84h5.42V21.44l3.83-3.84-3.83-3.84V8.34h-5.41l-3.84-3.84-3.83,3.84h-5.42v5.43l-3.82,3.83,3.82,3.83Z" transform="translate(0.09 -0.22)"/><path d="M1191.58,69.87l-5.08-5.09h-7.19v-7.2l-5.07-5.09,5.07-5.09V40.2h7.19l5.08-5.09,5.09,5.09h7.18v7.2l5.09,5.09-5.09,5.09v7.2h-7.19Zm-9.25-8.12h5.42l3.83,3.84,3.83-3.84h5.42V56.33l3.83-3.84-3.83-3.84V43.23h-5.41l-3.84-3.84-3.83,3.84h-5.42v5.43l-3.82,3.83,3.82,3.84Z" transform="translate(0.09 -0.22)"/></svg>