<?xml version="1.0" encoding="utf-8"?>
<!-- Generator: Adobe Illustrator 25.4.1, SVG Export Plug-In . SVG Version: 6.00 Build 0)  -->
<svg version="1.1" id="Ebene_1" xmlns="http://www.w3.org/2000/svg" xmlns:xlink="http://www.w3.org/1999/xlink" x="0px" y="0px"
	 viewBox="0 0 64 64" style="enable-background:new 0 0 64 64;" xml:space="preserve">
<g id="Layer_2">
	<g id="Layer_1-2">
		<path d="M32,0C14.3,0,0,14.3,0,32s14.3,32,32,32s32-14.3,32-32S49.7,0,32,0z M32,58.7C17.3,58.7,5.3,46.7,5.3,32S17.3,5.3,32,5.3
			S58.7,17.3,58.7,32c0,0,0,0,0,0C58.6,46.7,46.7,58.6,32,58.7z"/>
		<path d="M43.5,34.7l-7.1-5.3L34.7,28V13.3c0-1.5-1.2-2.7-2.7-2.7c-1.5,0-2.7,1.2-2.7,2.7v16c0,0.2,0,0.4,0.1,0.6
			c0,0.2,0.1,0.4,0.2,0.6c0.1,0.2,0.2,0.3,0.3,0.5c0,0,0,0.1,0.1,0.1c0.1,0.1,0.2,0.2,0.4,0.4l0,0l0.1,0.1l4.2,3.1l6.4,4.8
			c0.5,0.4,1,0.5,1.6,0.5c1.5,0,2.7-1.2,2.7-2.7c0-0.8-0.4-1.6-1.1-2.1L43.5,34.7z"/>
	</g>
</g>
</svg>
